{"glyphs":{"0":{"ha":1269,"x_min":103,"x_max":1165,"o":"m 638 -26 q 358 63 478 -26 q 170 328 238 151 q 103 763 103 504 q 120 1000 103 892 q 171 1196 138 1108 q 251 1349 204 1283 q 358 1460 299 1415 q 488 1526 417 1504 q 638 1549 558 1549 q 913 1460 794 1549 q 1099 1196 1032 1371 q 1165 763 1165 1021 q 1149 524 1165 632 q 1099 328 1132 415 q 1019 174 1065 240 q 914 63 972 107 q 786 -4 856 18 q 638 -26 717 -26 m 635 92 q 748 111 694 92 q 846 169 801 131 q 926 264 890 207 q 985 395 961 321 q 1022 562 1010 469 q 1035 763 1035 654 q 985 1130 1035 982 q 846 1354 936 1278 q 635 1431 756 1431 q 521 1412 574 1431 q 424 1355 468 1393 q 344 1260 379 1317 q 284 1131 308 1204 q 247 965 260 1057 q 233 763 233 872 q 283 395 233 544 q 424 169 333 246 q 635 92 514 92 z "},"1":{"ha":749,"x_min":14,"x_max":464,"o":"m 404 -19 q 357 -9 371 -19 q 343 19 343 1 l 343 1376 q 265 1308 306 1343 q 184 1244 225 1274 q 106 1189 143 1214 q 67 1178 85 1178 q 32 1204 49 1179 q 17 1247 14 1231 q 47 1282 21 1264 q 140 1347 96 1314 q 231 1422 185 1381 q 331 1518 278 1463 q 353 1537 343 1531 q 375 1546 363 1543 q 408 1549 388 1549 q 453 1537 442 1549 q 464 1511 464 1525 l 464 19 q 450 -9 464 1 q 404 -19 436 -19 z "},"2":{"ha":1103,"x_min":69,"x_max":994,"o":"m 119 0 q 87 15 101 0 q 71 51 72 29 q 89 92 69 72 l 404 414 q 538 558 476 489 q 649 692 600 628 q 735 817 699 756 q 797 935 772 878 q 835 1046 822 992 q 847 1153 847 1100 q 808 1317 847 1256 q 697 1406 769 1378 q 525 1435 624 1435 q 352 1398 429 1435 q 200 1294 275 1361 q 160 1274 178 1275 q 121 1292 142 1274 q 99 1333 97 1315 q 117 1369 101 1351 q 222 1456 158 1415 q 366 1523 285 1497 q 539 1549 447 1549 q 707 1525 629 1549 q 844 1453 785 1501 q 938 1331 904 1404 q 971 1158 971 1258 q 957 1035 971 1097 q 915 907 943 972 q 847 774 888 842 q 751 635 806 707 q 629 488 696 564 q 483 332 563 413 l 268 111 l 956 111 q 985 100 975 111 q 994 60 994 89 q 987 15 994 31 q 956 0 979 0 l 119 0 z "},"3":{"ha":1153,"x_min":54,"x_max":1036,"o":"m 550 -26 q 365 6 456 -26 q 197 106 274 39 q 68 274 121 174 q 54 323 54 304 q 85 357 54 342 q 126 369 110 371 q 153 347 143 368 q 259 205 199 263 q 393 117 319 147 q 549 88 467 88 q 699 109 632 88 q 813 173 765 131 q 884 278 860 215 q 908 425 908 342 q 860 601 908 525 q 725 719 813 676 q 518 763 638 763 l 417 763 q 387 778 394 763 q 379 822 379 793 q 389 863 379 853 q 417 874 399 874 l 524 874 q 668 898 607 874 q 769 964 729 922 q 827 1058 808 1006 q 846 1169 846 1111 q 820 1290 846 1240 q 751 1372 794 1340 q 653 1419 707 1404 q 543 1435 599 1435 q 404 1415 467 1435 q 292 1359 342 1394 q 203 1282 242 1324 q 165 1263 185 1260 q 124 1282 144 1265 q 103 1321 97 1303 q 121 1354 110 1339 q 221 1446 157 1401 q 368 1519 285 1490 q 544 1549 451 1549 q 711 1526 633 1549 q 847 1456 789 1503 q 939 1338 906 1408 q 972 1172 972 1267 q 957 1061 972 1115 q 910 960 942 1007 q 829 878 879 914 q 708 822 779 843 q 894 739 822 797 q 1001 599 965 681 q 1036 422 1036 518 q 1005 234 1036 317 q 912 93 974 151 q 760 4 850 35 q 550 -26 669 -26 z "},"4":{"ha":1174,"x_min":58,"x_max":1133,"o":"m 871 -19 q 825 -10 840 -19 q 810 19 810 0 l 810 418 l 115 418 q 74 441 89 418 q 71 492 58 464 l 547 1514 q 573 1544 558 1536 q 617 1549 588 1551 q 652 1538 639 1546 q 669 1518 665 1531 q 663 1485 672 1506 l 214 529 l 810 529 l 810 1053 q 871 1090 810 1090 q 917 1081 901 1090 q 932 1053 932 1072 l 932 529 l 1094 529 q 1124 518 1114 529 q 1133 476 1133 507 q 1126 433 1133 449 q 1094 418 1118 418 l 932 418 l 932 19 q 871 -19 932 -19 z "},"5":{"ha":1153,"x_min":94,"x_max":1046,"o":"m 568 -26 q 442 -11 504 -26 q 320 36 379 4 q 208 117 261 68 q 111 233 156 165 q 97 272 99 253 q 121 310 94 290 q 160 328 143 328 q 193 306 178 328 q 300 184 243 233 q 424 110 357 135 q 567 85 490 85 q 724 113 657 85 q 833 192 790 140 q 898 318 876 244 q 919 482 919 392 q 897 631 919 563 q 833 750 875 700 q 726 828 790 800 q 578 857 663 857 q 466 842 521 857 q 365 799 411 826 q 281 733 318 772 q 231 704 256 706 q 192 716 207 703 q 178 744 178 729 l 206 1489 q 218 1513 207 1504 q 246 1522 229 1522 l 956 1522 q 985 1511 975 1522 q 994 1469 994 1500 q 987 1426 994 1440 q 956 1411 979 1411 l 314 1411 l 294 865 q 374 917 329 893 q 471 954 418 940 q 581 968 524 968 q 834 906 731 968 q 992 735 938 844 q 1046 482 1046 625 q 1013 270 1046 364 q 917 110 981 176 q 767 8 854 43 q 568 -26 679 -26 z "},"6":{"ha":1239,"x_min":146,"x_max":1136,"o":"m 660 -26 q 381 53 496 -26 q 206 277 267 133 q 146 614 146 421 q 175 889 146 761 q 263 1122 204 1017 q 409 1308 321 1226 q 617 1448 497 1390 q 886 1538 736 1506 q 949 1542 931 1547 q 971 1496 967 1536 q 969 1456 974 1468 q 931 1436 964 1443 q 677 1351 786 1404 q 491 1223 568 1297 q 367 1054 414 1149 q 297 846 319 960 q 275 599 275 732 q 304 376 275 472 q 387 215 333 279 q 510 117 440 150 q 660 85 579 85 q 808 113 743 85 q 917 192 872 140 q 986 318 963 244 q 1010 482 1010 392 q 970 669 1010 590 q 860 790 931 747 q 693 833 789 833 q 592 817 644 833 q 489 766 539 801 q 397 672 439 731 q 323 527 354 613 q 278 326 292 442 l 210 435 q 285 677 235 579 q 402 834 335 775 q 544 919 469 893 q 694 944 619 944 q 876 913 794 944 q 1015 820 957 881 q 1105 674 1074 760 q 1136 483 1136 589 q 1104 270 1136 365 q 1010 109 1072 175 q 860 8 949 43 q 660 -26 772 -26 z "},"7":{"ha":935,"x_min":13,"x_max":913,"o":"m 229 -15 q 190 10 197 -4 q 194 53 183 25 l 760 1411 l 50 1411 q 22 1422 31 1411 q 13 1463 13 1432 q 20 1507 13 1492 q 50 1522 28 1522 l 858 1522 q 899 1499 885 1522 q 903 1451 913 1476 l 314 33 q 284 -15 299 -1 q 229 -15 269 -29 z "},"8":{"ha":1153,"x_min":83,"x_max":1071,"o":"m 576 -26 q 374 3 464 -26 q 218 87 283 32 q 118 221 153 142 q 83 399 83 300 q 105 521 83 460 q 169 638 126 582 q 276 739 213 693 q 425 818 340 785 q 279 914 342 858 q 183 1040 217 969 q 149 1196 149 1111 q 181 1350 149 1283 q 271 1461 213 1417 q 408 1528 329 1506 q 581 1551 486 1551 q 750 1529 672 1551 q 885 1463 828 1507 q 974 1353 943 1419 q 1006 1200 1006 1288 q 989 1096 1006 1147 q 938 996 972 1044 q 853 906 904 947 q 732 833 801 865 q 912 727 836 792 q 1029 581 988 663 q 1071 404 1071 500 q 1036 227 1071 306 q 936 92 1001 149 q 780 4 871 35 q 576 -26 689 -26 m 579 88 q 729 109 663 88 q 844 172 796 131 q 917 272 892 213 q 942 404 942 331 q 896 557 942 489 q 765 678 850 625 q 561 768 679 731 q 415 701 479 740 q 304 613 350 661 q 235 511 258 565 q 211 397 211 457 q 237 266 211 324 q 311 168 263 208 q 427 108 360 128 q 579 88 494 88 m 594 881 q 747 956 683 908 q 845 1066 811 1004 q 879 1200 879 1128 q 857 1303 879 1258 q 794 1377 835 1347 q 699 1422 754 1407 q 581 1438 644 1438 q 458 1422 514 1438 q 361 1377 403 1407 q 297 1302 319 1347 q 275 1197 275 1257 q 312 1069 275 1129 q 420 960 349 1008 q 594 881 492 911 z "},"9":{"ha":1239,"x_min":103,"x_max":1093,"o":"m 579 1554 q 858 1474 743 1554 q 1033 1251 972 1394 q 1093 914 1093 1107 q 1064 639 1093 767 q 976 406 1035 511 q 830 219 918 301 q 623 80 742 138 q 353 -10 504 22 q 290 -13 308 -19 q 268 32 271 -7 q 270 72 265 60 q 307 92 275 85 q 562 177 453 124 q 748 305 671 231 q 872 474 825 379 q 942 682 919 568 q 964 929 964 796 q 935 1152 964 1056 q 852 1313 906 1249 q 728 1410 799 1378 q 579 1443 658 1443 q 431 1415 496 1443 q 321 1335 365 1388 q 253 1210 276 1283 q 229 1046 229 1136 q 269 860 229 939 q 380 738 308 781 q 546 694 451 694 q 648 710 596 694 q 750 762 700 726 q 842 856 800 797 q 916 1001 885 915 q 961 1201 947 1086 l 1029 1093 q 954 851 1004 949 q 837 694 904 753 q 694 609 769 635 q 544 583 619 583 q 363 615 444 583 q 224 708 282 647 q 134 853 165 768 q 103 1044 103 939 q 135 1258 103 1163 q 228 1419 167 1353 q 378 1519 290 1485 q 579 1554 467 1554 z "},"\r":{"ha":417,"x_min":0,"x_max":0,"o":""}," ":{"ha":417,"x_min":0,"x_max":0,"o":""}," ":{"ha":139,"x_min":0,"x_max":0,"o":""}," ":{"ha":417,"x_min":0,"x_max":0,"o":""},"A":{"ha":1250,"x_min":35,"x_max":1217,"o":"m 97 -19 q 48 -2 61 -19 q 43 43 35 15 l 547 1493 q 575 1537 558 1525 q 625 1549 592 1549 q 674 1537 657 1549 q 701 1493 690 1525 l 1206 43 q 1201 -2 1217 15 q 1150 -19 1186 -19 q 1106 -8 1119 -19 q 1082 32 1093 4 l 951 418 l 296 418 l 164 32 q 141 -8 154 4 q 97 -19 128 -19 m 335 529 l 911 529 l 624 1365 l 335 529 z "},"B":{"ha":1207,"x_min":219,"x_max":1124,"o":"m 281 0 q 219 39 219 0 l 219 1483 q 282 1522 219 1522 l 621 1522 q 857 1492 758 1522 q 1008 1391 956 1463 q 1061 1196 1061 1319 q 1028 1047 1061 1113 q 944 935 996 982 q 834 857 892 888 q 724 811 776 826 l 724 806 q 873 785 801 804 q 1001 728 944 767 q 1091 625 1058 689 q 1124 471 1124 561 q 1099 315 1124 388 q 1026 185 1074 243 q 911 85 979 126 q 759 22 843 43 q 575 0 675 0 l 281 0 m 342 111 l 575 111 q 763 140 683 111 q 894 219 842 168 q 972 333 946 269 q 999 469 999 397 q 972 599 999 546 q 893 685 944 651 q 769 733 842 718 q 603 749 696 749 l 342 749 l 342 111 m 342 860 l 578 860 q 717 884 653 860 q 831 953 782 908 q 908 1059 881 997 q 936 1196 936 1121 q 897 1327 936 1281 q 787 1392 857 1374 q 621 1411 717 1411 l 342 1411 l 342 860 z "},"C":{"ha":1289,"x_min":142,"x_max":1222,"o":"m 710 -26 q 479 28 583 -26 q 299 183 375 82 q 183 424 224 283 q 142 740 142 565 q 162 962 142 857 q 220 1157 182 1067 q 314 1319 258 1247 q 440 1443 369 1392 q 594 1522 510 1494 q 774 1549 678 1549 q 924 1531 851 1549 q 1060 1469 996 1513 q 1179 1350 1125 1426 q 1184 1320 1190 1332 q 1163 1296 1178 1308 q 1128 1275 1144 1279 q 1099 1283 1113 1271 q 1002 1367 1051 1335 q 897 1415 953 1399 q 772 1431 842 1431 q 634 1408 699 1431 q 513 1344 569 1386 q 413 1243 457 1303 q 336 1106 368 1183 q 288 938 304 1029 q 271 740 271 846 q 304 463 271 583 q 397 259 338 342 q 538 134 457 176 q 710 92 618 92 q 843 119 782 92 q 955 190 904 146 q 1049 286 1006 235 q 1126 386 1092 338 q 1154 403 1139 406 q 1192 386 1169 401 q 1219 359 1215 372 q 1211 329 1222 346 q 1073 144 1150 225 q 905 19 996 64 q 710 -26 814 -26 z "},"D":{"ha":1446,"x_min":219,"x_max":1306,"o":"m 281 0 q 219 39 219 0 l 219 1483 q 235 1513 219 1503 q 281 1522 250 1522 l 582 1522 q 897 1471 763 1522 q 1123 1326 1032 1419 q 1260 1110 1214 1233 q 1306 839 1306 986 q 1273 554 1306 685 q 1175 321 1240 424 q 1012 147 1110 218 q 783 38 914 75 q 489 0 653 0 l 281 0 m 342 118 l 489 118 q 735 149 625 118 q 926 238 844 179 q 1063 385 1008 297 q 1144 586 1117 472 q 1172 839 1172 700 q 1133 1069 1172 965 q 1019 1247 1094 1172 q 833 1363 943 1322 q 582 1404 724 1404 l 342 1404 l 342 118 z "},"E":{"ha":1103,"x_min":219,"x_max":1035,"o":"m 281 0 q 235 14 250 0 q 219 56 219 28 l 219 1483 q 235 1513 219 1503 q 281 1522 250 1522 l 997 1522 q 1026 1510 1018 1522 q 1035 1467 1035 1499 q 1026 1424 1035 1436 q 997 1411 1018 1411 l 342 1411 l 342 860 l 892 860 q 922 848 913 860 q 931 804 931 836 q 922 761 931 774 q 892 749 913 749 l 342 749 l 342 111 l 997 111 q 1026 99 1018 111 q 1035 56 1035 88 q 1026 13 1035 25 q 997 0 1018 0 l 281 0 z "},"F":{"ha":1039,"x_min":219,"x_max":1014,"o":"m 281 -19 q 219 19 219 -19 l 219 1483 q 235 1513 219 1503 q 281 1522 250 1522 l 975 1522 q 1005 1510 996 1522 q 1014 1467 1014 1499 q 1005 1424 1014 1436 q 975 1411 996 1411 l 342 1411 l 342 817 l 872 817 q 901 805 893 817 q 910 761 910 793 q 901 718 910 731 q 872 706 893 706 l 342 706 l 342 19 q 326 -10 342 0 q 281 -19 311 -19 z "},"G":{"ha":1456,"x_min":142,"x_max":1301,"o":"m 713 -26 q 480 31 585 -25 q 299 188 375 86 q 183 431 224 290 q 142 740 142 571 q 162 962 142 857 q 220 1157 182 1067 q 314 1319 258 1247 q 440 1443 369 1392 q 594 1522 510 1494 q 774 1549 678 1549 q 924 1531 851 1549 q 1060 1469 996 1513 q 1179 1350 1125 1426 q 1184 1320 1190 1332 q 1163 1296 1178 1308 q 1128 1275 1144 1279 q 1099 1283 1113 1271 q 1003 1367 1051 1335 q 899 1415 956 1399 q 772 1431 843 1431 q 634 1408 699 1431 q 513 1344 569 1386 q 413 1243 457 1303 q 336 1106 368 1183 q 288 938 304 1029 q 271 740 271 846 q 304 467 271 588 q 398 263 338 347 q 539 135 458 179 q 713 92 619 92 q 865 115 794 92 q 992 186 935 139 q 1089 306 1049 233 q 1152 476 1129 379 q 1176 697 1175 574 l 785 697 q 755 710 764 697 q 746 753 746 722 q 755 797 746 785 q 785 808 764 808 l 1263 808 q 1292 797 1283 808 q 1301 753 1301 785 q 1254 398 1301 546 q 1125 156 1207 250 q 938 18 1043 63 q 713 -26 832 -26 z "},"H":{"ha":1476,"x_min":219,"x_max":1258,"o":"m 281 -19 q 219 19 219 -19 l 219 1511 q 235 1540 219 1531 q 281 1549 250 1549 q 342 1511 342 1549 l 342 854 l 1136 854 l 1136 1511 q 1151 1540 1136 1531 q 1197 1549 1167 1549 q 1258 1511 1258 1549 l 1258 19 q 1243 -10 1258 0 q 1197 -19 1228 -19 q 1136 19 1136 -19 l 1136 743 l 342 743 l 342 19 q 326 -10 342 0 q 281 -19 311 -19 z "},"I":{"ha":563,"x_min":219,"x_max":342,"o":"m 281 -19 q 235 -10 250 -19 q 219 19 219 0 l 219 1511 q 235 1540 219 1531 q 281 1549 250 1549 q 326 1540 311 1549 q 342 1511 342 1531 l 342 19 q 326 -10 342 0 q 281 -19 311 -19 z "},"J":{"ha":1081,"x_min":67,"x_max":893,"o":"m 494 -26 q 314 8 396 -26 q 171 110 232 43 q 75 275 110 178 q 78 308 67 297 q 108 325 90 318 q 147 333 131 335 q 171 314 164 332 q 250 190 207 239 q 352 116 293 140 q 494 92 411 92 q 606 110 558 92 q 685 160 653 128 q 735 238 717 193 q 763 338 754 283 q 771 453 771 392 l 771 1511 q 786 1540 771 1531 q 832 1549 801 1549 q 878 1540 863 1549 q 893 1511 893 1531 l 893 453 q 879 304 893 375 q 837 173 865 233 q 761 68 808 113 q 648 -1 714 24 q 494 -26 582 -26 z "},"K":{"ha":1144,"x_min":219,"x_max":1118,"o":"m 281 -19 q 235 -9 250 -19 q 219 22 219 1 l 219 1511 q 281 1549 219 1549 q 342 1511 342 1549 l 342 867 l 1011 1536 q 1044 1549 1029 1554 q 1078 1525 1060 1544 q 1099 1488 1097 1503 q 1086 1460 1100 1474 l 432 803 q 661 514 551 646 q 878 274 771 382 q 1094 75 986 165 q 1114 42 1110 63 q 1092 -6 1118 21 q 1054 -23 1074 -22 q 1014 -7 1035 -24 q 833 157 924 67 q 656 345 742 247 q 490 544 569 443 q 342 744 411 646 l 342 22 q 327 -9 342 1 q 281 -19 313 -19 z "},"L":{"ha":1040,"x_min":219,"x_max":999,"o":"m 281 0 q 219 56 219 0 l 219 1511 q 235 1540 219 1531 q 281 1549 250 1549 q 326 1540 311 1549 q 342 1511 342 1531 l 342 111 l 961 111 q 990 99 982 111 q 999 56 999 88 q 990 13 999 25 q 961 0 982 0 l 281 0 z "},"M":{"ha":1746,"x_min":219,"x_max":1526,"o":"m 281 -19 q 219 19 219 -19 l 219 1511 q 235 1540 219 1531 q 281 1549 250 1549 q 320 1538 308 1549 q 342 1511 332 1528 l 874 546 l 1406 1511 q 1426 1538 1414 1528 q 1465 1549 1439 1549 q 1526 1511 1526 1549 l 1526 19 q 1511 -10 1526 0 q 1465 -19 1496 -19 q 1406 19 1406 -19 l 1406 1271 l 938 426 q 915 402 928 408 q 875 396 901 396 q 834 401 849 396 q 808 425 819 406 l 342 1272 l 342 19 q 326 -10 342 0 q 281 -19 311 -19 z "},"N":{"ha":1476,"x_min":219,"x_max":1258,"o":"m 281 -19 q 219 19 219 -19 l 219 1511 q 235 1540 219 1531 q 281 1549 250 1549 q 321 1540 306 1549 q 350 1511 336 1531 l 1136 244 l 1136 1511 q 1151 1540 1136 1531 q 1197 1549 1167 1549 q 1258 1511 1258 1549 l 1258 19 q 1243 -10 1258 0 q 1199 -19 1228 -19 q 1164 -12 1176 -19 q 1136 19 1151 -6 l 342 1300 l 342 19 q 326 -10 342 0 q 281 -19 311 -19 z "},"O":{"ha":1539,"x_min":142,"x_max":1399,"o":"m 772 -26 q 512 31 628 -26 q 313 194 396 89 q 186 443 231 299 q 142 763 142 588 q 161 982 142 879 q 219 1173 181 1085 q 313 1330 257 1261 q 438 1448 368 1399 q 592 1523 508 1497 q 772 1549 676 1549 q 1031 1492 915 1549 q 1228 1330 1146 1435 q 1354 1081 1310 1225 q 1399 763 1399 936 q 1378 542 1399 646 q 1320 351 1358 439 q 1228 193 1282 263 q 1103 74 1174 124 q 950 -1 1033 25 q 772 -26 867 -26 m 772 92 q 910 113 846 92 q 1031 173 975 133 q 1130 270 1086 213 q 1205 403 1174 328 q 1252 568 1236 478 q 1268 763 1268 658 q 1232 1040 1268 917 q 1130 1251 1196 1164 q 973 1385 1064 1339 q 772 1431 882 1431 q 632 1410 697 1431 q 510 1349 567 1389 q 410 1252 454 1310 q 335 1119 367 1194 q 287 956 303 1044 q 271 763 271 867 q 308 483 271 607 q 410 271 344 358 q 569 138 476 183 q 772 92 661 92 z "},"P":{"ha":1165,"x_min":219,"x_max":1097,"o":"m 281 -19 q 219 19 219 -19 l 219 1483 q 235 1513 219 1503 q 282 1522 251 1522 l 599 1522 q 873 1484 763 1522 q 1040 1362 983 1446 q 1097 1142 1097 1278 q 1052 926 1097 1017 q 931 777 1007 836 q 760 683 854 718 q 568 633 667 649 q 447 621 506 625 q 342 615 389 617 l 342 19 q 326 -10 342 0 q 281 -19 311 -19 m 342 725 q 409 728 372 726 q 486 735 446 731 q 567 743 526 739 q 767 806 675 761 q 914 932 858 850 q 969 1139 969 1014 q 928 1297 969 1238 q 803 1384 886 1357 q 599 1411 721 1411 l 342 1411 l 342 725 z "},"Q":{"ha":1539,"x_min":142,"x_max":1399,"o":"m 1172 -293 q 1131 -306 1150 -307 q 1097 -287 1111 -306 l 749 222 q 738 261 736 242 q 764 299 740 281 q 806 313 786 315 q 842 289 826 310 l 1188 -219 q 1197 -256 1199 -237 q 1172 -293 1194 -275 m 772 -26 q 512 31 628 -26 q 313 194 396 89 q 186 443 231 299 q 142 763 142 588 q 161 982 142 879 q 219 1173 181 1085 q 313 1330 257 1261 q 438 1448 368 1399 q 592 1523 508 1497 q 772 1549 676 1549 q 1031 1492 915 1549 q 1228 1330 1146 1435 q 1354 1081 1310 1225 q 1399 763 1399 936 q 1378 542 1399 646 q 1320 351 1358 439 q 1228 193 1282 263 q 1103 74 1174 124 q 950 -1 1033 25 q 772 -26 867 -26 m 772 92 q 910 113 846 92 q 1031 173 975 133 q 1130 270 1086 213 q 1205 403 1174 328 q 1252 568 1236 478 q 1268 763 1268 658 q 1232 1040 1268 917 q 1130 1251 1196 1164 q 973 1385 1064 1339 q 772 1431 882 1431 q 632 1410 697 1431 q 510 1349 567 1389 q 410 1252 454 1310 q 335 1119 367 1194 q 287 956 303 1044 q 271 763 271 867 q 308 483 271 607 q 410 271 344 358 q 569 138 476 183 q 772 92 661 92 z "},"R":{"ha":1154,"x_min":219,"x_max":1110,"o":"m 281 -19 q 235 -10 250 -19 q 219 19 219 0 l 219 1483 q 235 1513 219 1503 q 282 1522 251 1522 l 556 1522 q 835 1486 726 1522 q 999 1371 944 1450 q 1053 1163 1053 1292 q 1033 1030 1053 1090 q 978 919 1014 969 q 893 831 943 869 q 778 764 843 792 q 639 719 714 736 q 479 694 564 701 q 665 476 568 585 q 867 267 763 368 q 1086 75 972 167 q 1106 42 1101 64 q 1083 -4 1110 21 q 1046 -23 1065 -22 q 1006 -7 1026 -24 q 768 206 883 93 q 547 439 653 319 q 342 676 440 558 l 342 19 q 326 -10 342 0 q 281 -19 311 -19 m 342 792 q 482 799 415 792 q 607 820 549 806 q 715 856 665 835 q 804 906 765 876 q 871 974 843 936 q 913 1059 899 1013 q 928 1163 928 1106 q 889 1306 928 1251 q 771 1386 850 1361 q 572 1411 692 1411 l 342 1411 l 342 792 z "},"S":{"ha":1144,"x_min":117,"x_max":1026,"o":"m 574 -26 q 442 -11 506 -26 q 320 33 378 4 q 215 101 263 61 q 129 188 167 140 q 117 221 117 206 q 139 256 117 236 q 176 276 163 276 q 214 251 189 276 q 303 178 251 215 q 422 116 354 140 q 574 92 489 92 q 711 112 651 92 q 813 171 771 132 q 877 265 856 210 q 899 393 899 321 q 875 510 899 461 q 808 594 851 558 q 706 660 764 631 q 578 719 649 689 q 461 772 519 743 q 351 838 403 801 q 258 922 299 874 q 194 1034 218 971 q 171 1181 171 1097 q 203 1335 171 1268 q 292 1451 235 1403 q 425 1524 349 1499 q 592 1549 501 1549 q 740 1527 674 1549 q 864 1465 807 1506 q 974 1368 921 1425 q 985 1336 988 1351 q 967 1304 983 1321 q 933 1281 950 1286 q 900 1290 915 1275 q 817 1364 860 1332 q 719 1413 774 1396 q 592 1431 665 1431 q 468 1413 522 1431 q 376 1364 414 1396 q 319 1285 339 1332 q 300 1179 300 1239 q 323 1056 300 1107 q 388 967 346 1004 q 486 901 429 931 q 608 846 543 872 q 756 780 682 817 q 891 692 829 743 q 990 568 953 640 q 1026 393 1026 496 q 994 219 1026 297 q 903 87 963 142 q 760 3 843 32 q 574 -26 676 -26 z "},"T":{"ha":1149,"x_min":31,"x_max":1118,"o":"m 574 -21 q 513 18 513 -21 l 513 1411 l 69 1411 q 40 1424 49 1411 q 31 1467 31 1436 q 40 1510 31 1499 q 69 1522 49 1522 l 1081 1522 q 1110 1510 1101 1522 q 1118 1467 1118 1499 q 1110 1424 1118 1436 q 1081 1411 1101 1411 l 635 1411 l 635 18 q 619 -11 635 -1 q 574 -21 604 -21 z "},"U":{"ha":1435,"x_min":214,"x_max":1221,"o":"m 721 -26 q 506 7 600 -26 q 347 105 411 40 q 248 263 282 169 q 214 475 214 356 l 214 1511 q 229 1540 214 1531 q 275 1549 244 1549 q 321 1540 306 1549 q 336 1511 336 1531 l 336 475 q 381 267 336 353 q 510 137 425 182 q 721 92 596 92 q 928 137 844 92 q 1056 267 1013 182 q 1100 475 1100 353 l 1100 1511 q 1115 1540 1100 1531 q 1161 1549 1131 1549 q 1221 1511 1221 1549 l 1221 475 q 1163 203 1221 315 q 992 32 1104 90 q 721 -26 881 -26 z "},"V":{"ha":1207,"x_min":28,"x_max":1181,"o":"m 601 -19 q 553 -8 569 -19 q 525 36 538 4 l 33 1488 q 37 1521 28 1507 q 76 1544 46 1535 q 122 1551 104 1554 q 146 1529 140 1549 l 604 165 l 1061 1529 q 1086 1551 1068 1549 q 1131 1544 1104 1554 q 1171 1521 1161 1535 q 1174 1488 1181 1507 l 681 36 q 653 -8 669 4 q 601 -19 636 -19 z "},"W":{"ha":1974,"x_min":26,"x_max":1947,"o":"m 503 -19 q 453 -7 471 -19 q 426 36 435 6 l 32 1486 q 35 1519 26 1506 q 75 1543 44 1533 q 122 1549 103 1553 q 146 1522 140 1546 l 506 174 l 915 1499 q 940 1538 924 1526 q 986 1549 956 1549 q 1034 1538 1018 1549 q 1058 1499 1050 1526 l 1465 175 l 1828 1522 q 1853 1549 1835 1546 q 1899 1543 1872 1553 q 1938 1519 1929 1533 q 1942 1486 1947 1506 l 1543 36 q 1517 -7 1535 6 q 1465 -19 1500 -19 q 1416 -7 1432 -19 q 1389 36 1400 6 l 986 1354 l 581 36 q 553 -7 571 6 q 503 -19 536 -19 z "},"X":{"ha":1144,"x_min":63,"x_max":1083,"o":"m 1049 -1 q 1003 -19 1022 -18 q 972 0 983 -19 l 569 669 l 167 0 q 137 -19 156 -19 q 90 -1 118 -18 q 69 20 75 10 q 65 42 63 31 q 72 63 67 53 l 504 781 l 89 1469 q 85 1501 79 1485 q 115 1533 90 1518 q 161 1550 143 1550 q 193 1528 179 1550 l 581 883 l 968 1528 q 999 1548 981 1547 q 1040 1533 1017 1549 q 1064 1513 1057 1524 q 1072 1491 1071 1501 q 1065 1469 1072 1481 l 647 774 l 1075 63 q 1078 31 1083 47 q 1049 -1 1074 14 z "},"Y":{"ha":1044,"x_min":4,"x_max":1040,"o":"m 519 -19 q 458 19 458 -19 l 458 650 l 14 1474 q 12 1506 4 1490 q 49 1536 19 1521 q 92 1551 75 1550 q 122 1528 110 1551 l 519 782 l 924 1528 q 954 1551 938 1551 q 997 1536 971 1550 q 1033 1506 1025 1521 q 1032 1474 1040 1490 l 581 650 l 581 19 q 519 -19 581 -19 z "},"Z":{"ha":1019,"x_min":22,"x_max":996,"o":"m 72 0 q 43 13 56 0 q 26 46 31 26 q 31 81 22 65 l 810 1411 l 118 1411 q 88 1424 97 1411 q 79 1467 79 1436 q 88 1510 79 1499 q 118 1522 97 1522 l 929 1522 q 970 1494 956 1522 q 971 1442 985 1467 l 193 111 l 957 111 q 987 99 978 111 q 996 56 996 88 q 987 13 996 25 q 957 0 978 0 l 72 0 z "},"Æ":{"ha":1603,"x_min":24,"x_max":1536,"o":"m 1499 0 l 865 0 q 819 14 835 0 q 804 56 804 28 l 804 706 l 469 706 l 138 1 q 108 -21 128 -17 q 63 -14 89 -25 q 32 15 40 -3 q 33 50 24 32 l 711 1474 q 741 1513 726 1504 q 794 1522 756 1522 l 1499 1522 q 1528 1510 1519 1522 q 1536 1467 1536 1499 q 1528 1424 1536 1436 q 1499 1411 1519 1411 l 926 1411 l 926 817 l 1393 817 q 1423 805 1414 817 q 1432 761 1432 793 q 1423 718 1432 731 q 1393 706 1414 706 l 926 706 l 926 111 l 1499 111 q 1528 99 1519 111 q 1536 56 1536 88 q 1528 13 1536 25 q 1499 0 1519 0 m 522 817 l 804 817 l 804 1414 l 522 817 z "},"Ð":{"ha":1207,"x_min":-6,"x_max":1306,"o":"m 281 0 q 219 39 219 0 l 219 1483 q 235 1513 219 1503 q 281 1522 250 1522 l 582 1522 q 897 1471 763 1522 q 1123 1326 1032 1419 q 1260 1110 1214 1233 q 1306 839 1306 986 q 1273 554 1306 685 q 1175 321 1240 424 q 1012 147 1110 218 q 783 38 914 75 q 489 0 653 0 l 281 0 m 342 118 l 489 118 q 735 149 625 118 q 926 238 844 179 q 1063 385 1008 297 q 1144 586 1117 472 q 1172 839 1172 700 q 1133 1069 1172 965 q 1019 1247 1094 1172 q 833 1363 943 1322 q 582 1404 724 1404 l 342 1404 l 342 118 m 33 565 q 1 581 8 565 q -6 614 -6 596 q 1 650 -6 633 q 33 667 8 667 l 615 667 q 646 650 639 667 q 653 614 653 633 q 646 581 653 596 q 615 565 639 565 l 33 565 z "},"Ĳ":{"ha":1643,"x_min":219,"x_max":1456,"o":"m 281 -19 q 235 -10 250 -19 q 219 19 219 0 l 219 1511 q 235 1540 219 1531 q 281 1549 250 1549 q 326 1540 311 1549 q 342 1511 342 1531 l 342 19 q 326 -10 342 0 q 281 -19 311 -19 m 1057 -26 q 876 8 958 -26 q 733 110 794 43 q 638 275 672 178 q 641 308 629 297 q 671 325 653 318 q 710 333 693 335 q 733 314 726 332 q 813 190 769 239 q 915 116 856 140 q 1057 92 974 92 q 1168 110 1121 92 q 1247 160 1215 128 q 1298 238 1279 193 q 1325 338 1317 283 q 1333 453 1333 392 l 1333 1511 q 1349 1540 1333 1531 q 1394 1549 1364 1549 q 1440 1540 1425 1549 q 1456 1511 1456 1531 l 1456 453 q 1442 304 1456 375 q 1399 173 1428 233 q 1324 68 1371 113 q 1210 -1 1276 24 q 1057 -26 1144 -26 z "},"Ŋ":{"ha":1476,"x_min":219,"x_max":1258,"o":"m 1258 -201 q 1233 -346 1258 -292 q 1166 -424 1208 -400 q 1071 -447 1124 -447 q 945 -416 1001 -447 q 854 -337 889 -385 q 844 -297 839 -317 q 869 -262 850 -276 q 910 -247 893 -246 q 943 -264 928 -247 q 981 -302 961 -285 q 1022 -330 1000 -319 q 1067 -340 1043 -340 q 1110 -325 1096 -340 q 1131 -279 1125 -310 q 1138 -204 1138 -249 l 1138 15 l 342 1300 l 342 19 q 326 -10 342 0 q 281 -19 311 -19 q 219 19 219 -19 l 219 1511 q 235 1540 219 1531 q 281 1549 250 1549 q 321 1540 306 1549 q 350 1511 336 1531 l 1136 244 l 1136 1511 q 1151 1540 1136 1531 q 1197 1549 1167 1549 q 1258 1511 1258 1549 l 1258 -201 z "},"Œ":{"ha":2124,"x_min":142,"x_max":2056,"o":"m 758 -26 q 503 31 617 -26 q 309 194 390 89 q 185 443 228 299 q 142 763 142 588 q 161 982 142 879 q 217 1173 181 1085 q 308 1330 254 1261 q 431 1448 363 1399 q 582 1523 500 1497 q 758 1549 664 1549 q 1005 1492 894 1549 q 1194 1330 1115 1435 q 1314 1081 1272 1225 q 1356 763 1356 936 q 1336 542 1356 646 q 1281 351 1317 439 q 1194 193 1246 263 q 1074 74 1142 124 q 928 -1 1007 25 q 758 -26 849 -26 m 758 92 q 892 113 829 92 q 1009 173 956 133 q 1106 270 1063 213 q 1178 403 1149 328 q 1224 568 1208 478 q 1240 763 1240 658 q 1205 1040 1240 917 q 1106 1251 1169 1164 q 953 1385 1042 1339 q 758 1431 865 1431 q 622 1410 686 1431 q 504 1349 558 1389 q 407 1252 450 1310 q 333 1119 364 1194 q 287 956 303 1044 q 271 763 271 867 q 306 483 271 607 q 407 271 342 358 q 562 138 472 183 q 758 92 651 92 m 1301 0 q 1256 14 1271 0 q 1240 56 1240 28 l 1240 1483 q 1256 1513 1240 1503 q 1301 1522 1271 1522 l 2018 1522 q 2047 1510 2039 1522 q 2056 1467 2056 1499 q 2047 1424 2056 1436 q 2018 1411 2039 1411 l 1363 1411 l 1363 860 l 1913 860 q 1942 848 1933 860 q 1951 804 1951 836 q 1942 761 1951 774 q 1913 749 1933 749 l 1363 749 l 1363 111 l 2018 111 q 2047 99 2039 111 q 2056 56 2056 88 q 2047 13 2056 25 q 2018 0 2039 0 l 1301 0 z "},"Þ":{"ha":1201,"x_min":219,"x_max":1097,"o":"m 281 -19 q 235 -10 250 -19 q 219 19 219 0 l 219 1511 q 235 1540 219 1531 q 281 1549 250 1549 q 326 1540 311 1549 q 342 1511 342 1531 l 342 1297 l 599 1297 q 873 1259 763 1297 q 1040 1138 983 1221 q 1097 917 1097 1054 q 1052 702 1097 792 q 931 553 1007 613 q 760 458 854 493 q 568 410 667 424 q 447 396 506 400 q 342 392 389 392 l 342 19 q 326 -10 342 0 q 281 -19 311 -19 m 342 501 q 409 503 372 501 q 486 509 446 506 q 567 519 526 513 q 767 581 675 536 q 914 707 858 625 q 969 915 969 789 q 928 1072 969 1013 q 803 1159 886 1132 q 599 1186 721 1186 l 342 1186 l 342 501 z "},"ẞ":{"ha":1451,"x_min":208,"x_max":1321,"o":"m 878 -26 q 751 -13 813 -26 q 633 24 689 0 q 529 82 576 49 q 508 113 510 96 q 519 156 506 131 q 551 185 535 179 q 590 176 567 192 q 682 128 638 147 q 775 101 726 110 q 878 92 824 92 q 1003 113 946 92 q 1102 174 1060 133 q 1168 271 1144 214 q 1192 397 1192 328 q 1168 524 1192 467 q 1104 627 1144 581 q 1014 715 1064 674 q 910 794 964 756 q 808 871 857 832 q 717 954 758 910 q 653 1051 676 999 q 631 1165 631 1103 q 651 1274 631 1224 q 706 1363 671 1324 q 789 1431 742 1403 q 560 1355 650 1408 q 421 1224 471 1301 q 351 1051 371 1147 q 331 847 331 956 l 331 19 q 315 -10 331 0 q 269 -19 300 -19 q 224 -10 239 -19 q 208 19 208 0 l 208 846 q 231 1071 208 965 q 307 1264 254 1176 q 450 1415 360 1351 q 676 1514 540 1479 q 1001 1549 813 1549 l 1043 1549 q 1072 1536 1064 1549 q 1081 1492 1081 1524 q 1072 1448 1081 1461 q 1043 1435 1064 1435 q 936 1419 988 1435 q 844 1372 885 1403 q 779 1294 803 1340 q 756 1189 756 1249 q 780 1091 756 1135 q 844 1009 804 1047 q 935 934 885 971 q 1038 858 985 897 q 1142 774 1092 819 q 1233 675 1193 729 q 1297 552 1274 621 q 1321 397 1321 483 q 1287 224 1321 301 q 1192 90 1253 146 q 1051 3 1132 33 q 878 -26 969 -26 z "},"ŋ":{"ha":851,"x_min":131,"x_max":724,"o":"m 724 -151 q 700 -272 724 -228 q 639 -335 676 -317 q 560 -354 601 -354 q 450 -326 500 -354 q 372 -257 400 -299 q 366 -219 358 -237 q 390 -189 374 -200 q 431 -173 414 -172 q 463 -190 449 -174 q 505 -232 482 -214 q 554 -250 528 -250 q 594 -225 585 -250 q 604 -156 604 -200 l 604 499 q 596 562 604 538 q 568 599 588 586 q 514 611 549 611 q 424 577 465 611 q 348 479 382 543 q 290 324 314 415 q 250 118 265 233 l 250 15 q 235 -12 250 -3 q 189 -21 219 -21 q 145 -12 160 -21 q 131 15 131 -3 l 131 679 q 145 706 131 697 q 189 715 160 715 q 235 706 219 715 q 250 679 250 697 l 250 442 q 310 577 276 524 q 382 663 344 631 q 457 708 419 694 q 529 721 494 721 q 628 702 583 721 q 698 638 672 683 q 724 513 724 593 l 724 -151 z "},"$":{"ha":1126,"x_min":100,"x_max":1010,"o":"m 557 -26 q 425 -11 489 -26 q 303 33 361 4 q 198 101 246 61 q 113 188 150 140 q 100 221 100 206 q 122 256 100 236 q 159 276 146 276 q 197 251 172 276 q 286 178 235 215 q 405 116 338 140 q 557 92 472 92 q 694 112 633 92 q 796 171 754 132 q 860 265 838 210 q 882 393 882 321 q 858 510 882 461 q 791 594 835 558 q 689 660 747 631 q 561 719 631 689 q 444 772 503 743 q 334 838 386 801 q 242 922 282 874 q 178 1034 201 971 q 154 1181 154 1097 q 186 1335 154 1268 q 275 1451 218 1403 q 409 1524 332 1499 q 576 1549 486 1549 q 724 1527 658 1549 q 847 1465 790 1506 q 957 1368 904 1425 q 969 1336 972 1351 q 950 1304 967 1321 q 915 1281 932 1286 q 883 1290 899 1275 q 799 1364 842 1332 q 703 1413 756 1396 q 576 1431 650 1431 q 452 1413 507 1431 q 360 1364 397 1396 q 302 1285 322 1332 q 283 1179 282 1239 q 306 1056 283 1107 q 371 967 329 1004 q 469 901 413 931 q 593 846 526 872 q 739 780 665 817 q 874 692 813 743 q 972 568 935 640 q 1010 393 1010 496 q 978 219 1010 297 q 886 87 946 142 q 742 3 826 32 q 557 -26 658 -26 m 571 -208 q 515 -169 515 -208 l 515 1714 q 571 1751 515 1751 q 626 1714 626 1751 l 626 -169 q 571 -208 626 -208 z "},"€":{"ha":1289,"x_min":29,"x_max":1222,"o":"m 735 -26 q 503 30 606 -26 q 328 189 400 86 q 218 434 256 292 q 181 751 181 576 q 199 971 181 867 q 254 1163 218 1075 q 342 1323 290 1251 q 461 1444 394 1394 q 607 1522 528 1494 q 776 1549 686 1549 q 925 1530 854 1549 q 1058 1469 996 1511 q 1172 1360 1119 1428 q 1178 1331 1185 1344 q 1156 1304 1172 1318 q 1122 1283 1138 1286 q 1093 1293 1107 1281 q 999 1372 1047 1342 q 896 1417 950 1401 q 775 1432 842 1432 q 646 1410 707 1432 q 532 1348 585 1389 q 438 1247 479 1307 q 368 1112 397 1188 q 323 946 339 1036 q 307 751 307 856 q 338 472 307 594 q 426 264 369 349 q 562 135 483 179 q 736 90 640 90 q 854 112 799 90 q 958 169 910 133 q 1049 249 1007 206 q 1126 340 1090 293 q 1155 353 1139 354 q 1192 338 1171 353 q 1217 310 1213 322 q 1211 281 1222 299 q 1074 119 1149 188 q 915 12 1000 50 q 735 -26 831 -26 m 67 829 q 38 840 46 829 q 29 882 29 851 q 38 925 29 914 q 67 936 46 936 l 947 936 q 977 925 968 936 q 986 882 986 914 q 977 840 986 851 q 947 829 968 829 l 67 829 m 67 603 q 38 615 46 603 q 29 657 29 626 q 38 699 29 689 q 67 710 46 710 l 947 710 q 977 699 968 710 q 986 657 986 689 q 977 615 986 626 q 947 603 968 603 l 67 603 z "},"¢":{"ha":882,"x_min":92,"x_max":806,"o":"m 446 -26 q 257 28 336 -26 q 135 182 178 82 q 92 419 92 282 q 109 580 92 506 q 160 714 126 654 q 241 815 193 774 q 349 880 289 857 q 479 903 408 903 q 577 888 526 903 q 676 841 628 872 q 763 763 724 810 q 773 731 776 746 q 753 699 769 717 q 719 679 735 682 q 688 690 703 676 q 624 744 654 721 q 558 779 593 767 q 476 792 524 792 q 386 775 428 792 q 313 726 344 758 q 258 649 281 694 q 225 547 236 603 q 214 424 214 490 q 242 240 214 315 q 323 126 269 165 q 451 85 376 86 q 551 108 508 85 q 631 170 593 131 q 707 260 669 210 q 740 278 722 279 q 776 263 757 278 q 801 233 797 247 q 794 199 806 218 q 688 74 743 125 q 572 -1 632 24 q 446 -26 513 -26 m 453 -208 q 397 -169 397 -208 l 397 1063 q 453 1100 397 1100 q 508 1063 508 1100 l 508 -169 q 453 -208 508 -208 z "},"£":{"ha":1124,"x_min":63,"x_max":1083,"o":"m 101 0 q 70 14 78 0 q 63 58 63 28 q 72 100 63 89 q 101 111 82 111 l 322 111 l 322 603 l 143 603 q 114 615 122 603 q 106 657 106 626 q 115 700 106 689 q 143 711 124 711 l 322 711 l 322 1171 q 361 1371 322 1286 q 476 1502 400 1456 q 661 1549 551 1549 q 860 1510 764 1549 q 1029 1404 956 1471 q 1049 1373 1044 1392 q 1032 1332 1053 1354 q 995 1309 1013 1310 q 954 1325 978 1308 q 807 1408 881 1379 q 664 1436 733 1436 q 499 1366 554 1436 q 443 1165 443 1296 l 443 711 l 797 711 q 827 700 818 711 q 836 657 836 689 q 828 615 836 626 q 797 603 819 603 l 443 603 l 443 111 l 1044 111 q 1074 100 1064 111 q 1083 58 1083 89 q 1076 14 1083 28 q 1044 0 1068 0 l 101 0 z "},"¥":{"ha":1119,"x_min":42,"x_max":1078,"o":"m 557 -19 q 496 19 496 -19 l 496 397 l 172 397 q 142 409 151 397 q 133 451 133 421 q 142 494 133 483 q 172 506 151 506 l 496 506 l 496 624 l 172 624 q 142 635 151 624 q 133 678 133 647 q 142 721 133 710 q 172 732 151 732 l 451 732 l 51 1474 q 49 1506 42 1490 q 86 1536 57 1521 q 130 1551 113 1550 q 158 1528 147 1551 l 557 782 l 961 1528 q 991 1551 975 1551 q 1033 1536 1007 1550 q 1070 1506 1063 1521 q 1068 1474 1078 1490 l 663 732 l 943 732 q 972 721 964 732 q 981 678 981 710 q 972 635 981 647 q 943 624 964 624 l 618 624 l 618 506 l 943 506 q 972 494 964 506 q 981 451 981 483 q 972 409 981 421 q 943 397 964 397 l 618 397 l 618 19 q 557 -19 618 -19 z "},"%":{"ha":1371,"x_min":85,"x_max":1281,"o":"m 360 883 q 218 926 281 883 q 120 1045 156 969 q 85 1217 85 1121 q 98 1325 85 1274 q 135 1417 111 1376 q 192 1487 158 1457 q 269 1533 226 1517 q 360 1549 311 1549 q 501 1506 440 1549 q 597 1389 563 1464 q 632 1217 632 1314 q 619 1108 632 1158 q 581 1015 606 1057 q 524 944 557 974 q 449 899 490 915 q 360 883 407 883 m 360 989 q 412 998 388 989 q 455 1026 436 1007 q 488 1072 474 1044 q 508 1135 501 1099 q 515 1217 515 1172 q 472 1386 515 1329 q 360 1443 429 1443 q 308 1433 332 1443 q 264 1406 283 1424 q 230 1360 244 1388 q 208 1297 215 1333 q 201 1217 201 1261 q 245 1047 201 1106 q 360 989 289 989 m 293 -12 q 268 -28 283 -28 q 229 -12 253 -28 q 197 15 203 3 q 201 43 192 26 l 1068 1535 q 1093 1550 1079 1550 q 1132 1535 1107 1550 q 1165 1508 1158 1519 q 1160 1479 1171 1497 l 293 -12 m 1008 -26 q 867 16 929 -26 q 769 134 804 58 q 733 307 733 210 q 747 415 733 364 q 784 506 760 465 q 842 577 808 547 q 917 623 875 607 q 1008 639 960 639 q 1150 596 1089 639 q 1246 478 1211 553 q 1281 307 1281 403 q 1267 197 1281 249 q 1230 105 1254 146 q 1172 35 1206 64 q 1097 -10 1138 6 q 1008 -26 1056 -26 m 1008 81 q 1060 90 1036 81 q 1103 117 1085 99 q 1136 163 1122 136 q 1157 226 1150 189 q 1164 307 1164 263 q 1121 476 1164 418 q 1008 533 1078 533 q 956 524 979 533 q 912 496 932 514 q 878 451 892 478 q 858 388 865 424 q 850 307 850 351 q 894 138 850 196 q 1008 81 938 81 z "},".":{"ha":435,"x_min":131,"x_max":304,"o":"m 217 -47 q 152 -24 174 -47 q 131 43 131 -1 q 152 111 131 89 q 217 133 174 133 q 283 111 261 133 q 304 43 304 89 q 283 -24 304 -1 q 217 -47 261 -47 z "},",":{"ha":435,"x_min":79,"x_max":283,"o":"m 133 -317 q 97 -304 114 -317 q 79 -274 79 -292 q 83 -259 79 -268 q 93 -239 88 -250 q 128 -155 115 -194 q 145 -65 140 -115 q 150 64 150 -14 q 168 103 150 90 q 215 117 186 117 q 265 102 247 117 q 283 61 283 88 q 272 -63 283 1 q 237 -187 261 -128 q 174 -294 213 -247 q 158 -309 167 -301 q 133 -317 149 -317 z "},":":{"ha":435,"x_min":131,"x_max":304,"o":"m 217 -47 q 152 -24 174 -47 q 131 43 131 -1 q 152 111 131 89 q 217 133 174 133 q 283 111 261 133 q 304 43 304 89 q 283 -24 304 -1 q 217 -47 261 -47 m 217 558 q 152 581 174 558 q 131 649 131 604 q 152 717 131 694 q 217 739 174 739 q 283 717 261 739 q 304 649 304 694 q 283 581 304 604 q 217 558 261 558 z "},";":{"ha":435,"x_min":79,"x_max":304,"o":"m 217 558 q 152 581 174 558 q 131 649 131 604 q 152 717 131 694 q 217 739 174 739 q 283 717 261 739 q 304 649 304 694 q 283 581 304 604 q 217 558 261 558 m 133 -317 q 97 -304 114 -317 q 79 -274 79 -292 q 83 -259 79 -268 q 93 -239 88 -250 q 128 -155 115 -194 q 145 -65 140 -115 q 150 64 150 -14 q 168 103 150 90 q 215 117 186 117 q 265 102 247 117 q 283 61 283 88 q 272 -63 283 1 q 237 -187 261 -128 q 174 -294 213 -247 q 158 -309 167 -301 q 133 -317 149 -317 z "},"…":{"ha":1178,"x_min":131,"x_max":1047,"o":"m 589 -47 q 524 -24 546 -47 q 503 43 503 -1 q 524 111 503 89 q 589 133 546 133 q 655 111 633 133 q 676 43 676 89 q 655 -24 676 -1 q 589 -47 633 -47 m 960 -47 q 895 -24 917 -47 q 874 43 874 -1 q 895 111 874 89 q 960 133 917 133 q 1026 111 1004 133 q 1047 43 1047 89 q 1026 -24 1047 -1 q 960 -47 1004 -47 m 217 -47 q 152 -24 174 -47 q 131 43 131 -1 q 152 111 131 89 q 217 133 174 133 q 283 111 261 133 q 304 43 304 89 q 283 -24 304 -1 q 217 -47 261 -47 z "},"!":{"ha":592,"x_min":218,"x_max":374,"o":"m 296 300 q 235 339 235 300 l 235 1511 q 250 1540 235 1531 q 296 1549 265 1549 q 357 1511 357 1549 l 357 339 q 342 310 357 319 q 296 300 326 300 m 296 -19 q 238 2 257 -19 q 218 68 218 24 q 238 135 218 113 q 296 157 257 157 q 353 135 333 157 q 372 68 372 113 q 353 2 374 24 q 296 -19 333 -19 z "},"¡":{"ha":592,"x_min":218,"x_max":374,"o":"m 296 396 q 357 357 357 396 l 357 -815 q 342 -843 357 -833 q 296 -853 326 -853 q 235 -815 235 -853 l 235 357 q 250 386 235 376 q 296 396 265 396 m 296 715 q 353 694 333 715 q 372 628 374 672 q 353 562 372 585 q 296 539 333 539 q 238 562 257 539 q 218 628 218 585 q 238 694 218 672 q 296 715 257 715 z "},"?":{"ha":865,"x_min":15,"x_max":840,"o":"m 339 299 q 293 308 308 299 q 278 338 278 318 l 278 711 q 290 735 278 728 q 325 749 303 743 q 484 807 413 769 q 607 897 556 844 q 687 1017 658 950 q 715 1165 715 1085 q 683 1313 715 1251 q 588 1406 650 1374 q 436 1438 526 1438 q 313 1419 372 1438 q 201 1372 254 1401 q 101 1307 149 1342 q 67 1295 83 1293 q 33 1314 51 1297 q 16 1349 17 1332 q 32 1381 15 1365 q 157 1472 90 1435 q 295 1529 224 1510 q 436 1549 367 1549 q 645 1506 554 1549 q 788 1378 736 1464 q 840 1164 840 1292 q 806 985 840 1067 q 712 840 772 904 q 572 729 651 775 q 400 654 492 683 l 400 338 q 385 308 400 318 q 339 299 369 299 m 339 -19 q 281 2 300 -19 q 261 68 261 24 q 281 135 261 113 q 339 157 300 157 q 396 135 376 157 q 415 68 415 113 q 396 2 415 24 q 339 -19 376 -19 z "},"¿":{"ha":865,"x_min":15,"x_max":840,"o":"m 518 397 q 564 388 549 397 q 579 358 579 378 l 579 -15 q 567 -40 579 -32 q 532 -53 556 -47 q 373 -111 444 -74 q 249 -201 301 -149 q 169 -322 197 -254 q 140 -469 140 -389 q 173 -616 140 -556 q 268 -709 206 -676 q 419 -742 331 -742 q 542 -724 483 -742 q 655 -676 601 -706 q 754 -611 708 -646 q 788 -599 772 -597 q 822 -618 804 -601 q 840 -653 840 -636 q 825 -685 840 -669 q 699 -775 767 -737 q 562 -833 632 -812 q 419 -853 492 -853 q 211 -810 303 -853 q 67 -681 119 -767 q 15 -468 15 -596 q 49 -290 15 -371 q 144 -144 83 -208 q 285 -33 204 -79 q 457 42 365 13 l 457 358 q 472 388 457 378 q 518 397 488 397 m 518 715 q 576 694 557 715 q 596 628 596 672 q 576 562 596 585 q 518 539 557 539 q 461 562 481 539 q 442 628 442 585 q 461 694 442 672 q 518 715 481 715 z "},"'":{"ha":235,"x_min":58,"x_max":189,"o":"m 124 1057 q 90 1070 97 1057 q 81 1100 82 1083 l 60 1435 q 73 1474 58 1457 q 124 1490 88 1490 q 174 1474 160 1490 q 188 1435 189 1457 l 167 1100 q 158 1070 165 1083 q 124 1057 150 1057 z "},"\"":{"ha":476,"x_min":58,"x_max":431,"o":"m 124 1057 q 90 1070 97 1057 q 81 1100 82 1083 l 60 1435 q 73 1474 58 1457 q 124 1490 88 1490 q 174 1474 160 1490 q 188 1435 189 1457 l 167 1100 q 158 1070 165 1083 q 124 1057 150 1057 m 365 1057 q 331 1070 339 1057 q 322 1100 324 1083 l 301 1435 q 315 1474 300 1457 q 365 1490 329 1490 q 416 1474 401 1490 q 429 1435 431 1457 l 408 1100 q 399 1070 407 1083 q 365 1057 392 1057 z "},"‘":{"ha":297,"x_min":61,"x_max":256,"o":"m 129 1057 q 80 1072 99 1057 q 61 1113 61 1086 q 66 1206 61 1158 q 83 1300 71 1253 q 114 1390 94 1347 q 161 1468 133 1433 q 178 1483 168 1475 q 201 1490 188 1490 q 238 1478 221 1490 q 256 1447 256 1465 q 252 1433 256 1442 q 242 1413 249 1424 q 210 1330 221 1369 q 197 1239 200 1290 q 194 1108 194 1188 q 176 1069 194 1082 q 129 1057 158 1057 z "},"’":{"ha":303,"x_min":46,"x_max":240,"o":"m 172 1490 q 222 1476 204 1490 q 240 1435 240 1461 q 235 1342 240 1390 q 219 1247 231 1294 q 189 1157 208 1200 q 140 1079 169 1114 q 124 1065 133 1072 q 100 1057 115 1057 q 63 1069 81 1057 q 46 1100 46 1082 q 50 1115 46 1106 q 60 1135 54 1124 q 92 1219 82 1181 q 104 1310 101 1258 q 107 1439 107 1361 q 125 1478 107 1465 q 172 1490 143 1490 z "},"‚":{"ha":315,"x_min":49,"x_max":253,"o":"m 103 -317 q 66 -304 83 -317 q 49 -274 49 -292 q 53 -259 49 -268 q 63 -239 57 -250 q 97 -155 85 -194 q 115 -65 110 -115 q 119 64 119 -14 q 138 103 119 90 q 185 117 156 117 q 235 102 217 117 q 253 61 253 88 q 242 -63 253 1 q 206 -187 231 -128 q 143 -294 182 -247 q 127 -309 136 -301 q 103 -317 118 -317 z "},"“":{"ha":551,"x_min":61,"x_max":510,"o":"m 129 1057 q 80 1072 99 1057 q 61 1113 61 1086 q 66 1206 61 1158 q 83 1300 71 1253 q 114 1390 94 1347 q 161 1468 133 1433 q 178 1483 168 1475 q 201 1490 188 1490 q 238 1478 221 1490 q 256 1447 256 1465 q 252 1433 256 1442 q 242 1413 249 1424 q 210 1330 221 1369 q 197 1239 200 1290 q 194 1108 194 1188 q 176 1069 194 1082 q 129 1057 158 1057 m 383 1057 q 334 1072 353 1057 q 315 1113 315 1086 q 320 1206 315 1158 q 337 1300 325 1253 q 368 1390 349 1347 q 415 1468 388 1433 q 432 1483 422 1475 q 456 1490 442 1490 q 492 1478 475 1490 q 510 1447 510 1465 q 506 1433 510 1442 q 496 1413 503 1424 q 465 1330 475 1369 q 451 1239 454 1290 q 449 1108 449 1188 q 431 1069 449 1082 q 383 1057 413 1057 z "},"”":{"ha":558,"x_min":46,"x_max":494,"o":"m 426 1490 q 476 1476 458 1490 q 494 1435 494 1461 q 490 1342 494 1390 q 474 1247 485 1294 q 443 1157 463 1200 q 394 1079 424 1114 q 378 1065 388 1072 q 354 1057 369 1057 q 317 1069 335 1057 q 300 1100 300 1082 q 304 1115 300 1106 q 314 1135 308 1124 q 346 1219 336 1181 q 358 1310 356 1258 q 361 1439 361 1361 q 379 1478 361 1465 q 426 1490 397 1490 m 172 1490 q 222 1476 204 1490 q 240 1435 240 1461 q 235 1342 240 1390 q 219 1247 231 1294 q 189 1157 208 1200 q 140 1079 169 1114 q 124 1065 133 1072 q 100 1057 115 1057 q 63 1069 81 1057 q 46 1100 46 1082 q 50 1115 46 1106 q 60 1135 54 1124 q 92 1219 82 1181 q 104 1310 101 1258 q 107 1439 107 1361 q 125 1478 107 1465 q 172 1490 143 1490 z "},"„":{"ha":564,"x_min":49,"x_max":503,"o":"m 353 -317 q 316 -304 333 -317 q 299 -274 299 -292 q 303 -259 299 -268 q 313 -239 307 -250 q 347 -155 335 -194 q 365 -65 360 -115 q 369 64 369 -14 q 388 103 369 90 q 435 117 406 117 q 485 102 467 117 q 503 61 503 88 q 492 -63 503 1 q 456 -187 481 -128 q 393 -294 432 -247 q 377 -309 386 -301 q 353 -317 368 -317 m 103 -317 q 66 -304 83 -317 q 49 -274 49 -292 q 53 -259 49 -268 q 63 -239 57 -250 q 97 -155 85 -194 q 115 -65 110 -115 q 119 64 119 -14 q 138 103 119 90 q 185 117 156 117 q 235 102 217 117 q 253 61 253 88 q 242 -63 253 1 q 206 -187 231 -128 q 143 -294 182 -247 q 127 -309 136 -301 q 103 -317 118 -317 z "},"«":{"ha":1007,"x_min":131,"x_max":875,"o":"m 458 -19 q 419 -11 438 -19 q 383 19 401 -3 l 164 297 q 138 331 144 321 q 131 349 131 342 q 138 367 131 357 q 164 401 144 378 l 383 678 q 419 708 401 700 q 458 715 438 715 q 499 703 483 715 q 518 675 515 692 q 507 640 521 658 l 275 349 l 507 56 q 512 5 528 29 q 458 -19 496 -19 m 806 -19 q 767 -11 785 -19 q 731 19 749 -3 l 511 297 q 485 331 492 321 q 478 349 478 342 q 485 367 478 357 q 511 401 492 378 l 731 678 q 767 708 749 700 q 806 715 785 715 q 847 703 831 715 q 865 675 863 692 q 854 640 868 658 l 622 349 l 854 56 q 859 5 875 29 q 806 -19 843 -19 z "},"»":{"ha":1007,"x_min":132,"x_max":876,"o":"m 201 -19 q 160 -8 176 -19 q 142 22 144 4 q 153 56 139 39 l 385 349 l 153 640 q 148 691 132 667 q 201 715 164 715 q 241 708 222 715 q 276 678 260 700 l 497 401 q 523 367 517 378 q 529 349 529 357 q 523 331 529 342 q 497 297 517 321 l 276 19 q 241 -11 260 -3 q 201 -19 222 -19 m 549 -19 q 508 -8 524 -19 q 489 22 492 4 q 500 56 486 39 l 732 349 l 500 640 q 495 691 479 667 q 549 715 511 715 q 588 708 569 715 q 624 678 607 700 l 844 401 q 870 367 864 378 q 876 349 876 357 q 870 331 876 342 q 844 297 864 321 l 624 19 q 588 -11 607 -3 q 549 -19 569 -19 z "},"‹":{"ha":660,"x_min":131,"x_max":528,"o":"m 458 -19 q 419 -11 438 -19 q 383 19 401 -3 l 164 297 q 138 331 144 321 q 131 349 131 342 q 138 367 131 357 q 164 401 144 378 l 383 678 q 419 708 401 700 q 458 715 438 715 q 499 703 483 715 q 518 675 515 692 q 507 640 521 658 l 275 349 l 507 56 q 512 5 528 29 q 458 -19 496 -19 z "},"›":{"ha":660,"x_min":132,"x_max":529,"o":"m 201 -19 q 160 -8 176 -19 q 142 22 144 4 q 153 56 139 39 l 385 349 l 153 640 q 148 691 132 667 q 201 715 164 715 q 241 708 222 715 q 276 678 260 700 l 497 401 q 523 367 517 378 q 529 349 529 357 q 523 331 529 342 q 497 297 517 321 l 276 19 q 241 -11 260 -3 q 201 -19 222 -19 z "},"Á":{"ha":1250,"x_min":35,"x_max":1217,"o":"m 97 -19 q 48 -2 61 -19 q 43 43 35 15 l 547 1493 q 575 1537 558 1525 q 625 1549 592 1549 q 674 1537 657 1549 q 701 1493 690 1525 l 1206 43 q 1201 -2 1217 15 q 1150 -19 1186 -19 q 1106 -8 1119 -19 q 1082 32 1093 4 l 951 418 l 296 418 l 164 32 q 141 -8 154 4 q 97 -19 128 -19 m 335 529 l 911 529 l 624 1365 l 335 529 m 553 1611 q 519 1629 536 1611 q 501 1661 501 1647 q 503 1674 501 1668 q 514 1688 506 1679 l 719 1890 q 733 1901 726 1897 q 749 1906 739 1906 q 780 1893 763 1906 q 810 1864 797 1881 q 822 1832 822 1847 q 819 1815 822 1822 q 801 1797 815 1808 l 581 1624 q 565 1615 571 1618 q 553 1611 558 1611 z "},"Ă":{"ha":1250,"x_min":35,"x_max":1217,"o":"m 97 -19 q 48 -2 61 -19 q 43 43 35 15 l 547 1493 q 575 1537 558 1525 q 625 1549 592 1549 q 674 1537 657 1549 q 701 1493 690 1525 l 1206 43 q 1201 -2 1217 15 q 1150 -19 1186 -19 q 1106 -8 1119 -19 q 1082 32 1093 4 l 951 418 l 296 418 l 164 32 q 141 -8 154 4 q 97 -19 128 -19 m 335 529 l 911 529 l 624 1365 l 335 529 m 624 1611 q 445 1674 513 1611 q 368 1865 378 1736 q 381 1894 367 1882 q 421 1906 394 1906 q 451 1895 443 1906 q 464 1865 460 1885 q 520 1767 483 1799 q 624 1735 557 1735 q 728 1767 690 1735 q 782 1865 765 1799 q 795 1895 788 1885 q 825 1906 803 1906 q 866 1894 851 1906 q 879 1865 881 1882 q 840 1727 874 1783 q 750 1641 806 1671 q 624 1611 694 1611 z "},"Ǎ":{"ha":1250,"x_min":35,"x_max":1217,"o":"m 97 -19 q 48 -2 61 -19 q 43 43 35 15 l 547 1493 q 575 1537 558 1525 q 625 1549 592 1549 q 674 1537 657 1549 q 701 1493 690 1525 l 1206 43 q 1201 -2 1217 15 q 1150 -19 1186 -19 q 1106 -8 1119 -19 q 1082 32 1093 4 l 951 418 l 296 418 l 164 32 q 141 -8 154 4 q 97 -19 128 -19 m 335 529 l 911 529 l 624 1365 l 335 529 m 844 1906 q 875 1890 857 1906 q 893 1858 893 1874 q 892 1850 893 1856 q 885 1836 892 1844 l 685 1639 q 663 1621 675 1631 q 624 1611 651 1611 q 586 1621 597 1611 q 565 1639 575 1631 l 364 1836 q 356 1850 357 1844 q 356 1858 356 1856 q 374 1890 356 1874 q 404 1906 392 1906 q 422 1901 414 1906 q 439 1889 429 1896 l 624 1750 l 810 1889 q 828 1901 821 1896 q 844 1906 835 1906 z "},"Â":{"ha":1250,"x_min":35,"x_max":1217,"o":"m 97 -19 q 48 -2 61 -19 q 43 43 35 15 l 547 1493 q 575 1537 558 1525 q 625 1549 592 1549 q 674 1537 657 1549 q 701 1493 690 1525 l 1206 43 q 1201 -2 1217 15 q 1150 -19 1186 -19 q 1106 -8 1119 -19 q 1082 32 1093 4 l 951 418 l 296 418 l 164 32 q 141 -8 154 4 q 97 -19 128 -19 m 335 529 l 911 529 l 624 1365 l 335 529 m 404 1611 q 374 1628 392 1611 q 356 1658 356 1644 q 356 1668 356 1663 q 364 1681 357 1674 l 563 1878 q 585 1897 572 1888 q 624 1906 597 1906 q 662 1897 650 1906 q 683 1878 674 1888 l 885 1681 q 892 1668 892 1674 q 893 1658 893 1663 q 875 1628 893 1644 q 843 1611 857 1611 q 828 1616 835 1611 q 810 1629 821 1621 l 624 1767 l 439 1629 q 422 1616 429 1621 q 404 1611 414 1611 z "},"Ä":{"ha":1250,"x_min":35,"x_max":1217,"o":"m 97 -19 q 48 -2 61 -19 q 43 43 35 15 l 547 1493 q 575 1537 558 1525 q 625 1549 592 1549 q 674 1537 657 1549 q 701 1493 690 1525 l 1206 43 q 1201 -2 1217 15 q 1150 -19 1186 -19 q 1106 -8 1119 -19 q 1082 32 1093 4 l 951 418 l 296 418 l 164 32 q 141 -8 154 4 q 97 -19 128 -19 m 335 529 l 911 529 l 624 1365 l 335 529 m 449 1661 q 391 1683 411 1661 q 371 1747 371 1704 q 390 1814 371 1792 q 450 1836 410 1836 q 507 1814 488 1836 q 526 1747 526 1792 q 508 1683 528 1704 q 449 1661 488 1661 m 800 1661 q 742 1683 761 1661 q 722 1747 722 1704 q 742 1814 722 1792 q 800 1836 761 1836 q 857 1814 838 1836 q 876 1747 876 1792 q 858 1683 878 1704 q 800 1661 838 1661 z "},"Ǽ":{"ha":1603,"x_min":24,"x_max":1536,"o":"m 1499 0 l 865 0 q 819 14 835 0 q 804 56 804 28 l 804 706 l 469 706 l 138 1 q 108 -21 128 -17 q 63 -14 89 -25 q 32 15 40 -3 q 33 50 24 32 l 711 1474 q 741 1513 726 1504 q 794 1522 756 1522 l 1499 1522 q 1528 1510 1519 1522 q 1536 1467 1536 1499 q 1528 1424 1536 1436 q 1499 1411 1519 1411 l 926 1411 l 926 817 l 1393 817 q 1423 805 1414 817 q 1432 761 1432 793 q 1423 718 1432 731 q 1393 706 1414 706 l 926 706 l 926 111 l 1499 111 q 1528 99 1519 111 q 1536 56 1536 88 q 1528 13 1536 25 q 1499 0 1519 0 m 522 817 l 804 817 l 804 1414 l 522 817 m 1061 1611 q 1027 1629 1044 1611 q 1010 1661 1010 1647 q 1012 1674 1010 1668 q 1022 1688 1014 1679 l 1228 1890 q 1241 1901 1235 1897 q 1257 1906 1247 1906 q 1288 1893 1271 1906 q 1318 1864 1306 1881 q 1331 1832 1331 1847 q 1327 1815 1331 1822 q 1310 1797 1324 1808 l 1089 1624 q 1073 1615 1079 1618 q 1061 1611 1067 1611 z "},"À":{"ha":1250,"x_min":35,"x_max":1217,"o":"m 97 -19 q 48 -2 61 -19 q 43 43 35 15 l 547 1493 q 575 1537 558 1525 q 625 1549 592 1549 q 674 1537 657 1549 q 701 1493 690 1525 l 1206 43 q 1201 -2 1217 15 q 1150 -19 1186 -19 q 1106 -8 1119 -19 q 1082 32 1093 4 l 951 418 l 296 418 l 164 32 q 141 -8 154 4 q 97 -19 128 -19 m 335 529 l 911 529 l 624 1365 l 335 529 m 694 1611 q 683 1615 689 1611 q 667 1624 676 1618 l 446 1797 q 429 1815 433 1808 q 425 1832 425 1822 q 438 1864 425 1847 q 468 1893 450 1881 q 499 1906 486 1906 q 515 1901 508 1906 q 528 1890 521 1897 l 733 1688 q 745 1674 743 1679 q 747 1663 747 1668 q 729 1629 747 1647 q 694 1611 711 1611 z "},"Ā":{"ha":1250,"x_min":35,"x_max":1217,"o":"m 97 -19 q 48 -2 61 -19 q 43 43 35 15 l 547 1493 q 575 1537 558 1525 q 625 1549 592 1549 q 674 1537 657 1549 q 701 1493 690 1525 l 1206 43 q 1201 -2 1217 15 q 1150 -19 1186 -19 q 1106 -8 1119 -19 q 1082 32 1093 4 l 951 418 l 296 418 l 164 32 q 141 -8 154 4 q 97 -19 128 -19 m 335 529 l 911 529 l 624 1365 l 335 529 m 428 1697 q 397 1713 404 1697 q 390 1754 390 1729 q 397 1798 390 1781 q 428 1815 404 1815 l 821 1815 q 852 1798 846 1815 q 858 1754 858 1781 q 852 1713 858 1729 q 821 1697 846 1697 l 428 1697 z "},"Ą":{"ha":1250,"x_min":35,"x_max":1257,"o":"m 97 -19 q 48 -2 61 -19 q 43 43 35 15 l 547 1493 q 575 1537 558 1525 q 625 1549 592 1549 q 674 1537 657 1549 q 701 1493 690 1525 l 1206 43 q 1201 -2 1217 15 q 1150 -19 1186 -19 q 1106 -8 1119 -19 q 1082 32 1093 4 l 951 418 l 296 418 l 164 32 q 141 -8 154 4 q 97 -19 128 -19 m 335 529 l 911 529 l 624 1365 l 335 529 m 1053 -358 q 967 -328 999 -358 q 935 -247 935 -297 q 947 -185 935 -215 q 981 -122 958 -154 q 1039 -53 1004 -89 q 1119 25 1074 -17 l 1206 24 l 1206 14 q 1149 -47 1176 -15 q 1099 -108 1121 -78 q 1063 -164 1076 -137 q 1050 -212 1050 -190 q 1058 -242 1050 -231 q 1086 -254 1067 -254 q 1130 -235 1110 -254 q 1172 -192 1150 -217 q 1193 -181 1181 -185 q 1224 -187 1206 -176 q 1249 -215 1240 -197 q 1249 -247 1257 -233 q 1193 -310 1228 -285 q 1122 -347 1158 -335 q 1053 -358 1085 -358 z "},"Å":{"ha":1250,"x_min":35,"x_max":1217,"o":"m 97 -19 q 48 -2 61 -19 q 43 43 35 15 l 547 1493 q 575 1537 558 1525 q 625 1549 592 1549 q 674 1537 657 1549 q 701 1493 690 1525 l 1206 43 q 1201 -2 1217 15 q 1150 -19 1186 -19 q 1106 -8 1119 -19 q 1082 32 1093 4 l 951 418 l 296 418 l 164 32 q 141 -8 154 4 q 97 -19 128 -19 m 335 529 l 911 529 l 624 1365 l 335 529 m 624 1600 q 524 1622 568 1600 q 456 1683 481 1644 q 431 1769 431 1721 q 456 1858 431 1819 q 524 1917 481 1896 q 624 1939 568 1939 q 726 1917 682 1939 q 795 1858 771 1896 q 819 1771 819 1819 q 795 1683 819 1721 q 726 1622 771 1644 q 624 1600 682 1600 m 624 1685 q 694 1710 668 1685 q 719 1771 719 1735 q 694 1830 719 1806 q 624 1854 668 1854 q 556 1830 581 1854 q 531 1771 531 1806 q 556 1710 531 1735 q 624 1685 581 1685 z "},"Ã":{"ha":1250,"x_min":35,"x_max":1217,"o":"m 97 -19 q 48 -2 61 -19 q 43 43 35 15 l 547 1493 q 575 1537 558 1525 q 625 1549 592 1549 q 674 1537 657 1549 q 701 1493 690 1525 l 1206 43 q 1201 -2 1217 15 q 1150 -19 1186 -19 q 1106 -8 1119 -19 q 1082 32 1093 4 l 951 418 l 296 418 l 164 32 q 141 -8 154 4 q 97 -19 128 -19 m 335 529 l 911 529 l 624 1365 l 335 529 m 410 1651 q 363 1689 363 1651 q 397 1824 364 1782 q 492 1865 429 1865 q 571 1851 535 1865 q 638 1817 607 1836 q 694 1783 668 1797 q 744 1768 721 1768 q 772 1787 763 1768 q 783 1838 782 1806 q 831 1867 785 1867 q 869 1858 857 1867 q 881 1829 881 1849 q 848 1700 879 1746 q 749 1654 817 1654 q 668 1669 706 1654 q 600 1702 631 1683 q 544 1735 569 1721 q 496 1750 518 1750 q 471 1736 479 1750 q 460 1689 463 1722 q 446 1661 458 1671 q 410 1651 433 1651 z "},"Ắ":{"ha":1250,"x_min":35,"x_max":1217,"o":"m 97 -19 q 48 -2 61 -19 q 43 43 35 15 l 547 1493 q 575 1537 558 1525 q 625 1549 592 1549 q 674 1537 657 1549 q 701 1493 690 1525 l 1206 43 q 1201 -2 1217 15 q 1150 -19 1186 -19 q 1106 -8 1119 -19 q 1082 32 1093 4 l 951 418 l 296 418 l 164 32 q 141 -8 154 4 q 97 -19 128 -19 m 335 529 l 911 529 l 624 1365 l 335 529 m 624 1611 q 445 1674 513 1611 q 368 1865 378 1736 q 381 1894 367 1882 q 421 1906 394 1906 q 451 1895 443 1906 q 464 1865 460 1885 q 520 1767 483 1799 q 624 1735 557 1735 q 728 1767 690 1735 q 782 1865 765 1799 q 795 1895 788 1885 q 825 1906 803 1906 q 866 1894 851 1906 q 879 1865 881 1882 q 840 1727 874 1783 q 750 1641 806 1671 q 624 1611 694 1611 m 553 1882 q 519 1900 536 1882 q 501 1932 501 1918 q 503 1944 501 1939 q 514 1958 506 1950 l 719 2161 q 733 2172 726 2168 q 749 2176 739 2176 q 780 2164 763 2176 q 810 2135 797 2151 q 822 2103 822 2118 q 819 2086 822 2093 q 801 2068 815 2079 l 581 1894 q 565 1885 571 1889 q 553 1882 558 1882 z "},"Ặ":{"ha":1250,"x_min":35,"x_max":1217,"o":"m 97 -19 q 48 -2 61 -19 q 43 43 35 15 l 547 1493 q 575 1537 558 1525 q 625 1549 592 1549 q 674 1537 657 1549 q 701 1493 690 1525 l 1206 43 q 1201 -2 1217 15 q 1150 -19 1186 -19 q 1106 -8 1119 -19 q 1082 32 1093 4 l 951 418 l 296 418 l 164 32 q 141 -8 154 4 q 97 -19 128 -19 m 335 529 l 911 529 l 624 1365 l 335 529 m 624 -326 q 565 -305 585 -326 q 546 -239 546 -283 q 565 -173 546 -194 q 624 -151 585 -151 q 681 -173 661 -151 q 700 -239 700 -194 q 681 -305 701 -283 q 624 -326 661 -326 m 624 1611 q 445 1674 513 1611 q 368 1865 378 1736 q 381 1894 367 1882 q 421 1906 394 1906 q 451 1895 443 1906 q 464 1865 460 1885 q 520 1767 483 1799 q 624 1735 557 1735 q 728 1767 690 1735 q 782 1865 765 1799 q 795 1895 788 1885 q 825 1906 803 1906 q 866 1894 851 1906 q 879 1865 881 1882 q 840 1727 874 1783 q 750 1641 806 1671 q 624 1611 694 1611 z "},"Ằ":{"ha":1250,"x_min":35,"x_max":1217,"o":"m 97 -19 q 48 -2 61 -19 q 43 43 35 15 l 547 1493 q 575 1537 558 1525 q 625 1549 592 1549 q 674 1537 657 1549 q 701 1493 690 1525 l 1206 43 q 1201 -2 1217 15 q 1150 -19 1186 -19 q 1106 -8 1119 -19 q 1082 32 1093 4 l 951 418 l 296 418 l 164 32 q 141 -8 154 4 q 97 -19 128 -19 m 335 529 l 911 529 l 624 1365 l 335 529 m 624 1611 q 445 1674 513 1611 q 368 1865 378 1736 q 381 1894 367 1882 q 421 1906 394 1906 q 451 1895 443 1906 q 464 1865 460 1885 q 520 1767 483 1799 q 624 1735 557 1735 q 728 1767 690 1735 q 782 1865 765 1799 q 795 1895 788 1885 q 825 1906 803 1906 q 866 1894 851 1906 q 879 1865 881 1882 q 840 1727 874 1783 q 750 1641 806 1671 q 624 1611 694 1611 m 694 1881 q 683 1885 689 1881 q 667 1894 676 1889 l 446 2068 q 429 2086 433 2079 q 425 2103 425 2093 q 438 2134 425 2117 q 468 2164 450 2151 q 499 2176 486 2176 q 515 2172 508 2176 q 528 2160 521 2168 l 733 1957 q 745 1943 743 1949 q 747 1932 747 1938 q 729 1899 747 1918 q 694 1881 711 1881 z "},"Ẳ":{"ha":1250,"x_min":35,"x_max":1217,"o":"m 97 -19 q 48 -2 61 -19 q 43 43 35 15 l 547 1493 q 575 1537 558 1525 q 625 1549 592 1549 q 674 1537 657 1549 q 701 1493 690 1525 l 1206 43 q 1201 -2 1217 15 q 1150 -19 1186 -19 q 1106 -8 1119 -19 q 1082 32 1093 4 l 951 418 l 296 418 l 164 32 q 141 -8 154 4 q 97 -19 128 -19 m 335 529 l 911 529 l 624 1365 l 335 529 m 624 1611 q 445 1674 513 1611 q 368 1865 378 1736 q 381 1894 367 1882 q 421 1906 394 1906 q 451 1895 443 1906 q 464 1865 460 1885 q 520 1767 483 1799 q 624 1735 557 1735 q 728 1767 690 1735 q 782 1865 765 1799 q 795 1895 788 1885 q 825 1906 803 1906 q 866 1894 851 1906 q 879 1865 881 1882 q 840 1727 874 1783 q 750 1641 806 1671 q 624 1611 694 1611 m 633 2190 q 743 2157 701 2190 q 785 2069 785 2124 q 769 2006 785 2033 q 714 1950 753 1979 q 688 1925 696 1936 q 683 1900 681 1914 l 685 1890 q 677 1864 689 1875 q 647 1849 665 1853 q 613 1849 629 1844 q 590 1867 597 1853 l 575 1904 q 576 1963 564 1936 q 619 2013 589 1990 q 647 2038 639 2026 q 654 2060 654 2049 q 642 2080 654 2071 q 611 2089 631 2089 q 568 2083 590 2089 q 533 2067 546 2076 q 475 2089 500 2046 q 483 2143 458 2121 q 552 2177 513 2164 q 633 2190 592 2190 z "},"Ẵ":{"ha":1250,"x_min":35,"x_max":1217,"o":"m 97 -19 q 48 -2 61 -19 q 43 43 35 15 l 547 1493 q 575 1537 558 1525 q 625 1549 592 1549 q 674 1537 657 1549 q 701 1493 690 1525 l 1206 43 q 1201 -2 1217 15 q 1150 -19 1186 -19 q 1106 -8 1119 -19 q 1082 32 1093 4 l 951 418 l 296 418 l 164 32 q 141 -8 154 4 q 97 -19 128 -19 m 335 529 l 911 529 l 624 1365 l 335 529 m 624 1611 q 445 1674 513 1611 q 368 1865 378 1736 q 381 1894 367 1882 q 421 1906 394 1906 q 451 1895 443 1906 q 464 1865 460 1885 q 520 1767 483 1799 q 624 1735 557 1735 q 728 1767 690 1735 q 782 1865 765 1799 q 795 1895 788 1885 q 825 1906 803 1906 q 866 1894 851 1906 q 879 1865 881 1882 q 840 1727 874 1783 q 750 1641 806 1671 q 624 1611 694 1611 m 410 1947 q 363 1983 363 1947 q 397 2118 364 2076 q 492 2160 429 2160 q 571 2145 535 2160 q 638 2111 607 2131 q 694 2077 668 2092 q 744 2063 721 2063 q 772 2081 763 2063 q 783 2132 782 2100 q 831 2163 785 2163 q 869 2153 857 2163 q 881 2124 881 2143 q 848 1994 879 2040 q 749 1949 817 1949 q 668 1963 706 1949 q 600 1997 631 1978 q 544 2030 569 2015 q 496 2044 518 2044 q 471 2031 479 2044 q 460 1983 463 2017 q 446 1956 458 1965 q 410 1947 433 1947 z "},"Ấ":{"ha":1250,"x_min":35,"x_max":1217,"o":"m 97 -19 q 48 -2 61 -19 q 43 43 35 15 l 547 1493 q 575 1537 558 1525 q 625 1549 592 1549 q 674 1537 657 1549 q 701 1493 690 1525 l 1206 43 q 1201 -2 1217 15 q 1150 -19 1186 -19 q 1106 -8 1119 -19 q 1082 32 1093 4 l 951 418 l 296 418 l 164 32 q 141 -8 154 4 q 97 -19 128 -19 m 335 529 l 911 529 l 624 1365 l 335 529 m 404 1611 q 374 1628 392 1611 q 356 1658 356 1644 q 356 1668 356 1663 q 364 1681 357 1674 l 563 1878 q 585 1897 572 1888 q 624 1906 597 1906 q 662 1897 650 1906 q 683 1878 674 1888 l 885 1681 q 892 1668 892 1674 q 893 1658 893 1663 q 875 1628 893 1644 q 843 1611 857 1611 q 828 1616 835 1611 q 810 1629 821 1621 l 624 1767 l 439 1629 q 422 1616 429 1621 q 404 1611 414 1611 m 849 1832 q 815 1850 832 1832 q 797 1882 797 1868 q 799 1894 797 1889 q 810 1908 801 1899 l 1001 2094 q 1015 2106 1008 2101 q 1031 2111 1021 2111 q 1061 2099 1044 2111 q 1090 2069 1078 2086 q 1103 2036 1103 2051 q 1100 2020 1103 2026 q 1082 2001 1097 2014 l 876 1844 q 861 1835 868 1839 q 849 1832 854 1832 z "},"Ậ":{"ha":1250,"x_min":35,"x_max":1217,"o":"m 97 -19 q 48 -2 61 -19 q 43 43 35 15 l 547 1493 q 575 1537 558 1525 q 625 1549 592 1549 q 674 1537 657 1549 q 701 1493 690 1525 l 1206 43 q 1201 -2 1217 15 q 1150 -19 1186 -19 q 1106 -8 1119 -19 q 1082 32 1093 4 l 951 418 l 296 418 l 164 32 q 141 -8 154 4 q 97 -19 128 -19 m 335 529 l 911 529 l 624 1365 l 335 529 m 624 -326 q 565 -305 585 -326 q 546 -239 546 -283 q 565 -173 546 -194 q 624 -151 585 -151 q 681 -173 661 -151 q 700 -239 700 -194 q 681 -305 701 -283 q 624 -326 661 -326 m 404 1611 q 374 1628 392 1611 q 356 1658 356 1644 q 356 1668 356 1663 q 364 1681 357 1674 l 563 1878 q 585 1897 572 1888 q 624 1906 597 1906 q 662 1897 650 1906 q 683 1878 674 1888 l 885 1681 q 892 1668 892 1674 q 893 1658 893 1663 q 875 1628 893 1644 q 843 1611 857 1611 q 828 1616 835 1611 q 810 1629 821 1621 l 624 1767 l 439 1629 q 422 1616 429 1621 q 404 1611 414 1611 z "},"Ầ":{"ha":1250,"x_min":35,"x_max":1217,"o":"m 97 -19 q 48 -2 61 -19 q 43 43 35 15 l 547 1493 q 575 1537 558 1525 q 625 1549 592 1549 q 674 1537 657 1549 q 701 1493 690 1525 l 1206 43 q 1201 -2 1217 15 q 1150 -19 1186 -19 q 1106 -8 1119 -19 q 1082 32 1093 4 l 951 418 l 296 418 l 164 32 q 141 -8 154 4 q 97 -19 128 -19 m 335 529 l 911 529 l 624 1365 l 335 529 m 404 1611 q 374 1628 392 1611 q 356 1658 356 1644 q 356 1668 356 1663 q 364 1681 357 1674 l 563 1878 q 585 1897 572 1888 q 624 1906 597 1906 q 662 1897 650 1906 q 683 1878 674 1888 l 885 1681 q 892 1668 892 1674 q 893 1658 893 1663 q 875 1628 893 1644 q 843 1611 857 1611 q 828 1616 835 1611 q 810 1629 821 1621 l 624 1767 l 439 1629 q 422 1616 429 1621 q 404 1611 414 1611 m 940 1810 q 928 1813 935 1810 q 914 1822 922 1815 l 711 2006 q 694 2024 697 2018 q 690 2040 690 2031 q 703 2072 690 2056 q 734 2101 717 2089 q 765 2113 751 2113 q 781 2108 775 2113 q 794 2097 788 2104 l 981 1886 q 990 1872 988 1876 q 993 1861 993 1867 q 975 1828 993 1846 q 940 1810 957 1810 z "},"Ẩ":{"ha":1250,"x_min":35,"x_max":1217,"o":"m 97 -19 q 48 -2 61 -19 q 43 43 35 15 l 547 1493 q 575 1537 558 1525 q 625 1549 592 1549 q 674 1537 657 1549 q 701 1493 690 1525 l 1206 43 q 1201 -2 1217 15 q 1150 -19 1186 -19 q 1106 -8 1119 -19 q 1082 32 1093 4 l 951 418 l 296 418 l 164 32 q 141 -8 154 4 q 97 -19 128 -19 m 335 529 l 911 529 l 624 1365 l 335 529 m 404 1611 q 374 1628 392 1611 q 356 1658 356 1644 q 356 1668 356 1663 q 364 1681 357 1674 l 563 1878 q 585 1897 572 1888 q 624 1906 597 1906 q 662 1897 650 1906 q 683 1878 674 1888 l 885 1681 q 892 1668 892 1674 q 893 1658 893 1663 q 875 1628 893 1644 q 843 1611 857 1611 q 828 1616 835 1611 q 810 1629 821 1621 l 624 1767 l 439 1629 q 422 1616 429 1621 q 404 1611 414 1611 m 876 2135 q 986 2102 944 2135 q 1028 2015 1028 2069 q 1011 1951 1028 1978 q 956 1896 994 1924 q 931 1870 938 1882 q 926 1844 924 1858 l 928 1835 q 920 1808 932 1819 q 890 1793 908 1797 q 856 1793 872 1789 q 833 1811 840 1797 l 818 1849 q 819 1908 807 1881 q 861 1957 831 1935 q 889 1982 881 1971 q 897 2004 897 1993 q 885 2024 897 2015 q 854 2033 874 2033 q 810 2027 832 2033 q 776 2011 788 2021 q 717 2033 743 1992 q 725 2088 701 2067 q 794 2122 754 2108 q 876 2135 833 2135 z "},"Ẫ":{"ha":1250,"x_min":35,"x_max":1217,"o":"m 97 -19 q 48 -2 61 -19 q 43 43 35 15 l 547 1493 q 575 1537 558 1525 q 625 1549 592 1549 q 674 1537 657 1549 q 701 1493 690 1525 l 1206 43 q 1201 -2 1217 15 q 1150 -19 1186 -19 q 1106 -8 1119 -19 q 1082 32 1093 4 l 951 418 l 296 418 l 164 32 q 141 -8 154 4 q 97 -19 128 -19 m 335 529 l 911 529 l 624 1365 l 335 529 m 404 1611 q 374 1628 392 1611 q 356 1658 356 1644 q 356 1668 356 1663 q 364 1681 357 1674 l 563 1878 q 585 1897 572 1888 q 624 1906 597 1906 q 662 1897 650 1906 q 683 1878 674 1888 l 885 1681 q 892 1668 892 1674 q 893 1658 893 1663 q 875 1628 893 1644 q 843 1611 857 1611 q 828 1616 835 1611 q 810 1629 821 1621 l 624 1767 l 439 1629 q 422 1616 429 1621 q 404 1611 414 1611 m 413 1917 q 365 1954 365 1917 q 399 2089 367 2047 q 494 2131 432 2131 q 574 2116 538 2131 q 640 2082 610 2101 q 697 2048 671 2063 q 747 2033 724 2033 q 775 2052 765 2033 q 785 2103 785 2071 q 833 2132 788 2132 q 872 2123 860 2132 q 883 2094 883 2114 q 851 1965 882 2011 q 751 1919 819 1919 q 670 1934 707 1919 q 603 1967 633 1949 q 547 2001 572 1986 q 499 2015 521 2015 q 474 2001 482 2015 q 463 1954 465 1986 q 449 1926 461 1936 q 413 1917 436 1917 z "},"Ạ":{"ha":1250,"x_min":35,"x_max":1217,"o":"m 97 -19 q 48 -2 61 -19 q 43 43 35 15 l 547 1493 q 575 1537 558 1525 q 625 1549 592 1549 q 674 1537 657 1549 q 701 1493 690 1525 l 1206 43 q 1201 -2 1217 15 q 1150 -19 1186 -19 q 1106 -8 1119 -19 q 1082 32 1093 4 l 951 418 l 296 418 l 164 32 q 141 -8 154 4 q 97 -19 128 -19 m 335 529 l 911 529 l 624 1365 l 335 529 m 624 -326 q 565 -305 585 -326 q 546 -239 546 -283 q 565 -173 546 -194 q 624 -151 585 -151 q 681 -173 661 -151 q 700 -239 700 -194 q 681 -305 701 -283 q 624 -326 661 -326 z "},"Ả":{"ha":1250,"x_min":35,"x_max":1217,"o":"m 97 -19 q 48 -2 61 -19 q 43 43 35 15 l 547 1493 q 575 1537 558 1525 q 625 1549 592 1549 q 674 1537 657 1549 q 701 1493 690 1525 l 1206 43 q 1201 -2 1217 15 q 1150 -19 1186 -19 q 1106 -8 1119 -19 q 1082 32 1093 4 l 951 418 l 296 418 l 164 32 q 141 -8 154 4 q 97 -19 128 -19 m 335 529 l 911 529 l 624 1365 l 335 529 m 640 1943 q 750 1910 708 1943 q 792 1822 792 1876 q 775 1759 792 1786 q 719 1703 758 1732 q 694 1678 701 1689 q 690 1653 688 1667 l 692 1643 q 684 1617 696 1628 q 654 1601 672 1606 q 620 1601 636 1597 q 597 1619 604 1606 l 582 1657 q 583 1716 571 1689 q 625 1765 594 1743 q 653 1790 644 1779 q 661 1813 661 1801 q 649 1833 661 1824 q 618 1842 638 1842 q 575 1835 597 1842 q 540 1819 553 1829 q 482 1842 507 1799 q 490 1896 465 1874 q 559 1930 519 1917 q 640 1943 599 1943 z "},"Ć":{"ha":1289,"x_min":142,"x_max":1222,"o":"m 710 -26 q 479 28 583 -26 q 299 183 375 82 q 183 424 224 283 q 142 740 142 565 q 162 962 142 857 q 220 1157 182 1067 q 314 1319 258 1247 q 440 1443 369 1392 q 594 1522 510 1494 q 774 1549 678 1549 q 924 1531 851 1549 q 1060 1469 996 1513 q 1179 1350 1125 1426 q 1184 1320 1190 1332 q 1163 1296 1178 1308 q 1128 1275 1144 1279 q 1099 1283 1113 1271 q 1002 1367 1051 1335 q 897 1415 953 1399 q 772 1431 842 1431 q 634 1408 699 1431 q 513 1344 569 1386 q 413 1243 457 1303 q 336 1106 368 1183 q 288 938 304 1029 q 271 740 271 846 q 304 463 271 583 q 397 259 338 342 q 538 134 457 176 q 710 92 618 92 q 843 119 782 92 q 955 190 904 146 q 1049 286 1006 235 q 1126 386 1092 338 q 1154 403 1139 406 q 1192 386 1169 401 q 1219 359 1215 372 q 1211 329 1222 346 q 1073 144 1150 225 q 905 19 996 64 q 710 -26 814 -26 m 689 1611 q 655 1629 672 1611 q 638 1661 638 1647 q 640 1674 638 1668 q 650 1688 642 1679 l 856 1890 q 869 1901 863 1897 q 885 1906 875 1906 q 916 1893 899 1906 q 946 1864 933 1881 q 958 1832 958 1847 q 955 1815 958 1822 q 938 1797 951 1808 l 717 1624 q 701 1615 707 1618 q 689 1611 694 1611 z "},"Č":{"ha":1289,"x_min":142,"x_max":1222,"o":"m 710 -26 q 479 28 583 -26 q 299 183 375 82 q 183 424 224 283 q 142 740 142 565 q 162 962 142 857 q 220 1157 182 1067 q 314 1319 258 1247 q 440 1443 369 1392 q 594 1522 510 1494 q 774 1549 678 1549 q 924 1531 851 1549 q 1060 1469 996 1513 q 1179 1350 1125 1426 q 1184 1320 1190 1332 q 1163 1296 1178 1308 q 1128 1275 1144 1279 q 1099 1283 1113 1271 q 1002 1367 1051 1335 q 897 1415 953 1399 q 772 1431 842 1431 q 634 1408 699 1431 q 513 1344 569 1386 q 413 1243 457 1303 q 336 1106 368 1183 q 288 938 304 1029 q 271 740 271 846 q 304 463 271 583 q 397 259 338 342 q 538 134 457 176 q 710 92 618 92 q 843 119 782 92 q 955 190 904 146 q 1049 286 1006 235 q 1126 386 1092 338 q 1154 403 1139 406 q 1192 386 1169 401 q 1219 359 1215 372 q 1211 329 1222 346 q 1073 144 1150 225 q 905 19 996 64 q 710 -26 814 -26 m 981 1906 q 1011 1890 993 1906 q 1029 1858 1029 1874 q 1028 1850 1029 1856 q 1021 1836 1028 1844 l 821 1639 q 799 1621 811 1631 q 760 1611 788 1611 q 722 1621 733 1611 q 701 1639 711 1631 l 500 1836 q 492 1850 493 1844 q 492 1858 492 1856 q 510 1890 492 1874 q 540 1906 528 1906 q 558 1901 550 1906 q 575 1889 565 1896 l 760 1750 l 946 1889 q 964 1901 957 1896 q 981 1906 971 1906 z "},"Ç":{"ha":1289,"x_min":142,"x_max":1222,"o":"m 710 -26 q 479 28 583 -26 q 299 183 375 82 q 183 424 224 283 q 142 740 142 565 q 162 962 142 857 q 220 1157 182 1067 q 314 1319 258 1247 q 440 1443 369 1392 q 594 1522 510 1494 q 774 1549 678 1549 q 924 1531 851 1549 q 1060 1469 996 1513 q 1179 1350 1125 1426 q 1184 1320 1190 1332 q 1163 1296 1178 1308 q 1128 1275 1144 1279 q 1099 1283 1113 1271 q 1002 1367 1051 1335 q 897 1415 953 1399 q 772 1431 842 1431 q 634 1408 699 1431 q 513 1344 569 1386 q 413 1243 457 1303 q 336 1106 368 1183 q 288 938 304 1029 q 271 740 271 846 q 304 463 271 583 q 397 259 338 342 q 538 134 457 176 q 710 92 618 92 q 843 119 782 92 q 955 190 904 146 q 1049 286 1006 235 q 1126 386 1092 338 q 1154 403 1139 406 q 1192 386 1169 401 q 1219 359 1215 372 q 1211 329 1222 346 q 1073 144 1150 225 q 905 19 996 64 q 710 -26 814 -26 m 713 -374 q 646 -366 690 -374 q 564 -335 601 -358 q 547 -309 549 -325 q 551 -278 544 -293 q 574 -253 561 -258 q 604 -256 586 -247 q 646 -269 619 -261 q 703 -278 672 -278 q 763 -267 746 -278 q 781 -231 781 -257 q 759 -194 781 -210 q 676 -187 738 -179 q 653 -186 661 -189 q 636 -174 644 -183 q 628 -154 629 -164 q 632 -135 628 -144 l 701 18 l 793 18 l 717 -146 l 675 -124 q 786 -108 738 -100 q 863 -149 835 -117 q 890 -231 890 -181 q 870 -307 890 -275 q 811 -356 850 -339 q 713 -374 772 -374 z "},"Ĉ":{"ha":1289,"x_min":142,"x_max":1222,"o":"m 710 -26 q 479 28 583 -26 q 299 183 375 82 q 183 424 224 283 q 142 740 142 565 q 162 962 142 857 q 220 1157 182 1067 q 314 1319 258 1247 q 440 1443 369 1392 q 594 1522 510 1494 q 774 1549 678 1549 q 924 1531 851 1549 q 1060 1469 996 1513 q 1179 1350 1125 1426 q 1184 1320 1190 1332 q 1163 1296 1178 1308 q 1128 1275 1144 1279 q 1099 1283 1113 1271 q 1002 1367 1051 1335 q 897 1415 953 1399 q 772 1431 842 1431 q 634 1408 699 1431 q 513 1344 569 1386 q 413 1243 457 1303 q 336 1106 368 1183 q 288 938 304 1029 q 271 740 271 846 q 304 463 271 583 q 397 259 338 342 q 538 134 457 176 q 710 92 618 92 q 843 119 782 92 q 955 190 904 146 q 1049 286 1006 235 q 1126 386 1092 338 q 1154 403 1139 406 q 1192 386 1169 401 q 1219 359 1215 372 q 1211 329 1222 346 q 1073 144 1150 225 q 905 19 996 64 q 710 -26 814 -26 m 540 1611 q 510 1628 528 1611 q 492 1658 492 1644 q 492 1668 492 1663 q 500 1681 493 1674 l 699 1878 q 721 1897 708 1888 q 760 1906 733 1906 q 798 1897 786 1906 q 819 1878 810 1888 l 1021 1681 q 1028 1668 1028 1674 q 1029 1658 1029 1663 q 1011 1628 1029 1644 q 979 1611 993 1611 q 964 1616 971 1611 q 946 1629 957 1621 l 760 1767 l 575 1629 q 558 1616 565 1621 q 540 1611 550 1611 z "},"Ċ":{"ha":1289,"x_min":142,"x_max":1222,"o":"m 710 -26 q 479 28 583 -26 q 299 183 375 82 q 183 424 224 283 q 142 740 142 565 q 162 962 142 857 q 220 1157 182 1067 q 314 1319 258 1247 q 440 1443 369 1392 q 594 1522 510 1494 q 774 1549 678 1549 q 924 1531 851 1549 q 1060 1469 996 1513 q 1179 1350 1125 1426 q 1184 1320 1190 1332 q 1163 1296 1178 1308 q 1128 1275 1144 1279 q 1099 1283 1113 1271 q 1002 1367 1051 1335 q 897 1415 953 1399 q 772 1431 842 1431 q 634 1408 699 1431 q 513 1344 569 1386 q 413 1243 457 1303 q 336 1106 368 1183 q 288 938 304 1029 q 271 740 271 846 q 304 463 271 583 q 397 259 338 342 q 538 134 457 176 q 710 92 618 92 q 843 119 782 92 q 955 190 904 146 q 1049 286 1006 235 q 1126 386 1092 338 q 1154 403 1139 406 q 1192 386 1169 401 q 1219 359 1215 372 q 1211 329 1222 346 q 1073 144 1150 225 q 905 19 996 64 q 710 -26 814 -26 m 760 1660 q 701 1681 721 1660 q 682 1746 682 1703 q 701 1813 682 1790 q 760 1835 721 1835 q 817 1813 797 1835 q 836 1746 836 1790 q 817 1681 838 1703 q 760 1660 797 1660 z "},"Ď":{"ha":1446,"x_min":219,"x_max":1306,"o":"m 281 0 q 219 39 219 0 l 219 1483 q 235 1513 219 1503 q 281 1522 250 1522 l 582 1522 q 897 1471 763 1522 q 1123 1326 1032 1419 q 1260 1110 1214 1233 q 1306 839 1306 986 q 1273 554 1306 685 q 1175 321 1240 424 q 1012 147 1110 218 q 783 38 914 75 q 489 0 653 0 l 281 0 m 342 118 l 489 118 q 735 149 625 118 q 926 238 844 179 q 1063 385 1008 297 q 1144 586 1117 472 q 1172 839 1172 700 q 1133 1069 1172 965 q 1019 1247 1094 1172 q 833 1363 943 1322 q 582 1404 724 1404 l 342 1404 l 342 118 m 899 1906 q 929 1890 911 1906 q 947 1858 947 1874 q 947 1850 947 1856 q 939 1836 946 1844 l 739 1639 q 717 1621 729 1631 q 678 1611 706 1611 q 640 1621 651 1611 q 619 1639 629 1631 l 418 1836 q 410 1850 411 1844 q 410 1858 410 1856 q 428 1890 410 1874 q 458 1906 446 1906 q 476 1901 468 1906 q 493 1889 483 1896 l 678 1750 l 864 1889 q 882 1901 875 1896 q 899 1906 889 1906 z "},"Đ":{"ha":1207,"x_min":-6,"x_max":1306,"o":"m 281 0 q 219 39 219 0 l 219 1483 q 235 1513 219 1503 q 281 1522 250 1522 l 582 1522 q 897 1471 763 1522 q 1123 1326 1032 1419 q 1260 1110 1214 1233 q 1306 839 1306 986 q 1273 554 1306 685 q 1175 321 1240 424 q 1012 147 1110 218 q 783 38 914 75 q 489 0 653 0 l 281 0 m 342 118 l 489 118 q 735 149 625 118 q 926 238 844 179 q 1063 385 1008 297 q 1144 586 1117 472 q 1172 839 1172 700 q 1133 1069 1172 965 q 1019 1247 1094 1172 q 833 1363 943 1322 q 582 1404 724 1404 l 342 1404 l 342 118 m 33 565 q 1 581 8 565 q -6 614 -6 596 q 1 650 -6 633 q 33 667 8 667 l 615 667 q 646 650 639 667 q 653 614 653 633 q 646 581 653 596 q 615 565 639 565 l 33 565 z "},"É":{"ha":1103,"x_min":219,"x_max":1035,"o":"m 281 0 q 235 14 250 0 q 219 56 219 28 l 219 1483 q 235 1513 219 1503 q 281 1522 250 1522 l 997 1522 q 1026 1510 1018 1522 q 1035 1467 1035 1499 q 1026 1424 1035 1436 q 997 1411 1018 1411 l 342 1411 l 342 860 l 892 860 q 922 848 913 860 q 931 804 931 836 q 922 761 931 774 q 892 749 913 749 l 342 749 l 342 111 l 997 111 q 1026 99 1018 111 q 1035 56 1035 88 q 1026 13 1035 25 q 997 0 1018 0 l 281 0 m 572 1611 q 538 1629 556 1611 q 521 1661 521 1647 q 523 1674 521 1668 q 533 1688 525 1679 l 739 1890 q 752 1901 746 1897 q 768 1906 758 1906 q 799 1893 782 1906 q 829 1864 817 1881 q 842 1832 842 1847 q 838 1815 842 1822 q 821 1797 835 1808 l 600 1624 q 584 1615 590 1618 q 572 1611 578 1611 z "},"Ĕ":{"ha":1103,"x_min":219,"x_max":1035,"o":"m 281 0 q 235 14 250 0 q 219 56 219 28 l 219 1483 q 235 1513 219 1503 q 281 1522 250 1522 l 997 1522 q 1026 1510 1018 1522 q 1035 1467 1035 1499 q 1026 1424 1035 1436 q 997 1411 1018 1411 l 342 1411 l 342 860 l 892 860 q 922 848 913 860 q 931 804 931 836 q 922 761 931 774 q 892 749 913 749 l 342 749 l 342 111 l 997 111 q 1026 99 1018 111 q 1035 56 1035 88 q 1026 13 1035 25 q 997 0 1018 0 l 281 0 m 643 1611 q 465 1674 532 1611 q 388 1865 397 1736 q 400 1894 386 1882 q 440 1906 414 1906 q 471 1895 463 1906 q 483 1865 479 1885 q 540 1767 503 1799 q 643 1735 576 1735 q 747 1767 710 1735 q 801 1865 785 1799 q 815 1895 807 1885 q 844 1906 822 1906 q 885 1894 871 1906 q 899 1865 900 1882 q 859 1727 893 1783 q 769 1641 825 1671 q 643 1611 714 1611 z "},"Ě":{"ha":1103,"x_min":219,"x_max":1035,"o":"m 281 0 q 235 14 250 0 q 219 56 219 28 l 219 1483 q 235 1513 219 1503 q 281 1522 250 1522 l 997 1522 q 1026 1510 1018 1522 q 1035 1467 1035 1499 q 1026 1424 1035 1436 q 997 1411 1018 1411 l 342 1411 l 342 860 l 892 860 q 922 848 913 860 q 931 804 931 836 q 922 761 931 774 q 892 749 913 749 l 342 749 l 342 111 l 997 111 q 1026 99 1018 111 q 1035 56 1035 88 q 1026 13 1035 25 q 997 0 1018 0 l 281 0 m 864 1906 q 894 1890 876 1906 q 913 1858 913 1874 q 912 1850 913 1856 q 904 1836 911 1844 l 704 1639 q 683 1621 694 1631 q 643 1611 671 1611 q 606 1621 617 1611 q 585 1639 594 1631 l 383 1836 q 376 1850 376 1844 q 375 1858 375 1856 q 393 1890 375 1874 q 424 1906 411 1906 q 441 1901 433 1906 q 458 1889 449 1896 l 643 1750 l 829 1889 q 847 1901 840 1896 q 864 1906 854 1906 z "},"Ê":{"ha":1103,"x_min":219,"x_max":1035,"o":"m 281 0 q 235 14 250 0 q 219 56 219 28 l 219 1483 q 235 1513 219 1503 q 281 1522 250 1522 l 997 1522 q 1026 1510 1018 1522 q 1035 1467 1035 1499 q 1026 1424 1035 1436 q 997 1411 1018 1411 l 342 1411 l 342 860 l 892 860 q 922 848 913 860 q 931 804 931 836 q 922 761 931 774 q 892 749 913 749 l 342 749 l 342 111 l 997 111 q 1026 99 1018 111 q 1035 56 1035 88 q 1026 13 1035 25 q 997 0 1018 0 l 281 0 m 424 1611 q 393 1628 411 1611 q 375 1658 375 1644 q 376 1668 375 1663 q 383 1681 376 1674 l 582 1878 q 604 1897 592 1888 q 643 1906 617 1906 q 681 1897 669 1906 q 703 1878 693 1888 l 904 1681 q 912 1668 911 1674 q 913 1658 913 1663 q 894 1628 913 1644 q 863 1611 876 1611 q 847 1616 854 1611 q 829 1629 840 1621 l 643 1767 l 458 1629 q 441 1616 449 1621 q 424 1611 433 1611 z "},"Ë":{"ha":1103,"x_min":219,"x_max":1035,"o":"m 281 0 q 235 14 250 0 q 219 56 219 28 l 219 1483 q 235 1513 219 1503 q 281 1522 250 1522 l 997 1522 q 1026 1510 1018 1522 q 1035 1467 1035 1499 q 1026 1424 1035 1436 q 997 1411 1018 1411 l 342 1411 l 342 860 l 892 860 q 922 848 913 860 q 931 804 931 836 q 922 761 931 774 q 892 749 913 749 l 342 749 l 342 111 l 997 111 q 1026 99 1018 111 q 1035 56 1035 88 q 1026 13 1035 25 q 997 0 1018 0 l 281 0 m 468 1661 q 410 1683 431 1661 q 390 1747 390 1704 q 410 1814 390 1792 q 469 1836 429 1836 q 526 1814 507 1836 q 546 1747 546 1792 q 527 1683 547 1704 q 468 1661 507 1661 m 819 1661 q 761 1683 781 1661 q 742 1747 742 1704 q 761 1814 742 1792 q 819 1836 781 1836 q 876 1814 857 1836 q 896 1747 896 1792 q 877 1683 897 1704 q 819 1661 857 1661 z "},"Ė":{"ha":1103,"x_min":219,"x_max":1035,"o":"m 281 0 q 235 14 250 0 q 219 56 219 28 l 219 1483 q 235 1513 219 1503 q 281 1522 250 1522 l 997 1522 q 1026 1510 1018 1522 q 1035 1467 1035 1499 q 1026 1424 1035 1436 q 997 1411 1018 1411 l 342 1411 l 342 860 l 892 860 q 922 848 913 860 q 931 804 931 836 q 922 761 931 774 q 892 749 913 749 l 342 749 l 342 111 l 997 111 q 1026 99 1018 111 q 1035 56 1035 88 q 1026 13 1035 25 q 997 0 1018 0 l 281 0 m 643 1660 q 585 1681 604 1660 q 565 1746 565 1703 q 585 1813 565 1790 q 643 1835 604 1835 q 700 1813 681 1835 q 719 1746 719 1790 q 701 1681 721 1703 q 643 1660 681 1660 z "},"È":{"ha":1103,"x_min":219,"x_max":1035,"o":"m 281 0 q 235 14 250 0 q 219 56 219 28 l 219 1483 q 235 1513 219 1503 q 281 1522 250 1522 l 997 1522 q 1026 1510 1018 1522 q 1035 1467 1035 1499 q 1026 1424 1035 1436 q 997 1411 1018 1411 l 342 1411 l 342 860 l 892 860 q 922 848 913 860 q 931 804 931 836 q 922 761 931 774 q 892 749 913 749 l 342 749 l 342 111 l 997 111 q 1026 99 1018 111 q 1035 56 1035 88 q 1026 13 1035 25 q 997 0 1018 0 l 281 0 m 714 1611 q 702 1615 708 1611 q 686 1624 696 1618 l 465 1797 q 449 1815 453 1808 q 444 1832 444 1822 q 457 1864 444 1847 q 488 1893 469 1881 q 518 1906 506 1906 q 534 1901 528 1906 q 547 1890 540 1897 l 753 1688 q 765 1674 763 1679 q 767 1663 767 1668 q 749 1629 767 1647 q 714 1611 731 1611 z "},"Ē":{"ha":1103,"x_min":219,"x_max":1035,"o":"m 281 0 q 235 14 250 0 q 219 56 219 28 l 219 1483 q 235 1513 219 1503 q 281 1522 250 1522 l 997 1522 q 1026 1510 1018 1522 q 1035 1467 1035 1499 q 1026 1424 1035 1436 q 997 1411 1018 1411 l 342 1411 l 342 860 l 892 860 q 922 848 913 860 q 931 804 931 836 q 922 761 931 774 q 892 749 913 749 l 342 749 l 342 111 l 997 111 q 1026 99 1018 111 q 1035 56 1035 88 q 1026 13 1035 25 q 997 0 1018 0 l 281 0 m 447 1697 q 417 1713 424 1697 q 410 1754 410 1729 q 417 1798 410 1781 q 447 1815 424 1815 l 840 1815 q 872 1798 865 1815 q 878 1754 878 1781 q 872 1713 878 1729 q 840 1697 865 1697 l 447 1697 z "},"Ę":{"ha":1103,"x_min":219,"x_max":1078,"o":"m 281 0 q 235 14 250 0 q 219 56 219 28 l 219 1483 q 235 1513 219 1503 q 281 1522 250 1522 l 997 1522 q 1026 1510 1018 1522 q 1035 1467 1035 1499 q 1026 1424 1035 1436 q 997 1411 1018 1411 l 342 1411 l 342 860 l 892 860 q 922 848 913 860 q 931 804 931 836 q 922 761 931 774 q 892 749 913 749 l 342 749 l 342 111 l 997 111 q 1026 99 1018 111 q 1035 56 1035 88 q 1026 13 1035 25 q 997 0 1018 0 l 281 0 m 874 -350 q 788 -319 819 -350 q 756 -239 756 -289 q 767 -176 756 -207 q 802 -113 779 -146 q 860 -44 825 -81 q 940 33 894 -8 l 1026 32 l 1026 22 q 969 -38 997 -7 q 919 -99 942 -69 q 884 -156 897 -129 q 871 -204 871 -182 q 879 -234 871 -222 q 907 -246 888 -246 q 951 -227 931 -246 q 993 -183 971 -208 q 1014 -172 1001 -176 q 1044 -179 1026 -168 q 1069 -207 1061 -189 q 1069 -239 1078 -225 q 1014 -301 1049 -276 q 942 -338 979 -326 q 874 -350 906 -350 z "},"Ế":{"ha":1103,"x_min":219,"x_max":1122,"o":"m 281 0 q 235 14 250 0 q 219 56 219 28 l 219 1483 q 235 1513 219 1503 q 281 1522 250 1522 l 997 1522 q 1026 1510 1018 1522 q 1035 1467 1035 1499 q 1026 1424 1035 1436 q 997 1411 1018 1411 l 342 1411 l 342 860 l 892 860 q 922 848 913 860 q 931 804 931 836 q 922 761 931 774 q 892 749 913 749 l 342 749 l 342 111 l 997 111 q 1026 99 1018 111 q 1035 56 1035 88 q 1026 13 1035 25 q 997 0 1018 0 l 281 0 m 424 1611 q 393 1628 411 1611 q 375 1658 375 1644 q 376 1668 375 1663 q 383 1681 376 1674 l 582 1878 q 604 1897 592 1888 q 643 1906 617 1906 q 681 1897 669 1906 q 703 1878 693 1888 l 904 1681 q 912 1668 911 1674 q 913 1658 913 1663 q 894 1628 913 1644 q 863 1611 876 1611 q 847 1616 854 1611 q 829 1629 840 1621 l 643 1767 l 458 1629 q 441 1616 449 1621 q 424 1611 433 1611 m 868 1832 q 834 1850 851 1832 q 817 1882 817 1868 q 819 1894 817 1889 q 829 1908 821 1899 l 1021 2094 q 1034 2106 1028 2101 q 1050 2111 1040 2111 q 1081 2099 1064 2111 q 1110 2069 1097 2086 q 1122 2036 1122 2051 q 1119 2020 1122 2026 q 1101 2001 1117 2014 l 896 1844 q 881 1835 888 1839 q 868 1832 874 1832 z "},"Ệ":{"ha":1103,"x_min":219,"x_max":1035,"o":"m 281 0 q 235 14 250 0 q 219 56 219 28 l 219 1483 q 235 1513 219 1503 q 281 1522 250 1522 l 997 1522 q 1026 1510 1018 1522 q 1035 1467 1035 1499 q 1026 1424 1035 1436 q 997 1411 1018 1411 l 342 1411 l 342 860 l 892 860 q 922 848 913 860 q 931 804 931 836 q 922 761 931 774 q 892 749 913 749 l 342 749 l 342 111 l 997 111 q 1026 99 1018 111 q 1035 56 1035 88 q 1026 13 1035 25 q 997 0 1018 0 l 281 0 m 611 -326 q 553 -305 572 -326 q 533 -239 533 -283 q 553 -173 533 -194 q 611 -151 572 -151 q 668 -173 649 -151 q 688 -239 688 -194 q 669 -305 689 -283 q 611 -326 649 -326 m 424 1611 q 393 1628 411 1611 q 375 1658 375 1644 q 376 1668 375 1663 q 383 1681 376 1674 l 582 1878 q 604 1897 592 1888 q 643 1906 617 1906 q 681 1897 669 1906 q 703 1878 693 1888 l 904 1681 q 912 1668 911 1674 q 913 1658 913 1663 q 894 1628 913 1644 q 863 1611 876 1611 q 847 1616 854 1611 q 829 1629 840 1621 l 643 1767 l 458 1629 q 441 1616 449 1621 q 424 1611 433 1611 z "},"Ề":{"ha":1103,"x_min":219,"x_max":1035,"o":"m 281 0 q 235 14 250 0 q 219 56 219 28 l 219 1483 q 235 1513 219 1503 q 281 1522 250 1522 l 997 1522 q 1026 1510 1018 1522 q 1035 1467 1035 1499 q 1026 1424 1035 1436 q 997 1411 1018 1411 l 342 1411 l 342 860 l 892 860 q 922 848 913 860 q 931 804 931 836 q 922 761 931 774 q 892 749 913 749 l 342 749 l 342 111 l 997 111 q 1026 99 1018 111 q 1035 56 1035 88 q 1026 13 1035 25 q 997 0 1018 0 l 281 0 m 424 1611 q 393 1628 411 1611 q 375 1658 375 1644 q 376 1668 375 1663 q 383 1681 376 1674 l 582 1878 q 604 1897 592 1888 q 643 1906 617 1906 q 681 1897 669 1906 q 703 1878 693 1888 l 904 1681 q 912 1668 911 1674 q 913 1658 913 1663 q 894 1628 913 1644 q 863 1611 876 1611 q 847 1616 854 1611 q 829 1629 840 1621 l 643 1767 l 458 1629 q 441 1616 449 1621 q 424 1611 433 1611 m 960 1810 q 948 1813 954 1810 q 933 1822 942 1815 l 731 2006 q 713 2024 717 2018 q 710 2040 710 2031 q 723 2072 710 2056 q 753 2101 736 2089 q 785 2113 771 2113 q 801 2108 794 2113 q 814 2097 807 2104 l 1000 1886 q 1010 1872 1007 1876 q 1013 1861 1013 1867 q 994 1828 1013 1846 q 960 1810 976 1810 z "},"Ể":{"ha":1103,"x_min":219,"x_max":1046,"o":"m 281 0 q 235 14 250 0 q 219 56 219 28 l 219 1483 q 235 1513 219 1503 q 281 1522 250 1522 l 997 1522 q 1026 1510 1018 1522 q 1035 1467 1035 1499 q 1026 1424 1035 1436 q 997 1411 1018 1411 l 342 1411 l 342 860 l 892 860 q 922 848 913 860 q 931 804 931 836 q 922 761 931 774 q 892 749 913 749 l 342 749 l 342 111 l 997 111 q 1026 99 1018 111 q 1035 56 1035 88 q 1026 13 1035 25 q 997 0 1018 0 l 281 0 m 424 1611 q 393 1628 411 1611 q 375 1658 375 1644 q 376 1668 375 1663 q 383 1681 376 1674 l 582 1878 q 604 1897 592 1888 q 643 1906 617 1906 q 681 1897 669 1906 q 703 1878 693 1888 l 904 1681 q 912 1668 911 1674 q 913 1658 913 1663 q 894 1628 913 1644 q 863 1611 876 1611 q 847 1616 854 1611 q 829 1629 840 1621 l 643 1767 l 458 1629 q 441 1616 449 1621 q 424 1611 433 1611 m 896 2135 q 1006 2102 964 2135 q 1047 2015 1047 2069 q 1031 1951 1047 1978 q 975 1896 1014 1924 q 950 1870 957 1882 q 946 1844 943 1858 l 947 1835 q 940 1808 951 1819 q 910 1793 928 1797 q 876 1793 892 1789 q 853 1811 860 1797 l 838 1849 q 838 1908 826 1881 q 881 1957 850 1935 q 908 1982 900 1971 q 917 2004 917 1993 q 905 2024 917 2015 q 874 2033 893 2033 q 829 2027 851 2033 q 796 2011 807 2021 q 736 2033 763 1992 q 744 2088 721 2067 q 813 2122 774 2108 q 896 2135 853 2135 z "},"Ễ":{"ha":1103,"x_min":219,"x_max":1035,"o":"m 281 0 q 235 14 250 0 q 219 56 219 28 l 219 1483 q 235 1513 219 1503 q 281 1522 250 1522 l 997 1522 q 1026 1510 1018 1522 q 1035 1467 1035 1499 q 1026 1424 1035 1436 q 997 1411 1018 1411 l 342 1411 l 342 860 l 892 860 q 922 848 913 860 q 931 804 931 836 q 922 761 931 774 q 892 749 913 749 l 342 749 l 342 111 l 997 111 q 1026 99 1018 111 q 1035 56 1035 88 q 1026 13 1035 25 q 997 0 1018 0 l 281 0 m 424 1611 q 393 1628 411 1611 q 375 1658 375 1644 q 376 1668 375 1663 q 383 1681 376 1674 l 582 1878 q 604 1897 592 1888 q 643 1906 617 1906 q 681 1897 669 1906 q 703 1878 693 1888 l 904 1681 q 912 1668 911 1674 q 913 1658 913 1663 q 894 1628 913 1644 q 863 1611 876 1611 q 847 1616 854 1611 q 829 1629 840 1621 l 643 1767 l 458 1629 q 441 1616 449 1621 q 424 1611 433 1611 m 432 1917 q 385 1954 385 1917 q 419 2089 386 2047 q 514 2131 451 2131 q 593 2116 557 2131 q 660 2082 629 2101 q 717 2048 690 2063 q 767 2033 743 2033 q 794 2052 785 2033 q 804 2103 804 2071 q 853 2132 807 2132 q 891 2123 879 2132 q 903 2094 903 2114 q 870 1965 901 2011 q 771 1919 839 1919 q 690 1934 726 1919 q 622 1967 653 1949 q 566 2001 592 1986 q 518 2015 540 2015 q 493 2001 501 2015 q 482 1954 485 1986 q 468 1926 481 1936 q 432 1917 456 1917 z "},"Ẹ":{"ha":1103,"x_min":219,"x_max":1035,"o":"m 281 0 q 235 14 250 0 q 219 56 219 28 l 219 1483 q 235 1513 219 1503 q 281 1522 250 1522 l 997 1522 q 1026 1510 1018 1522 q 1035 1467 1035 1499 q 1026 1424 1035 1436 q 997 1411 1018 1411 l 342 1411 l 342 860 l 892 860 q 922 848 913 860 q 931 804 931 836 q 922 761 931 774 q 892 749 913 749 l 342 749 l 342 111 l 997 111 q 1026 99 1018 111 q 1035 56 1035 88 q 1026 13 1035 25 q 997 0 1018 0 l 281 0 m 611 -326 q 553 -305 572 -326 q 533 -239 533 -283 q 553 -173 533 -194 q 611 -151 572 -151 q 668 -173 649 -151 q 688 -239 688 -194 q 669 -305 689 -283 q 611 -326 649 -326 z "},"Ẻ":{"ha":1103,"x_min":219,"x_max":1035,"o":"m 281 0 q 235 14 250 0 q 219 56 219 28 l 219 1483 q 235 1513 219 1503 q 281 1522 250 1522 l 997 1522 q 1026 1510 1018 1522 q 1035 1467 1035 1499 q 1026 1424 1035 1436 q 997 1411 1018 1411 l 342 1411 l 342 860 l 892 860 q 922 848 913 860 q 931 804 931 836 q 922 761 931 774 q 892 749 913 749 l 342 749 l 342 111 l 997 111 q 1026 99 1018 111 q 1035 56 1035 88 q 1026 13 1035 25 q 997 0 1018 0 l 281 0 m 660 1943 q 769 1910 728 1943 q 811 1822 811 1876 q 794 1759 811 1786 q 739 1703 778 1732 q 714 1678 721 1689 q 710 1653 707 1667 l 711 1643 q 703 1617 715 1628 q 674 1601 692 1606 q 640 1601 656 1597 q 617 1619 624 1606 l 601 1657 q 602 1716 590 1689 q 644 1765 614 1743 q 672 1790 664 1779 q 681 1813 681 1801 q 669 1833 681 1824 q 638 1842 657 1842 q 594 1835 617 1842 q 560 1819 572 1829 q 501 1842 526 1799 q 510 1896 485 1874 q 578 1930 539 1917 q 660 1943 618 1943 z "},"Ẽ":{"ha":1103,"x_min":219,"x_max":1035,"o":"m 281 0 q 235 14 250 0 q 219 56 219 28 l 219 1483 q 235 1513 219 1503 q 281 1522 250 1522 l 997 1522 q 1026 1510 1018 1522 q 1035 1467 1035 1499 q 1026 1424 1035 1436 q 997 1411 1018 1411 l 342 1411 l 342 860 l 892 860 q 922 848 913 860 q 931 804 931 836 q 922 761 931 774 q 892 749 913 749 l 342 749 l 342 111 l 997 111 q 1026 99 1018 111 q 1035 56 1035 88 q 1026 13 1035 25 q 997 0 1018 0 l 281 0 m 429 1651 q 382 1689 382 1651 q 416 1824 383 1782 q 511 1865 449 1865 q 590 1851 554 1865 q 657 1817 626 1836 q 714 1783 688 1797 q 764 1768 740 1768 q 792 1787 782 1768 q 803 1838 801 1806 q 850 1867 804 1867 q 888 1858 876 1867 q 900 1829 900 1849 q 867 1700 899 1746 q 768 1654 836 1654 q 688 1669 725 1654 q 619 1702 650 1683 q 563 1735 589 1721 q 515 1750 538 1750 q 490 1736 499 1750 q 479 1689 482 1722 q 465 1661 478 1671 q 429 1651 453 1651 z "},"Ğ":{"ha":1456,"x_min":142,"x_max":1301,"o":"m 713 -26 q 480 31 585 -25 q 299 188 375 86 q 183 431 224 290 q 142 740 142 571 q 162 962 142 857 q 220 1157 182 1067 q 314 1319 258 1247 q 440 1443 369 1392 q 594 1522 510 1494 q 774 1549 678 1549 q 924 1531 851 1549 q 1060 1469 996 1513 q 1179 1350 1125 1426 q 1184 1320 1190 1332 q 1163 1296 1178 1308 q 1128 1275 1144 1279 q 1099 1283 1113 1271 q 1003 1367 1051 1335 q 899 1415 956 1399 q 772 1431 843 1431 q 634 1408 699 1431 q 513 1344 569 1386 q 413 1243 457 1303 q 336 1106 368 1183 q 288 938 304 1029 q 271 740 271 846 q 304 467 271 588 q 398 263 338 347 q 539 135 458 179 q 713 92 619 92 q 865 115 794 92 q 992 186 935 139 q 1089 306 1049 233 q 1152 476 1129 379 q 1176 697 1175 574 l 785 697 q 755 710 764 697 q 746 753 746 722 q 755 797 746 785 q 785 808 764 808 l 1263 808 q 1292 797 1283 808 q 1301 753 1301 785 q 1254 398 1301 546 q 1125 156 1207 250 q 938 18 1043 63 q 713 -26 832 -26 m 749 1611 q 570 1674 638 1611 q 493 1865 503 1736 q 506 1894 492 1882 q 546 1906 519 1906 q 576 1895 568 1906 q 589 1865 585 1885 q 645 1767 608 1799 q 749 1735 682 1735 q 853 1767 815 1735 q 907 1865 890 1799 q 920 1895 913 1885 q 950 1906 928 1906 q 991 1894 976 1906 q 1004 1865 1006 1882 q 965 1727 999 1783 q 875 1641 931 1671 q 749 1611 819 1611 z "},"Ĝ":{"ha":1456,"x_min":142,"x_max":1301,"o":"m 713 -26 q 480 31 585 -25 q 299 188 375 86 q 183 431 224 290 q 142 740 142 571 q 162 962 142 857 q 220 1157 182 1067 q 314 1319 258 1247 q 440 1443 369 1392 q 594 1522 510 1494 q 774 1549 678 1549 q 924 1531 851 1549 q 1060 1469 996 1513 q 1179 1350 1125 1426 q 1184 1320 1190 1332 q 1163 1296 1178 1308 q 1128 1275 1144 1279 q 1099 1283 1113 1271 q 1003 1367 1051 1335 q 899 1415 956 1399 q 772 1431 843 1431 q 634 1408 699 1431 q 513 1344 569 1386 q 413 1243 457 1303 q 336 1106 368 1183 q 288 938 304 1029 q 271 740 271 846 q 304 467 271 588 q 398 263 338 347 q 539 135 458 179 q 713 92 619 92 q 865 115 794 92 q 992 186 935 139 q 1089 306 1049 233 q 1152 476 1129 379 q 1176 697 1175 574 l 785 697 q 755 710 764 697 q 746 753 746 722 q 755 797 746 785 q 785 808 764 808 l 1263 808 q 1292 797 1283 808 q 1301 753 1301 785 q 1254 398 1301 546 q 1125 156 1207 250 q 938 18 1043 63 q 713 -26 832 -26 m 529 1611 q 499 1628 517 1611 q 481 1658 481 1644 q 481 1668 481 1663 q 489 1681 482 1674 l 688 1878 q 710 1897 697 1888 q 749 1906 722 1906 q 787 1897 775 1906 q 808 1878 799 1888 l 1010 1681 q 1017 1668 1017 1674 q 1018 1658 1018 1663 q 1000 1628 1018 1644 q 968 1611 982 1611 q 953 1616 960 1611 q 935 1629 946 1621 l 749 1767 l 564 1629 q 547 1616 554 1621 q 529 1611 539 1611 z "},"Ģ":{"ha":1456,"x_min":142,"x_max":1301,"o":"m 713 -26 q 480 31 585 -25 q 299 188 375 86 q 183 431 224 290 q 142 740 142 571 q 162 962 142 857 q 220 1157 182 1067 q 314 1319 258 1247 q 440 1443 369 1392 q 594 1522 510 1494 q 774 1549 678 1549 q 924 1531 851 1549 q 1060 1469 996 1513 q 1179 1350 1125 1426 q 1184 1320 1190 1332 q 1163 1296 1178 1308 q 1128 1275 1144 1279 q 1099 1283 1113 1271 q 1003 1367 1051 1335 q 899 1415 956 1399 q 772 1431 843 1431 q 634 1408 699 1431 q 513 1344 569 1386 q 413 1243 457 1303 q 336 1106 368 1183 q 288 938 304 1029 q 271 740 271 846 q 304 467 271 588 q 398 263 338 347 q 539 135 458 179 q 713 92 619 92 q 865 115 794 92 q 992 186 935 139 q 1089 306 1049 233 q 1152 476 1129 379 q 1176 697 1175 574 l 785 697 q 755 710 764 697 q 746 753 746 722 q 755 797 746 785 q 785 808 764 808 l 1263 808 q 1292 797 1283 808 q 1301 753 1301 785 q 1254 398 1301 546 q 1125 156 1207 250 q 938 18 1043 63 q 713 -26 832 -26 m 651 -404 q 631 -386 635 -397 q 633 -354 626 -375 q 658 -281 650 -311 q 669 -219 667 -250 q 671 -146 671 -187 q 684 -112 671 -122 q 724 -103 697 -103 q 773 -118 756 -103 q 790 -160 790 -133 q 781 -233 790 -194 q 754 -310 771 -272 q 715 -382 738 -349 q 688 -408 701 -404 q 651 -404 674 -412 z "},"Ġ":{"ha":1456,"x_min":142,"x_max":1301,"o":"m 713 -26 q 480 31 585 -25 q 299 188 375 86 q 183 431 224 290 q 142 740 142 571 q 162 962 142 857 q 220 1157 182 1067 q 314 1319 258 1247 q 440 1443 369 1392 q 594 1522 510 1494 q 774 1549 678 1549 q 924 1531 851 1549 q 1060 1469 996 1513 q 1179 1350 1125 1426 q 1184 1320 1190 1332 q 1163 1296 1178 1308 q 1128 1275 1144 1279 q 1099 1283 1113 1271 q 1003 1367 1051 1335 q 899 1415 956 1399 q 772 1431 843 1431 q 634 1408 699 1431 q 513 1344 569 1386 q 413 1243 457 1303 q 336 1106 368 1183 q 288 938 304 1029 q 271 740 271 846 q 304 467 271 588 q 398 263 338 347 q 539 135 458 179 q 713 92 619 92 q 865 115 794 92 q 992 186 935 139 q 1089 306 1049 233 q 1152 476 1129 379 q 1176 697 1175 574 l 785 697 q 755 710 764 697 q 746 753 746 722 q 755 797 746 785 q 785 808 764 808 l 1263 808 q 1292 797 1283 808 q 1301 753 1301 785 q 1254 398 1301 546 q 1125 156 1207 250 q 938 18 1043 63 q 713 -26 832 -26 m 749 1660 q 690 1681 710 1660 q 671 1746 671 1703 q 690 1813 671 1790 q 749 1835 710 1835 q 806 1813 786 1835 q 825 1746 825 1790 q 806 1681 826 1703 q 749 1660 786 1660 z "},"Ħ":{"ha":1476,"x_min":67,"x_max":1413,"o":"m 281 -19 q 219 19 219 -19 l 219 1511 q 235 1540 219 1531 q 281 1549 250 1549 q 342 1511 342 1549 l 342 854 l 1136 854 l 1136 1511 q 1151 1540 1136 1531 q 1197 1549 1167 1549 q 1258 1511 1258 1549 l 1258 19 q 1243 -10 1258 0 q 1197 -19 1228 -19 q 1136 19 1136 -19 l 1136 743 l 342 743 l 342 19 q 326 -10 342 0 q 281 -19 311 -19 m 104 1122 q 73 1136 79 1122 q 67 1174 67 1150 q 73 1215 67 1200 q 104 1229 79 1229 l 1374 1229 q 1406 1215 1399 1229 q 1413 1174 1413 1200 q 1406 1136 1413 1150 q 1374 1122 1399 1122 l 104 1122 z "},"Ĥ":{"ha":1476,"x_min":219,"x_max":1258,"o":"m 281 -19 q 219 19 219 -19 l 219 1511 q 235 1540 219 1531 q 281 1549 250 1549 q 342 1511 342 1549 l 342 854 l 1136 854 l 1136 1511 q 1151 1540 1136 1531 q 1197 1549 1167 1549 q 1258 1511 1258 1549 l 1258 19 q 1243 -10 1258 0 q 1197 -19 1228 -19 q 1136 19 1136 -19 l 1136 743 l 342 743 l 342 19 q 326 -10 342 0 q 281 -19 311 -19 m 519 1611 q 489 1628 507 1611 q 471 1658 471 1644 q 472 1668 471 1663 q 479 1681 472 1674 l 678 1878 q 700 1897 688 1888 q 739 1906 713 1906 q 777 1897 765 1906 q 799 1878 789 1888 l 1000 1681 q 1008 1668 1007 1674 q 1008 1658 1008 1663 q 990 1628 1008 1644 q 958 1611 972 1611 q 943 1616 950 1611 q 925 1629 936 1621 l 739 1767 l 554 1629 q 537 1616 544 1621 q 519 1611 529 1611 z "},"Í":{"ha":563,"x_min":158,"x_max":479,"o":"m 281 -19 q 235 -10 250 -19 q 219 19 219 0 l 219 1511 q 235 1540 219 1531 q 281 1549 250 1549 q 326 1540 311 1549 q 342 1511 342 1531 l 342 19 q 326 -10 342 0 q 281 -19 311 -19 m 210 1611 q 176 1629 193 1611 q 158 1661 158 1647 q 160 1674 158 1668 q 171 1688 163 1679 l 376 1890 q 390 1901 383 1897 q 406 1906 396 1906 q 437 1893 419 1906 q 467 1864 454 1881 q 479 1832 479 1847 q 476 1815 479 1822 q 458 1797 472 1808 l 238 1624 q 222 1615 228 1618 q 210 1611 215 1611 z "},"Ĭ":{"ha":563,"x_min":24,"x_max":539,"o":"m 281 -19 q 235 -10 250 -19 q 219 19 219 0 l 219 1511 q 235 1540 219 1531 q 281 1549 250 1549 q 326 1540 311 1549 q 342 1511 342 1531 l 342 19 q 326 -10 342 0 q 281 -19 311 -19 m 281 1611 q 102 1674 169 1611 q 25 1865 35 1736 q 38 1894 24 1882 q 78 1906 51 1906 q 108 1895 100 1906 q 121 1865 117 1885 q 177 1767 140 1799 q 281 1735 214 1735 q 385 1767 347 1735 q 439 1865 422 1799 q 452 1895 444 1885 q 482 1906 460 1906 q 523 1894 508 1906 q 536 1865 538 1882 q 497 1727 531 1783 q 407 1641 463 1671 q 281 1611 351 1611 z "},"Ǐ":{"ha":563,"x_min":13,"x_max":550,"o":"m 281 -19 q 235 -10 250 -19 q 219 19 219 0 l 219 1511 q 235 1540 219 1531 q 281 1549 250 1549 q 326 1540 311 1549 q 342 1511 342 1531 l 342 19 q 326 -10 342 0 q 281 -19 311 -19 m 501 1906 q 532 1890 514 1906 q 550 1858 550 1874 q 549 1850 550 1856 q 542 1836 549 1844 l 342 1639 q 320 1621 332 1631 q 281 1611 308 1611 q 243 1621 254 1611 q 222 1639 232 1631 l 21 1836 q 13 1850 14 1844 q 13 1858 13 1856 q 31 1890 13 1874 q 61 1906 49 1906 q 78 1901 71 1906 q 96 1889 86 1896 l 281 1750 l 467 1889 q 485 1901 478 1896 q 501 1906 492 1906 z "},"Î":{"ha":563,"x_min":13,"x_max":550,"o":"m 281 -19 q 235 -10 250 -19 q 219 19 219 0 l 219 1511 q 235 1540 219 1531 q 281 1549 250 1549 q 326 1540 311 1549 q 342 1511 342 1531 l 342 19 q 326 -10 342 0 q 281 -19 311 -19 m 61 1611 q 31 1628 49 1611 q 13 1658 13 1644 q 13 1668 13 1663 q 21 1681 14 1674 l 219 1878 q 242 1897 229 1888 q 281 1906 254 1906 q 319 1897 307 1906 q 340 1878 331 1888 l 542 1681 q 549 1668 549 1674 q 550 1658 550 1663 q 532 1628 550 1644 q 500 1611 514 1611 q 485 1616 492 1611 q 467 1629 478 1621 l 281 1767 l 96 1629 q 78 1616 86 1621 q 61 1611 71 1611 z "},"Ï":{"ha":563,"x_min":28,"x_max":535,"o":"m 281 -19 q 235 -10 250 -19 q 219 19 219 0 l 219 1511 q 235 1540 219 1531 q 281 1549 250 1549 q 326 1540 311 1549 q 342 1511 342 1531 l 342 19 q 326 -10 342 0 q 281 -19 311 -19 m 106 1661 q 48 1683 68 1661 q 28 1747 28 1704 q 47 1814 28 1792 q 107 1836 67 1836 q 164 1814 144 1836 q 183 1747 183 1792 q 165 1683 185 1704 q 106 1661 144 1661 m 457 1661 q 399 1683 418 1661 q 379 1747 379 1704 q 399 1814 379 1792 q 457 1836 418 1836 q 514 1814 494 1836 q 533 1747 533 1792 q 515 1683 535 1704 q 457 1661 494 1661 z "},"İ":{"ha":563,"x_min":203,"x_max":358,"o":"m 281 -19 q 235 -10 250 -19 q 219 19 219 0 l 219 1511 q 235 1540 219 1531 q 281 1549 250 1549 q 326 1540 311 1549 q 342 1511 342 1531 l 342 19 q 326 -10 342 0 q 281 -19 311 -19 m 281 1660 q 222 1681 242 1660 q 203 1746 203 1703 q 222 1813 203 1790 q 281 1835 242 1835 q 338 1813 318 1835 q 357 1746 357 1790 q 338 1681 358 1703 q 281 1660 318 1660 z "},"Ì":{"ha":563,"x_min":82,"x_max":404,"o":"m 281 -19 q 235 -10 250 -19 q 219 19 219 0 l 219 1511 q 235 1540 219 1531 q 281 1549 250 1549 q 326 1540 311 1549 q 342 1511 342 1531 l 342 19 q 326 -10 342 0 q 281 -19 311 -19 m 351 1611 q 340 1615 346 1611 q 324 1624 333 1618 l 103 1797 q 86 1815 90 1808 q 82 1832 82 1822 q 94 1864 82 1847 q 125 1893 107 1881 q 156 1906 143 1906 q 172 1901 165 1906 q 185 1890 178 1897 l 390 1688 q 402 1674 400 1679 q 404 1663 404 1668 q 386 1629 404 1647 q 351 1611 368 1611 z "},"Ī":{"ha":563,"x_min":47,"x_max":515,"o":"m 281 -19 q 235 -10 250 -19 q 219 19 219 0 l 219 1511 q 235 1540 219 1531 q 281 1549 250 1549 q 326 1540 311 1549 q 342 1511 342 1531 l 342 19 q 326 -10 342 0 q 281 -19 311 -19 m 85 1697 q 54 1713 61 1697 q 47 1754 47 1729 q 54 1798 47 1781 q 85 1815 61 1815 l 478 1815 q 509 1798 503 1815 q 515 1754 515 1781 q 509 1713 515 1729 q 478 1697 503 1697 l 85 1697 z "},"Į":{"ha":563,"x_min":60,"x_max":382,"o":"m 281 -19 q 235 -10 250 -19 q 219 19 219 0 l 219 1511 q 235 1540 219 1531 q 281 1549 250 1549 q 326 1540 311 1549 q 342 1511 342 1531 l 342 19 q 326 -10 342 0 q 281 -19 311 -19 m 178 -362 q 92 -332 124 -362 q 60 -251 60 -301 q 72 -189 60 -219 q 106 -126 83 -158 q 164 -57 129 -93 q 244 21 199 -21 l 331 19 l 331 10 q 274 -51 301 -19 q 224 -112 246 -82 q 188 -168 201 -142 q 175 -217 175 -194 q 183 -247 175 -235 q 211 -258 192 -258 q 255 -240 235 -258 q 297 -196 275 -221 q 318 -185 306 -189 q 349 -192 331 -181 q 374 -219 365 -201 q 374 -251 382 -237 q 318 -314 353 -289 q 247 -351 283 -339 q 178 -362 210 -362 z "},"Ĩ":{"ha":563,"x_min":19,"x_max":538,"o":"m 281 -19 q 235 -10 250 -19 q 219 19 219 0 l 219 1511 q 235 1540 219 1531 q 281 1549 250 1549 q 326 1540 311 1549 q 342 1511 342 1531 l 342 19 q 326 -10 342 0 q 281 -19 311 -19 m 67 1651 q 19 1689 19 1651 q 53 1824 21 1782 q 149 1865 86 1865 q 228 1851 192 1865 q 294 1817 264 1836 q 351 1783 325 1797 q 401 1768 378 1768 q 429 1787 419 1768 q 440 1838 439 1806 q 488 1867 442 1867 q 526 1858 514 1867 q 538 1829 538 1849 q 505 1700 536 1746 q 406 1654 474 1654 q 325 1669 363 1654 q 257 1702 288 1683 q 201 1735 226 1721 q 153 1750 175 1750 q 128 1736 136 1750 q 117 1689 119 1722 q 103 1661 115 1671 q 67 1651 90 1651 z "},"Ị":{"ha":563,"x_min":203,"x_max":358,"o":"m 281 -19 q 235 -10 250 -19 q 219 19 219 0 l 219 1511 q 235 1540 219 1531 q 281 1549 250 1549 q 326 1540 311 1549 q 342 1511 342 1531 l 342 19 q 326 -10 342 0 q 281 -19 311 -19 m 281 -326 q 222 -305 242 -326 q 203 -239 203 -283 q 222 -173 203 -194 q 281 -151 242 -151 q 338 -173 318 -151 q 357 -239 357 -194 q 338 -305 358 -283 q 281 -326 318 -326 z "},"Ỉ":{"ha":563,"x_min":122,"x_max":449,"o":"m 281 -19 q 235 -10 250 -19 q 219 19 219 0 l 219 1511 q 235 1540 219 1531 q 281 1549 250 1549 q 326 1540 311 1549 q 342 1511 342 1531 l 342 19 q 326 -10 342 0 q 281 -19 311 -19 m 297 1943 q 407 1910 365 1943 q 449 1822 449 1876 q 432 1759 449 1786 q 376 1703 415 1732 q 351 1678 358 1689 q 347 1653 344 1667 l 349 1643 q 341 1617 353 1628 q 311 1601 329 1606 q 277 1601 293 1597 q 254 1619 261 1606 l 239 1657 q 240 1716 228 1689 q 282 1765 251 1743 q 310 1790 301 1779 q 318 1813 318 1801 q 306 1833 318 1824 q 275 1842 294 1842 q 232 1835 254 1842 q 197 1819 210 1829 q 139 1842 164 1799 q 147 1896 122 1874 q 216 1930 176 1917 q 297 1943 256 1943 z "},"Ĵ":{"ha":1081,"x_min":67,"x_max":1101,"o":"m 494 -26 q 314 8 396 -26 q 171 110 232 43 q 75 275 110 178 q 78 308 67 297 q 108 325 90 318 q 147 333 131 335 q 171 314 164 332 q 250 190 207 239 q 352 116 293 140 q 494 92 411 92 q 606 110 558 92 q 685 160 653 128 q 735 238 717 193 q 763 338 754 283 q 771 453 771 392 l 771 1511 q 786 1540 771 1531 q 832 1549 801 1549 q 878 1540 863 1549 q 893 1511 893 1531 l 893 453 q 879 304 893 375 q 837 173 865 233 q 761 68 808 113 q 648 -1 714 24 q 494 -26 582 -26 m 613 1611 q 582 1628 600 1611 q 564 1658 564 1644 q 565 1668 564 1663 q 572 1681 565 1674 l 771 1878 q 793 1897 781 1888 q 832 1906 806 1906 q 870 1897 858 1906 q 892 1878 882 1888 l 1093 1681 q 1101 1668 1100 1674 q 1101 1658 1101 1663 q 1083 1628 1101 1644 q 1051 1611 1065 1611 q 1036 1616 1043 1611 q 1018 1629 1029 1621 l 832 1767 l 647 1629 q 630 1616 638 1621 q 613 1611 622 1611 z "},"Ķ":{"ha":1144,"x_min":219,"x_max":1118,"o":"m 281 -19 q 235 -9 250 -19 q 219 22 219 1 l 219 1511 q 281 1549 219 1549 q 342 1511 342 1549 l 342 867 l 1011 1536 q 1044 1549 1029 1554 q 1078 1525 1060 1544 q 1099 1488 1097 1503 q 1086 1460 1100 1474 l 432 803 q 661 514 551 646 q 878 274 771 382 q 1094 75 986 165 q 1114 42 1110 63 q 1092 -6 1118 21 q 1054 -23 1074 -22 q 1014 -7 1035 -24 q 833 157 924 67 q 656 345 742 247 q 490 544 569 443 q 342 744 411 646 l 342 22 q 327 -9 342 1 q 281 -19 313 -19 m 556 -404 q 535 -386 539 -397 q 538 -354 531 -375 q 563 -281 554 -311 q 573 -219 571 -250 q 575 -146 575 -187 q 588 -112 575 -122 q 628 -103 601 -103 q 677 -118 660 -103 q 694 -160 694 -133 q 685 -233 694 -194 q 658 -310 675 -272 q 619 -382 642 -349 q 592 -408 606 -404 q 556 -404 578 -412 z "},"Ĺ":{"ha":1040,"x_min":158,"x_max":999,"o":"m 281 0 q 219 56 219 0 l 219 1511 q 235 1540 219 1531 q 281 1549 250 1549 q 326 1540 311 1549 q 342 1511 342 1531 l 342 111 l 961 111 q 990 99 982 111 q 999 56 999 88 q 990 13 999 25 q 961 0 982 0 l 281 0 m 210 1611 q 176 1629 193 1611 q 158 1661 158 1647 q 160 1674 158 1668 q 171 1688 163 1679 l 376 1890 q 390 1901 383 1897 q 406 1906 396 1906 q 437 1893 419 1906 q 467 1864 454 1881 q 479 1832 479 1847 q 476 1815 479 1822 q 458 1797 472 1808 l 238 1624 q 222 1615 228 1618 q 210 1611 215 1611 z "},"Ľ":{"ha":1040,"x_min":219,"x_max":999,"o":"m 281 0 q 219 56 219 0 l 219 1511 q 235 1540 219 1531 q 281 1549 250 1549 q 326 1540 311 1549 q 342 1511 342 1531 l 342 111 l 961 111 q 990 99 982 111 q 999 56 999 88 q 990 13 999 25 q 961 0 982 0 l 281 0 m 508 1210 q 476 1228 485 1218 q 474 1256 468 1238 q 491 1333 483 1286 q 504 1430 499 1381 q 511 1514 510 1479 q 524 1539 511 1529 q 571 1549 538 1549 q 621 1539 606 1549 q 636 1514 636 1529 q 624 1423 635 1476 q 597 1316 613 1369 q 563 1224 581 1263 q 548 1207 557 1214 q 508 1210 539 1200 z "},"Ļ":{"ha":1040,"x_min":219,"x_max":999,"o":"m 281 0 q 219 56 219 0 l 219 1511 q 235 1540 219 1531 q 281 1549 250 1549 q 326 1540 311 1549 q 342 1511 342 1531 l 342 111 l 961 111 q 990 99 982 111 q 999 56 999 88 q 990 13 999 25 q 961 0 982 0 l 281 0 m 546 -404 q 525 -386 529 -397 q 528 -354 521 -375 q 553 -281 544 -311 q 563 -219 561 -250 q 565 -146 565 -187 q 578 -112 565 -122 q 618 -103 592 -103 q 667 -118 650 -103 q 685 -160 685 -133 q 675 -233 685 -194 q 649 -310 665 -272 q 610 -382 632 -349 q 582 -408 596 -404 q 546 -404 568 -412 z "},"Ŀ":{"ha":1040,"x_min":219,"x_max":999,"o":"m 281 0 q 219 56 219 0 l 219 1511 q 235 1540 219 1531 q 281 1549 250 1549 q 326 1540 311 1549 q 342 1511 342 1531 l 342 111 l 961 111 q 990 99 982 111 q 999 56 999 88 q 990 13 999 25 q 961 0 982 0 l 281 0 m 774 694 q 715 716 735 694 q 696 782 696 738 q 715 848 696 826 q 774 869 735 869 q 831 848 811 869 q 850 782 850 826 q 831 716 851 738 q 774 694 811 694 z "},"Ł":{"ha":1040,"x_min":39,"x_max":999,"o":"m 281 0 q 219 56 219 0 l 219 1511 q 235 1540 219 1531 q 281 1549 250 1549 q 326 1540 311 1549 q 342 1511 342 1531 l 342 111 l 961 111 q 990 99 982 111 q 999 56 999 88 q 990 13 999 25 q 961 0 982 0 l 281 0 m 113 631 q 78 626 94 621 q 49 653 63 631 q 40 688 40 669 q 58 717 39 707 l 560 993 q 592 1000 579 1004 q 618 978 604 996 q 617 913 649 931 l 113 631 z "},"Ń":{"ha":1476,"x_min":219,"x_max":1258,"o":"m 281 -19 q 219 19 219 -19 l 219 1511 q 235 1540 219 1531 q 281 1549 250 1549 q 321 1540 306 1549 q 350 1511 336 1531 l 1136 244 l 1136 1511 q 1151 1540 1136 1531 q 1197 1549 1167 1549 q 1258 1511 1258 1549 l 1258 19 q 1243 -10 1258 0 q 1199 -19 1228 -19 q 1164 -12 1176 -19 q 1136 19 1151 -6 l 342 1300 l 342 19 q 326 -10 342 0 q 281 -19 311 -19 m 668 1611 q 634 1629 651 1611 q 617 1661 617 1647 q 619 1674 617 1668 q 629 1688 621 1679 l 835 1890 q 848 1901 842 1897 q 864 1906 854 1906 q 895 1893 878 1906 q 925 1864 913 1881 q 938 1832 938 1847 q 934 1815 938 1822 q 917 1797 931 1808 l 696 1624 q 680 1615 686 1618 q 668 1611 674 1611 z "},"Ň":{"ha":1476,"x_min":219,"x_max":1258,"o":"m 281 -19 q 219 19 219 -19 l 219 1511 q 235 1540 219 1531 q 281 1549 250 1549 q 321 1540 306 1549 q 350 1511 336 1531 l 1136 244 l 1136 1511 q 1151 1540 1136 1531 q 1197 1549 1167 1549 q 1258 1511 1258 1549 l 1258 19 q 1243 -10 1258 0 q 1199 -19 1228 -19 q 1164 -12 1176 -19 q 1136 19 1151 -6 l 342 1300 l 342 19 q 326 -10 342 0 q 281 -19 311 -19 m 960 1906 q 990 1890 972 1906 q 1008 1858 1008 1874 q 1008 1850 1008 1856 q 1000 1836 1007 1844 l 800 1639 q 778 1621 790 1631 q 739 1611 767 1611 q 701 1621 713 1611 q 681 1639 690 1631 l 479 1836 q 472 1850 472 1844 q 471 1858 471 1856 q 489 1890 471 1874 q 519 1906 507 1906 q 537 1901 529 1906 q 554 1889 544 1896 l 739 1750 l 925 1889 q 943 1901 936 1896 q 960 1906 950 1906 z "},"Ņ":{"ha":1476,"x_min":219,"x_max":1258,"o":"m 281 -19 q 219 19 219 -19 l 219 1511 q 235 1540 219 1531 q 281 1549 250 1549 q 321 1540 306 1549 q 350 1511 336 1531 l 1136 244 l 1136 1511 q 1151 1540 1136 1531 q 1197 1549 1167 1549 q 1258 1511 1258 1549 l 1258 19 q 1243 -10 1258 0 q 1199 -19 1228 -19 q 1164 -12 1176 -19 q 1136 19 1151 -6 l 342 1300 l 342 19 q 326 -10 342 0 q 281 -19 311 -19 m 661 -404 q 640 -386 644 -397 q 643 -354 636 -375 q 668 -281 660 -311 q 678 -219 676 -250 q 681 -146 681 -187 q 694 -112 681 -122 q 733 -103 707 -103 q 783 -118 765 -103 q 800 -160 800 -133 q 790 -233 800 -194 q 764 -310 781 -272 q 725 -382 747 -349 q 697 -408 711 -404 q 661 -404 683 -412 z "},"Ñ":{"ha":1476,"x_min":219,"x_max":1258,"o":"m 281 -19 q 219 19 219 -19 l 219 1511 q 235 1540 219 1531 q 281 1549 250 1549 q 321 1540 306 1549 q 350 1511 336 1531 l 1136 244 l 1136 1511 q 1151 1540 1136 1531 q 1197 1549 1167 1549 q 1258 1511 1258 1549 l 1258 19 q 1243 -10 1258 0 q 1199 -19 1228 -19 q 1164 -12 1176 -19 q 1136 19 1151 -6 l 342 1300 l 342 19 q 326 -10 342 0 q 281 -19 311 -19 m 525 1651 q 478 1689 478 1651 q 512 1824 479 1782 q 607 1865 544 1865 q 686 1851 650 1865 q 753 1817 722 1836 q 810 1783 783 1797 q 860 1768 836 1768 q 888 1787 878 1768 q 899 1838 897 1806 q 946 1867 900 1867 q 984 1858 972 1867 q 996 1829 996 1849 q 963 1700 994 1746 q 864 1654 932 1654 q 783 1669 821 1654 q 715 1702 746 1683 q 659 1735 685 1721 q 611 1750 633 1750 q 586 1736 594 1750 q 575 1689 578 1722 q 561 1661 574 1671 q 525 1651 549 1651 z "},"Ó":{"ha":1539,"x_min":142,"x_max":1399,"o":"m 772 -26 q 512 31 628 -26 q 313 194 396 89 q 186 443 231 299 q 142 763 142 588 q 161 982 142 879 q 219 1173 181 1085 q 313 1330 257 1261 q 438 1448 368 1399 q 592 1523 508 1497 q 772 1549 676 1549 q 1031 1492 915 1549 q 1228 1330 1146 1435 q 1354 1081 1310 1225 q 1399 763 1399 936 q 1378 542 1399 646 q 1320 351 1358 439 q 1228 193 1282 263 q 1103 74 1174 124 q 950 -1 1033 25 q 772 -26 867 -26 m 772 92 q 910 113 846 92 q 1031 173 975 133 q 1130 270 1086 213 q 1205 403 1174 328 q 1252 568 1236 478 q 1268 763 1268 658 q 1232 1040 1268 917 q 1130 1251 1196 1164 q 973 1385 1064 1339 q 772 1431 882 1431 q 632 1410 697 1431 q 510 1349 567 1389 q 410 1252 454 1310 q 335 1119 367 1194 q 287 956 303 1044 q 271 763 271 867 q 308 483 271 607 q 410 271 344 358 q 569 138 476 183 q 772 92 661 92 m 700 1611 q 666 1629 683 1611 q 649 1661 649 1647 q 651 1674 649 1668 q 661 1688 653 1679 l 867 1890 q 880 1901 874 1897 q 896 1906 886 1906 q 927 1893 910 1906 q 957 1864 944 1881 q 969 1832 969 1847 q 966 1815 969 1822 q 949 1797 963 1808 l 728 1624 q 712 1615 718 1618 q 700 1611 706 1611 z "},"Ŏ":{"ha":1539,"x_min":142,"x_max":1399,"o":"m 772 -26 q 512 31 628 -26 q 313 194 396 89 q 186 443 231 299 q 142 763 142 588 q 161 982 142 879 q 219 1173 181 1085 q 313 1330 257 1261 q 438 1448 368 1399 q 592 1523 508 1497 q 772 1549 676 1549 q 1031 1492 915 1549 q 1228 1330 1146 1435 q 1354 1081 1310 1225 q 1399 763 1399 936 q 1378 542 1399 646 q 1320 351 1358 439 q 1228 193 1282 263 q 1103 74 1174 124 q 950 -1 1033 25 q 772 -26 867 -26 m 772 92 q 910 113 846 92 q 1031 173 975 133 q 1130 270 1086 213 q 1205 403 1174 328 q 1252 568 1236 478 q 1268 763 1268 658 q 1232 1040 1268 917 q 1130 1251 1196 1164 q 973 1385 1064 1339 q 772 1431 882 1431 q 632 1410 697 1431 q 510 1349 567 1389 q 410 1252 454 1310 q 335 1119 367 1194 q 287 956 303 1044 q 271 763 271 867 q 308 483 271 607 q 410 271 344 358 q 569 138 476 183 q 772 92 661 92 m 771 1611 q 592 1674 660 1611 q 515 1865 525 1736 q 528 1894 514 1882 q 568 1906 542 1906 q 599 1895 590 1906 q 611 1865 607 1885 q 667 1767 631 1799 q 771 1735 704 1735 q 875 1767 838 1735 q 929 1865 913 1799 q 942 1895 935 1885 q 972 1906 950 1906 q 1013 1894 999 1906 q 1026 1865 1028 1882 q 987 1727 1021 1783 q 897 1641 953 1671 q 771 1611 842 1611 z "},"Ǒ":{"ha":1539,"x_min":142,"x_max":1399,"o":"m 772 -26 q 512 31 628 -26 q 313 194 396 89 q 186 443 231 299 q 142 763 142 588 q 161 982 142 879 q 219 1173 181 1085 q 313 1330 257 1261 q 438 1448 368 1399 q 592 1523 508 1497 q 772 1549 676 1549 q 1031 1492 915 1549 q 1228 1330 1146 1435 q 1354 1081 1310 1225 q 1399 763 1399 936 q 1378 542 1399 646 q 1320 351 1358 439 q 1228 193 1282 263 q 1103 74 1174 124 q 950 -1 1033 25 q 772 -26 867 -26 m 772 92 q 910 113 846 92 q 1031 173 975 133 q 1130 270 1086 213 q 1205 403 1174 328 q 1252 568 1236 478 q 1268 763 1268 658 q 1232 1040 1268 917 q 1130 1251 1196 1164 q 973 1385 1064 1339 q 772 1431 882 1431 q 632 1410 697 1431 q 510 1349 567 1389 q 410 1252 454 1310 q 335 1119 367 1194 q 287 956 303 1044 q 271 763 271 867 q 308 483 271 607 q 410 271 344 358 q 569 138 476 183 q 772 92 661 92 m 992 1906 q 1022 1890 1004 1906 q 1040 1858 1040 1874 q 1040 1850 1040 1856 q 1032 1836 1039 1844 l 832 1639 q 810 1621 822 1631 q 771 1611 799 1611 q 733 1621 744 1611 q 713 1639 722 1631 l 511 1836 q 503 1850 504 1844 q 503 1858 503 1856 q 521 1890 503 1874 q 551 1906 539 1906 q 569 1901 561 1906 q 586 1889 576 1896 l 771 1750 l 957 1889 q 975 1901 968 1896 q 992 1906 982 1906 z "},"Ô":{"ha":1539,"x_min":142,"x_max":1399,"o":"m 772 -26 q 512 31 628 -26 q 313 194 396 89 q 186 443 231 299 q 142 763 142 588 q 161 982 142 879 q 219 1173 181 1085 q 313 1330 257 1261 q 438 1448 368 1399 q 592 1523 508 1497 q 772 1549 676 1549 q 1031 1492 915 1549 q 1228 1330 1146 1435 q 1354 1081 1310 1225 q 1399 763 1399 936 q 1378 542 1399 646 q 1320 351 1358 439 q 1228 193 1282 263 q 1103 74 1174 124 q 950 -1 1033 25 q 772 -26 867 -26 m 772 92 q 910 113 846 92 q 1031 173 975 133 q 1130 270 1086 213 q 1205 403 1174 328 q 1252 568 1236 478 q 1268 763 1268 658 q 1232 1040 1268 917 q 1130 1251 1196 1164 q 973 1385 1064 1339 q 772 1431 882 1431 q 632 1410 697 1431 q 510 1349 567 1389 q 410 1252 454 1310 q 335 1119 367 1194 q 287 956 303 1044 q 271 763 271 867 q 308 483 271 607 q 410 271 344 358 q 569 138 476 183 q 772 92 661 92 m 551 1611 q 521 1628 539 1611 q 503 1658 503 1644 q 503 1668 503 1663 q 511 1681 504 1674 l 710 1878 q 732 1897 719 1888 q 771 1906 744 1906 q 809 1897 797 1906 q 831 1878 821 1888 l 1032 1681 q 1040 1668 1039 1674 q 1040 1658 1040 1663 q 1022 1628 1040 1644 q 990 1611 1004 1611 q 975 1616 982 1611 q 957 1629 968 1621 l 771 1767 l 586 1629 q 569 1616 576 1621 q 551 1611 561 1611 z "},"Ö":{"ha":1539,"x_min":142,"x_max":1399,"o":"m 772 -26 q 512 31 628 -26 q 313 194 396 89 q 186 443 231 299 q 142 763 142 588 q 161 982 142 879 q 219 1173 181 1085 q 313 1330 257 1261 q 438 1448 368 1399 q 592 1523 508 1497 q 772 1549 676 1549 q 1031 1492 915 1549 q 1228 1330 1146 1435 q 1354 1081 1310 1225 q 1399 763 1399 936 q 1378 542 1399 646 q 1320 351 1358 439 q 1228 193 1282 263 q 1103 74 1174 124 q 950 -1 1033 25 q 772 -26 867 -26 m 772 92 q 910 113 846 92 q 1031 173 975 133 q 1130 270 1086 213 q 1205 403 1174 328 q 1252 568 1236 478 q 1268 763 1268 658 q 1232 1040 1268 917 q 1130 1251 1196 1164 q 973 1385 1064 1339 q 772 1431 882 1431 q 632 1410 697 1431 q 510 1349 567 1389 q 410 1252 454 1310 q 335 1119 367 1194 q 287 956 303 1044 q 271 763 271 867 q 308 483 271 607 q 410 271 344 358 q 569 138 476 183 q 772 92 661 92 m 596 1661 q 538 1683 558 1661 q 518 1747 518 1704 q 538 1814 518 1792 q 597 1836 557 1836 q 654 1814 635 1836 q 674 1747 674 1792 q 655 1683 675 1704 q 596 1661 635 1661 m 947 1661 q 889 1683 908 1661 q 869 1747 869 1704 q 889 1814 869 1792 q 947 1836 908 1836 q 1004 1814 985 1836 q 1024 1747 1024 1792 q 1005 1683 1025 1704 q 947 1661 985 1661 z "},"Ò":{"ha":1539,"x_min":142,"x_max":1399,"o":"m 772 -26 q 512 31 628 -26 q 313 194 396 89 q 186 443 231 299 q 142 763 142 588 q 161 982 142 879 q 219 1173 181 1085 q 313 1330 257 1261 q 438 1448 368 1399 q 592 1523 508 1497 q 772 1549 676 1549 q 1031 1492 915 1549 q 1228 1330 1146 1435 q 1354 1081 1310 1225 q 1399 763 1399 936 q 1378 542 1399 646 q 1320 351 1358 439 q 1228 193 1282 263 q 1103 74 1174 124 q 950 -1 1033 25 q 772 -26 867 -26 m 772 92 q 910 113 846 92 q 1031 173 975 133 q 1130 270 1086 213 q 1205 403 1174 328 q 1252 568 1236 478 q 1268 763 1268 658 q 1232 1040 1268 917 q 1130 1251 1196 1164 q 973 1385 1064 1339 q 772 1431 882 1431 q 632 1410 697 1431 q 510 1349 567 1389 q 410 1252 454 1310 q 335 1119 367 1194 q 287 956 303 1044 q 271 763 271 867 q 308 483 271 607 q 410 271 344 358 q 569 138 476 183 q 772 92 661 92 m 842 1611 q 830 1615 836 1611 q 814 1624 824 1618 l 593 1797 q 576 1815 581 1808 q 572 1832 572 1822 q 585 1864 572 1847 q 615 1893 597 1881 q 646 1906 633 1906 q 662 1901 656 1906 q 675 1890 668 1897 l 881 1688 q 892 1674 890 1679 q 894 1663 894 1668 q 876 1629 894 1647 q 842 1611 858 1611 z "},"Ő":{"ha":1539,"x_min":142,"x_max":1399,"o":"m 772 -26 q 512 31 628 -26 q 313 194 396 89 q 186 443 231 299 q 142 763 142 588 q 161 982 142 879 q 219 1173 181 1085 q 313 1330 257 1261 q 438 1448 368 1399 q 592 1523 508 1497 q 772 1549 676 1549 q 1031 1492 915 1549 q 1228 1330 1146 1435 q 1354 1081 1310 1225 q 1399 763 1399 936 q 1378 542 1399 646 q 1320 351 1358 439 q 1228 193 1282 263 q 1103 74 1174 124 q 950 -1 1033 25 q 772 -26 867 -26 m 772 92 q 910 113 846 92 q 1031 173 975 133 q 1130 270 1086 213 q 1205 403 1174 328 q 1252 568 1236 478 q 1268 763 1268 658 q 1232 1040 1268 917 q 1130 1251 1196 1164 q 973 1385 1064 1339 q 772 1431 882 1431 q 632 1410 697 1431 q 510 1349 567 1389 q 410 1252 454 1310 q 335 1119 367 1194 q 287 956 303 1044 q 271 763 271 867 q 308 483 271 607 q 410 271 344 358 q 569 138 476 183 q 772 92 661 92 m 632 1611 q 599 1629 617 1611 q 581 1663 581 1647 q 583 1673 581 1668 q 593 1688 585 1678 l 776 1890 q 791 1901 783 1897 q 807 1906 799 1906 q 838 1894 822 1906 q 865 1865 854 1882 q 876 1833 876 1849 q 874 1817 876 1824 q 856 1799 871 1810 l 660 1624 q 644 1615 651 1618 q 632 1611 638 1611 m 907 1611 q 872 1629 890 1611 q 854 1663 854 1647 q 856 1674 854 1668 q 868 1688 858 1679 l 1056 1890 q 1069 1901 1063 1897 q 1086 1906 1076 1906 q 1117 1894 1101 1906 q 1144 1865 1133 1882 q 1156 1833 1156 1849 q 1152 1817 1156 1824 q 1135 1799 1149 1810 l 933 1624 q 919 1615 925 1618 q 907 1611 913 1611 z "},"Ō":{"ha":1539,"x_min":142,"x_max":1399,"o":"m 772 -26 q 512 31 628 -26 q 313 194 396 89 q 186 443 231 299 q 142 763 142 588 q 161 982 142 879 q 219 1173 181 1085 q 313 1330 257 1261 q 438 1448 368 1399 q 592 1523 508 1497 q 772 1549 676 1549 q 1031 1492 915 1549 q 1228 1330 1146 1435 q 1354 1081 1310 1225 q 1399 763 1399 936 q 1378 542 1399 646 q 1320 351 1358 439 q 1228 193 1282 263 q 1103 74 1174 124 q 950 -1 1033 25 q 772 -26 867 -26 m 772 92 q 910 113 846 92 q 1031 173 975 133 q 1130 270 1086 213 q 1205 403 1174 328 q 1252 568 1236 478 q 1268 763 1268 658 q 1232 1040 1268 917 q 1130 1251 1196 1164 q 973 1385 1064 1339 q 772 1431 882 1431 q 632 1410 697 1431 q 510 1349 567 1389 q 410 1252 454 1310 q 335 1119 367 1194 q 287 956 303 1044 q 271 763 271 867 q 308 483 271 607 q 410 271 344 358 q 569 138 476 183 q 772 92 661 92 m 575 1697 q 544 1713 551 1697 q 538 1754 538 1729 q 544 1798 538 1781 q 575 1815 551 1815 l 968 1815 q 999 1798 993 1815 q 1006 1754 1006 1781 q 999 1713 1006 1729 q 968 1697 993 1697 l 575 1697 z "},"Ø":{"ha":1539,"x_min":142,"x_max":1399,"o":"m 772 -26 q 512 31 628 -26 q 313 194 396 89 q 186 443 231 299 q 142 763 142 588 q 161 982 142 879 q 219 1173 181 1085 q 313 1330 257 1261 q 438 1448 368 1399 q 592 1523 508 1497 q 772 1549 676 1549 q 1031 1492 915 1549 q 1228 1330 1146 1435 q 1354 1081 1310 1225 q 1399 763 1399 936 q 1378 542 1399 646 q 1320 351 1358 439 q 1228 193 1282 263 q 1103 74 1174 124 q 950 -1 1033 25 q 772 -26 867 -26 m 772 92 q 910 113 846 92 q 1031 173 975 133 q 1130 270 1086 213 q 1205 403 1174 328 q 1252 568 1236 478 q 1268 763 1268 658 q 1232 1040 1268 917 q 1130 1251 1196 1164 q 973 1385 1064 1339 q 772 1431 882 1431 q 632 1410 697 1431 q 510 1349 567 1389 q 410 1252 454 1310 q 335 1119 367 1194 q 287 956 303 1044 q 271 763 271 867 q 308 483 271 607 q 410 271 344 358 q 569 138 476 183 q 772 92 661 92 m 347 -90 q 319 -114 338 -106 q 271 -106 300 -122 q 244 -37 221 -79 l 1196 1589 q 1226 1610 1207 1606 q 1272 1603 1246 1615 q 1301 1574 1293 1593 q 1296 1533 1308 1554 l 347 -90 z "},"Õ":{"ha":1539,"x_min":142,"x_max":1399,"o":"m 772 -26 q 512 31 628 -26 q 313 194 396 89 q 186 443 231 299 q 142 763 142 588 q 161 982 142 879 q 219 1173 181 1085 q 313 1330 257 1261 q 438 1448 368 1399 q 592 1523 508 1497 q 772 1549 676 1549 q 1031 1492 915 1549 q 1228 1330 1146 1435 q 1354 1081 1310 1225 q 1399 763 1399 936 q 1378 542 1399 646 q 1320 351 1358 439 q 1228 193 1282 263 q 1103 74 1174 124 q 950 -1 1033 25 q 772 -26 867 -26 m 772 92 q 910 113 846 92 q 1031 173 975 133 q 1130 270 1086 213 q 1205 403 1174 328 q 1252 568 1236 478 q 1268 763 1268 658 q 1232 1040 1268 917 q 1130 1251 1196 1164 q 973 1385 1064 1339 q 772 1431 882 1431 q 632 1410 697 1431 q 510 1349 567 1389 q 410 1252 454 1310 q 335 1119 367 1194 q 287 956 303 1044 q 271 763 271 867 q 308 483 271 607 q 410 271 344 358 q 569 138 476 183 q 772 92 661 92 m 557 1651 q 510 1689 510 1651 q 544 1824 511 1782 q 639 1865 576 1865 q 718 1851 682 1865 q 785 1817 754 1836 q 842 1783 815 1797 q 892 1768 868 1768 q 919 1787 910 1768 q 931 1838 929 1806 q 978 1867 932 1867 q 1016 1858 1004 1867 q 1028 1829 1028 1849 q 995 1700 1026 1746 q 896 1654 964 1654 q 815 1669 853 1654 q 747 1702 778 1683 q 691 1735 717 1721 q 643 1750 665 1750 q 618 1736 626 1750 q 607 1689 610 1722 q 593 1661 606 1671 q 557 1651 581 1651 z "},"Ố":{"ha":1539,"x_min":142,"x_max":1399,"o":"m 772 -26 q 512 31 628 -26 q 313 194 396 89 q 186 443 231 299 q 142 763 142 588 q 161 982 142 879 q 219 1173 181 1085 q 313 1330 257 1261 q 438 1448 368 1399 q 592 1523 508 1497 q 772 1549 676 1549 q 1031 1492 915 1549 q 1228 1330 1146 1435 q 1354 1081 1310 1225 q 1399 763 1399 936 q 1378 542 1399 646 q 1320 351 1358 439 q 1228 193 1282 263 q 1103 74 1174 124 q 950 -1 1033 25 q 772 -26 867 -26 m 772 92 q 910 113 846 92 q 1031 173 975 133 q 1130 270 1086 213 q 1205 403 1174 328 q 1252 568 1236 478 q 1268 763 1268 658 q 1232 1040 1268 917 q 1130 1251 1196 1164 q 973 1385 1064 1339 q 772 1431 882 1431 q 632 1410 697 1431 q 510 1349 567 1389 q 410 1252 454 1310 q 335 1119 367 1194 q 287 956 303 1044 q 271 763 271 867 q 308 483 271 607 q 410 271 344 358 q 569 138 476 183 q 772 92 661 92 m 551 1611 q 521 1628 539 1611 q 503 1658 503 1644 q 503 1668 503 1663 q 511 1681 504 1674 l 710 1878 q 732 1897 719 1888 q 771 1906 744 1906 q 809 1897 797 1906 q 831 1878 821 1888 l 1032 1681 q 1040 1668 1039 1674 q 1040 1658 1040 1663 q 1022 1628 1040 1644 q 990 1611 1004 1611 q 975 1616 982 1611 q 957 1629 968 1621 l 771 1767 l 586 1629 q 569 1616 576 1621 q 551 1611 561 1611 m 996 1832 q 962 1850 979 1832 q 944 1882 944 1868 q 947 1894 944 1889 q 957 1908 949 1899 l 1149 2094 q 1162 2106 1156 2101 q 1178 2111 1168 2111 q 1208 2099 1192 2111 q 1238 2069 1225 2086 q 1250 2036 1250 2051 q 1247 2020 1250 2026 q 1229 2001 1244 2014 l 1024 1844 q 1008 1835 1015 1839 q 996 1832 1001 1832 z "},"Ộ":{"ha":1539,"x_min":142,"x_max":1399,"o":"m 772 -26 q 512 31 628 -26 q 313 194 396 89 q 186 443 231 299 q 142 763 142 588 q 161 982 142 879 q 219 1173 181 1085 q 313 1330 257 1261 q 438 1448 368 1399 q 592 1523 508 1497 q 772 1549 676 1549 q 1031 1492 915 1549 q 1228 1330 1146 1435 q 1354 1081 1310 1225 q 1399 763 1399 936 q 1378 542 1399 646 q 1320 351 1358 439 q 1228 193 1282 263 q 1103 74 1174 124 q 950 -1 1033 25 q 772 -26 867 -26 m 772 92 q 910 113 846 92 q 1031 173 975 133 q 1130 270 1086 213 q 1205 403 1174 328 q 1252 568 1236 478 q 1268 763 1268 658 q 1232 1040 1268 917 q 1130 1251 1196 1164 q 973 1385 1064 1339 q 772 1431 882 1431 q 632 1410 697 1431 q 510 1349 567 1389 q 410 1252 454 1310 q 335 1119 367 1194 q 287 956 303 1044 q 271 763 271 867 q 308 483 271 607 q 410 271 344 358 q 569 138 476 183 q 772 92 661 92 m 771 -326 q 713 -305 732 -326 q 693 -239 693 -283 q 713 -173 693 -194 q 771 -151 732 -151 q 828 -173 808 -151 q 847 -239 847 -194 q 828 -305 849 -283 q 771 -326 808 -326 m 551 1611 q 521 1628 539 1611 q 503 1658 503 1644 q 503 1668 503 1663 q 511 1681 504 1674 l 710 1878 q 732 1897 719 1888 q 771 1906 744 1906 q 809 1897 797 1906 q 831 1878 821 1888 l 1032 1681 q 1040 1668 1039 1674 q 1040 1658 1040 1663 q 1022 1628 1040 1644 q 990 1611 1004 1611 q 975 1616 982 1611 q 957 1629 968 1621 l 771 1767 l 586 1629 q 569 1616 576 1621 q 551 1611 561 1611 z "},"Ồ":{"ha":1539,"x_min":142,"x_max":1399,"o":"m 772 -26 q 512 31 628 -26 q 313 194 396 89 q 186 443 231 299 q 142 763 142 588 q 161 982 142 879 q 219 1173 181 1085 q 313 1330 257 1261 q 438 1448 368 1399 q 592 1523 508 1497 q 772 1549 676 1549 q 1031 1492 915 1549 q 1228 1330 1146 1435 q 1354 1081 1310 1225 q 1399 763 1399 936 q 1378 542 1399 646 q 1320 351 1358 439 q 1228 193 1282 263 q 1103 74 1174 124 q 950 -1 1033 25 q 772 -26 867 -26 m 772 92 q 910 113 846 92 q 1031 173 975 133 q 1130 270 1086 213 q 1205 403 1174 328 q 1252 568 1236 478 q 1268 763 1268 658 q 1232 1040 1268 917 q 1130 1251 1196 1164 q 973 1385 1064 1339 q 772 1431 882 1431 q 632 1410 697 1431 q 510 1349 567 1389 q 410 1252 454 1310 q 335 1119 367 1194 q 287 956 303 1044 q 271 763 271 867 q 308 483 271 607 q 410 271 344 358 q 569 138 476 183 q 772 92 661 92 m 551 1611 q 521 1628 539 1611 q 503 1658 503 1644 q 503 1668 503 1663 q 511 1681 504 1674 l 710 1878 q 732 1897 719 1888 q 771 1906 744 1906 q 809 1897 797 1906 q 831 1878 821 1888 l 1032 1681 q 1040 1668 1039 1674 q 1040 1658 1040 1663 q 1022 1628 1040 1644 q 990 1611 1004 1611 q 975 1616 982 1611 q 957 1629 968 1621 l 771 1767 l 586 1629 q 569 1616 576 1621 q 551 1611 561 1611 m 1088 1810 q 1076 1813 1082 1810 q 1061 1822 1069 1815 l 858 2006 q 841 2024 844 2018 q 838 2040 838 2031 q 851 2072 838 2056 q 881 2101 864 2089 q 913 2113 899 2113 q 928 2108 922 2113 q 942 2097 935 2104 l 1128 1886 q 1138 1872 1135 1876 q 1140 1861 1140 1867 q 1122 1828 1140 1846 q 1088 1810 1104 1810 z "},"Ổ":{"ha":1539,"x_min":142,"x_max":1399,"o":"m 772 -26 q 512 31 628 -26 q 313 194 396 89 q 186 443 231 299 q 142 763 142 588 q 161 982 142 879 q 219 1173 181 1085 q 313 1330 257 1261 q 438 1448 368 1399 q 592 1523 508 1497 q 772 1549 676 1549 q 1031 1492 915 1549 q 1228 1330 1146 1435 q 1354 1081 1310 1225 q 1399 763 1399 936 q 1378 542 1399 646 q 1320 351 1358 439 q 1228 193 1282 263 q 1103 74 1174 124 q 950 -1 1033 25 q 772 -26 867 -26 m 772 92 q 910 113 846 92 q 1031 173 975 133 q 1130 270 1086 213 q 1205 403 1174 328 q 1252 568 1236 478 q 1268 763 1268 658 q 1232 1040 1268 917 q 1130 1251 1196 1164 q 973 1385 1064 1339 q 772 1431 882 1431 q 632 1410 697 1431 q 510 1349 567 1389 q 410 1252 454 1310 q 335 1119 367 1194 q 287 956 303 1044 q 271 763 271 867 q 308 483 271 607 q 410 271 344 358 q 569 138 476 183 q 772 92 661 92 m 551 1611 q 521 1628 539 1611 q 503 1658 503 1644 q 503 1668 503 1663 q 511 1681 504 1674 l 710 1878 q 732 1897 719 1888 q 771 1906 744 1906 q 809 1897 797 1906 q 831 1878 821 1888 l 1032 1681 q 1040 1668 1039 1674 q 1040 1658 1040 1663 q 1022 1628 1040 1644 q 990 1611 1004 1611 q 975 1616 982 1611 q 957 1629 968 1621 l 771 1767 l 586 1629 q 569 1616 576 1621 q 551 1611 561 1611 m 1024 2135 q 1133 2102 1092 2135 q 1175 2015 1175 2069 q 1158 1951 1175 1978 q 1103 1896 1142 1924 q 1078 1870 1085 1882 q 1074 1844 1071 1858 l 1075 1835 q 1067 1808 1079 1819 q 1038 1793 1056 1797 q 1003 1793 1019 1789 q 981 1811 988 1797 l 965 1849 q 966 1908 954 1881 q 1008 1957 978 1935 q 1036 1982 1028 1971 q 1044 2004 1044 1993 q 1033 2024 1044 2015 q 1001 2033 1021 2033 q 957 2027 979 2033 q 924 2011 935 2021 q 864 2033 890 1992 q 872 2088 849 2067 q 941 2122 901 2108 q 1024 2135 981 2135 z "},"Ỗ":{"ha":1539,"x_min":142,"x_max":1399,"o":"m 772 -26 q 512 31 628 -26 q 313 194 396 89 q 186 443 231 299 q 142 763 142 588 q 161 982 142 879 q 219 1173 181 1085 q 313 1330 257 1261 q 438 1448 368 1399 q 592 1523 508 1497 q 772 1549 676 1549 q 1031 1492 915 1549 q 1228 1330 1146 1435 q 1354 1081 1310 1225 q 1399 763 1399 936 q 1378 542 1399 646 q 1320 351 1358 439 q 1228 193 1282 263 q 1103 74 1174 124 q 950 -1 1033 25 q 772 -26 867 -26 m 772 92 q 910 113 846 92 q 1031 173 975 133 q 1130 270 1086 213 q 1205 403 1174 328 q 1252 568 1236 478 q 1268 763 1268 658 q 1232 1040 1268 917 q 1130 1251 1196 1164 q 973 1385 1064 1339 q 772 1431 882 1431 q 632 1410 697 1431 q 510 1349 567 1389 q 410 1252 454 1310 q 335 1119 367 1194 q 287 956 303 1044 q 271 763 271 867 q 308 483 271 607 q 410 271 344 358 q 569 138 476 183 q 772 92 661 92 m 551 1611 q 521 1628 539 1611 q 503 1658 503 1644 q 503 1668 503 1663 q 511 1681 504 1674 l 710 1878 q 732 1897 719 1888 q 771 1906 744 1906 q 809 1897 797 1906 q 831 1878 821 1888 l 1032 1681 q 1040 1668 1039 1674 q 1040 1658 1040 1663 q 1022 1628 1040 1644 q 990 1611 1004 1611 q 975 1616 982 1611 q 957 1629 968 1621 l 771 1767 l 586 1629 q 569 1616 576 1621 q 551 1611 561 1611 m 560 1917 q 513 1954 513 1917 q 547 2089 514 2047 q 642 2131 579 2131 q 721 2116 685 2131 q 788 2082 757 2101 q 844 2048 818 2063 q 894 2033 871 2033 q 922 2052 913 2033 q 932 2103 932 2071 q 981 2132 935 2132 q 1019 2123 1007 2132 q 1031 2094 1031 2114 q 998 1965 1029 2011 q 899 1919 967 1919 q 817 1934 854 1919 q 750 1967 781 1949 q 694 2001 719 1986 q 646 2015 668 2015 q 621 2001 629 2015 q 610 1954 613 1986 q 596 1926 608 1936 q 560 1917 583 1917 z "},"Ọ":{"ha":1539,"x_min":142,"x_max":1399,"o":"m 772 -26 q 512 31 628 -26 q 313 194 396 89 q 186 443 231 299 q 142 763 142 588 q 161 982 142 879 q 219 1173 181 1085 q 313 1330 257 1261 q 438 1448 368 1399 q 592 1523 508 1497 q 772 1549 676 1549 q 1031 1492 915 1549 q 1228 1330 1146 1435 q 1354 1081 1310 1225 q 1399 763 1399 936 q 1378 542 1399 646 q 1320 351 1358 439 q 1228 193 1282 263 q 1103 74 1174 124 q 950 -1 1033 25 q 772 -26 867 -26 m 772 92 q 910 113 846 92 q 1031 173 975 133 q 1130 270 1086 213 q 1205 403 1174 328 q 1252 568 1236 478 q 1268 763 1268 658 q 1232 1040 1268 917 q 1130 1251 1196 1164 q 973 1385 1064 1339 q 772 1431 882 1431 q 632 1410 697 1431 q 510 1349 567 1389 q 410 1252 454 1310 q 335 1119 367 1194 q 287 956 303 1044 q 271 763 271 867 q 308 483 271 607 q 410 271 344 358 q 569 138 476 183 q 772 92 661 92 m 771 -326 q 713 -305 732 -326 q 693 -239 693 -283 q 713 -173 693 -194 q 771 -151 732 -151 q 828 -173 808 -151 q 847 -239 847 -194 q 828 -305 849 -283 q 771 -326 808 -326 z "},"Ỏ":{"ha":1539,"x_min":142,"x_max":1399,"o":"m 772 -26 q 512 31 628 -26 q 313 194 396 89 q 186 443 231 299 q 142 763 142 588 q 161 982 142 879 q 219 1173 181 1085 q 313 1330 257 1261 q 438 1448 368 1399 q 592 1523 508 1497 q 772 1549 676 1549 q 1031 1492 915 1549 q 1228 1330 1146 1435 q 1354 1081 1310 1225 q 1399 763 1399 936 q 1378 542 1399 646 q 1320 351 1358 439 q 1228 193 1282 263 q 1103 74 1174 124 q 950 -1 1033 25 q 772 -26 867 -26 m 772 92 q 910 113 846 92 q 1031 173 975 133 q 1130 270 1086 213 q 1205 403 1174 328 q 1252 568 1236 478 q 1268 763 1268 658 q 1232 1040 1268 917 q 1130 1251 1196 1164 q 973 1385 1064 1339 q 772 1431 882 1431 q 632 1410 697 1431 q 510 1349 567 1389 q 410 1252 454 1310 q 335 1119 367 1194 q 287 956 303 1044 q 271 763 271 867 q 308 483 271 607 q 410 271 344 358 q 569 138 476 183 q 772 92 661 92 m 788 1943 q 897 1910 856 1943 q 939 1822 939 1876 q 922 1759 939 1786 q 867 1703 906 1732 q 842 1678 849 1689 q 838 1653 835 1667 l 839 1643 q 831 1617 843 1628 q 801 1601 819 1606 q 767 1601 783 1597 q 744 1619 751 1606 l 729 1657 q 730 1716 718 1689 q 772 1765 742 1743 q 800 1790 792 1779 q 808 1813 808 1801 q 797 1833 808 1824 q 765 1842 785 1842 q 722 1835 744 1842 q 688 1819 700 1829 q 629 1842 654 1799 q 638 1896 613 1874 q 706 1930 667 1917 q 788 1943 746 1943 z "},"Ơ":{"ha":1539,"x_min":142,"x_max":1399,"o":"m 772 -26 q 512 31 628 -26 q 313 194 396 89 q 186 443 231 299 q 142 763 142 588 q 161 982 142 879 q 219 1173 181 1085 q 313 1330 257 1261 q 438 1448 368 1399 q 592 1523 508 1497 q 772 1549 676 1549 q 901 1534 840 1549 q 1017 1489 963 1519 q 1152 1516 1106 1494 q 1217 1574 1199 1538 q 1233 1659 1235 1610 q 1222 1769 1232 1708 q 1235 1806 1219 1793 q 1275 1822 1251 1819 q 1319 1813 1299 1824 q 1344 1779 1340 1803 q 1354 1665 1356 1722 q 1332 1558 1353 1608 q 1265 1472 1311 1508 q 1140 1418 1219 1436 q 1331 1147 1264 1317 q 1399 763 1399 978 q 1378 542 1399 646 q 1320 351 1358 439 q 1228 193 1282 263 q 1103 74 1174 124 q 950 -1 1033 25 q 772 -26 867 -26 m 772 92 q 910 113 846 92 q 1031 173 975 133 q 1130 270 1086 213 q 1205 403 1174 328 q 1252 568 1236 478 q 1268 763 1268 658 q 1232 1040 1268 917 q 1130 1251 1196 1164 q 973 1385 1064 1339 q 772 1431 882 1431 q 632 1410 697 1431 q 510 1349 567 1389 q 410 1252 454 1310 q 335 1119 367 1194 q 287 956 303 1044 q 271 763 271 867 q 308 483 271 607 q 410 271 344 358 q 569 138 476 183 q 772 92 661 92 z "},"Ớ":{"ha":1539,"x_min":142,"x_max":1399,"o":"m 772 -26 q 512 31 628 -26 q 313 194 396 89 q 186 443 231 299 q 142 763 142 588 q 161 982 142 879 q 219 1173 181 1085 q 313 1330 257 1261 q 438 1448 368 1399 q 592 1523 508 1497 q 772 1549 676 1549 q 901 1534 840 1549 q 1017 1489 963 1519 q 1152 1516 1106 1494 q 1217 1574 1199 1538 q 1233 1659 1235 1610 q 1222 1769 1232 1708 q 1235 1806 1219 1793 q 1275 1822 1251 1819 q 1319 1813 1299 1824 q 1344 1779 1340 1803 q 1354 1665 1356 1722 q 1332 1558 1353 1608 q 1265 1472 1311 1508 q 1140 1418 1219 1436 q 1331 1147 1264 1317 q 1399 763 1399 978 q 1378 542 1399 646 q 1320 351 1358 439 q 1228 193 1282 263 q 1103 74 1174 124 q 950 -1 1033 25 q 772 -26 867 -26 m 772 92 q 910 113 846 92 q 1031 173 975 133 q 1130 270 1086 213 q 1205 403 1174 328 q 1252 568 1236 478 q 1268 763 1268 658 q 1232 1040 1268 917 q 1130 1251 1196 1164 q 973 1385 1064 1339 q 772 1431 882 1431 q 632 1410 697 1431 q 510 1349 567 1389 q 410 1252 454 1310 q 335 1119 367 1194 q 287 956 303 1044 q 271 763 271 867 q 308 483 271 607 q 410 271 344 358 q 569 138 476 183 q 772 92 661 92 m 700 1611 q 666 1629 683 1611 q 649 1661 649 1647 q 651 1674 649 1668 q 661 1688 653 1679 l 867 1890 q 880 1901 874 1897 q 896 1906 886 1906 q 927 1893 910 1906 q 957 1864 944 1881 q 969 1832 969 1847 q 966 1815 969 1822 q 949 1797 963 1808 l 728 1624 q 712 1615 718 1618 q 700 1611 706 1611 z "},"Ợ":{"ha":1539,"x_min":142,"x_max":1399,"o":"m 772 -26 q 512 31 628 -26 q 313 194 396 89 q 186 443 231 299 q 142 763 142 588 q 161 982 142 879 q 219 1173 181 1085 q 313 1330 257 1261 q 438 1448 368 1399 q 592 1523 508 1497 q 772 1549 676 1549 q 901 1534 840 1549 q 1017 1489 963 1519 q 1152 1516 1106 1494 q 1217 1574 1199 1538 q 1233 1659 1235 1610 q 1222 1769 1232 1708 q 1235 1806 1219 1793 q 1275 1822 1251 1819 q 1319 1813 1299 1824 q 1344 1779 1340 1803 q 1354 1665 1356 1722 q 1332 1558 1353 1608 q 1265 1472 1311 1508 q 1140 1418 1219 1436 q 1331 1147 1264 1317 q 1399 763 1399 978 q 1378 542 1399 646 q 1320 351 1358 439 q 1228 193 1282 263 q 1103 74 1174 124 q 950 -1 1033 25 q 772 -26 867 -26 m 772 92 q 910 113 846 92 q 1031 173 975 133 q 1130 270 1086 213 q 1205 403 1174 328 q 1252 568 1236 478 q 1268 763 1268 658 q 1232 1040 1268 917 q 1130 1251 1196 1164 q 973 1385 1064 1339 q 772 1431 882 1431 q 632 1410 697 1431 q 510 1349 567 1389 q 410 1252 454 1310 q 335 1119 367 1194 q 287 956 303 1044 q 271 763 271 867 q 308 483 271 607 q 410 271 344 358 q 569 138 476 183 q 772 92 661 92 m 771 -326 q 713 -305 732 -326 q 693 -239 693 -283 q 713 -173 693 -194 q 771 -151 732 -151 q 828 -173 808 -151 q 847 -239 847 -194 q 828 -305 849 -283 q 771 -326 808 -326 z "},"Ờ":{"ha":1539,"x_min":142,"x_max":1399,"o":"m 772 -26 q 512 31 628 -26 q 313 194 396 89 q 186 443 231 299 q 142 763 142 588 q 161 982 142 879 q 219 1173 181 1085 q 313 1330 257 1261 q 438 1448 368 1399 q 592 1523 508 1497 q 772 1549 676 1549 q 901 1534 840 1549 q 1017 1489 963 1519 q 1152 1516 1106 1494 q 1217 1574 1199 1538 q 1233 1659 1235 1610 q 1222 1769 1232 1708 q 1235 1806 1219 1793 q 1275 1822 1251 1819 q 1319 1813 1299 1824 q 1344 1779 1340 1803 q 1354 1665 1356 1722 q 1332 1558 1353 1608 q 1265 1472 1311 1508 q 1140 1418 1219 1436 q 1331 1147 1264 1317 q 1399 763 1399 978 q 1378 542 1399 646 q 1320 351 1358 439 q 1228 193 1282 263 q 1103 74 1174 124 q 950 -1 1033 25 q 772 -26 867 -26 m 772 92 q 910 113 846 92 q 1031 173 975 133 q 1130 270 1086 213 q 1205 403 1174 328 q 1252 568 1236 478 q 1268 763 1268 658 q 1232 1040 1268 917 q 1130 1251 1196 1164 q 973 1385 1064 1339 q 772 1431 882 1431 q 632 1410 697 1431 q 510 1349 567 1389 q 410 1252 454 1310 q 335 1119 367 1194 q 287 956 303 1044 q 271 763 271 867 q 308 483 271 607 q 410 271 344 358 q 569 138 476 183 q 772 92 661 92 m 842 1611 q 830 1615 836 1611 q 814 1624 824 1618 l 593 1797 q 576 1815 581 1808 q 572 1832 572 1822 q 585 1864 572 1847 q 615 1893 597 1881 q 646 1906 633 1906 q 662 1901 656 1906 q 675 1890 668 1897 l 881 1688 q 892 1674 890 1679 q 894 1663 894 1668 q 876 1629 894 1647 q 842 1611 858 1611 z "},"Ở":{"ha":1539,"x_min":142,"x_max":1399,"o":"m 772 -26 q 512 31 628 -26 q 313 194 396 89 q 186 443 231 299 q 142 763 142 588 q 161 982 142 879 q 219 1173 181 1085 q 313 1330 257 1261 q 438 1448 368 1399 q 592 1523 508 1497 q 772 1549 676 1549 q 901 1534 840 1549 q 1017 1489 963 1519 q 1152 1516 1106 1494 q 1217 1574 1199 1538 q 1233 1659 1235 1610 q 1222 1769 1232 1708 q 1235 1806 1219 1793 q 1275 1822 1251 1819 q 1319 1813 1299 1824 q 1344 1779 1340 1803 q 1354 1665 1356 1722 q 1332 1558 1353 1608 q 1265 1472 1311 1508 q 1140 1418 1219 1436 q 1331 1147 1264 1317 q 1399 763 1399 978 q 1378 542 1399 646 q 1320 351 1358 439 q 1228 193 1282 263 q 1103 74 1174 124 q 950 -1 1033 25 q 772 -26 867 -26 m 772 92 q 910 113 846 92 q 1031 173 975 133 q 1130 270 1086 213 q 1205 403 1174 328 q 1252 568 1236 478 q 1268 763 1268 658 q 1232 1040 1268 917 q 1130 1251 1196 1164 q 973 1385 1064 1339 q 772 1431 882 1431 q 632 1410 697 1431 q 510 1349 567 1389 q 410 1252 454 1310 q 335 1119 367 1194 q 287 956 303 1044 q 271 763 271 867 q 308 483 271 607 q 410 271 344 358 q 569 138 476 183 q 772 92 661 92 m 788 1943 q 897 1910 856 1943 q 939 1822 939 1876 q 922 1759 939 1786 q 867 1703 906 1732 q 842 1678 849 1689 q 838 1653 835 1667 l 839 1643 q 831 1617 843 1628 q 801 1601 819 1606 q 767 1601 783 1597 q 744 1619 751 1606 l 729 1657 q 730 1716 718 1689 q 772 1765 742 1743 q 800 1790 792 1779 q 808 1813 808 1801 q 797 1833 808 1824 q 765 1842 785 1842 q 722 1835 744 1842 q 688 1819 700 1829 q 629 1842 654 1799 q 638 1896 613 1874 q 706 1930 667 1917 q 788 1943 746 1943 z "},"Ỡ":{"ha":1539,"x_min":142,"x_max":1399,"o":"m 772 -26 q 512 31 628 -26 q 313 194 396 89 q 186 443 231 299 q 142 763 142 588 q 161 982 142 879 q 219 1173 181 1085 q 313 1330 257 1261 q 438 1448 368 1399 q 592 1523 508 1497 q 772 1549 676 1549 q 901 1534 840 1549 q 1017 1489 963 1519 q 1152 1516 1106 1494 q 1217 1574 1199 1538 q 1233 1659 1235 1610 q 1222 1769 1232 1708 q 1235 1806 1219 1793 q 1275 1822 1251 1819 q 1319 1813 1299 1824 q 1344 1779 1340 1803 q 1354 1665 1356 1722 q 1332 1558 1353 1608 q 1265 1472 1311 1508 q 1140 1418 1219 1436 q 1331 1147 1264 1317 q 1399 763 1399 978 q 1378 542 1399 646 q 1320 351 1358 439 q 1228 193 1282 263 q 1103 74 1174 124 q 950 -1 1033 25 q 772 -26 867 -26 m 772 92 q 910 113 846 92 q 1031 173 975 133 q 1130 270 1086 213 q 1205 403 1174 328 q 1252 568 1236 478 q 1268 763 1268 658 q 1232 1040 1268 917 q 1130 1251 1196 1164 q 973 1385 1064 1339 q 772 1431 882 1431 q 632 1410 697 1431 q 510 1349 567 1389 q 410 1252 454 1310 q 335 1119 367 1194 q 287 956 303 1044 q 271 763 271 867 q 308 483 271 607 q 410 271 344 358 q 569 138 476 183 q 772 92 661 92 m 557 1651 q 510 1689 510 1651 q 544 1824 511 1782 q 639 1865 576 1865 q 718 1851 682 1865 q 785 1817 754 1836 q 842 1783 815 1797 q 892 1768 868 1768 q 919 1787 910 1768 q 931 1838 929 1806 q 978 1867 932 1867 q 1016 1858 1004 1867 q 1028 1829 1028 1849 q 995 1700 1026 1746 q 896 1654 964 1654 q 815 1669 853 1654 q 747 1702 778 1683 q 691 1735 717 1721 q 643 1750 665 1750 q 618 1736 626 1750 q 607 1689 610 1722 q 593 1661 606 1671 q 557 1651 581 1651 z "},"Ŕ":{"ha":1154,"x_min":219,"x_max":1110,"o":"m 281 -19 q 235 -10 250 -19 q 219 19 219 0 l 219 1483 q 235 1513 219 1503 q 282 1522 251 1522 l 556 1522 q 835 1486 726 1522 q 999 1371 944 1450 q 1053 1163 1053 1292 q 1033 1030 1053 1090 q 978 919 1014 969 q 893 831 943 869 q 778 764 843 792 q 639 719 714 736 q 479 694 564 701 q 665 476 568 585 q 867 267 763 368 q 1086 75 972 167 q 1106 42 1101 64 q 1083 -4 1110 21 q 1046 -23 1065 -22 q 1006 -7 1026 -24 q 768 206 883 93 q 547 439 653 319 q 342 676 440 558 l 342 19 q 326 -10 342 0 q 281 -19 311 -19 m 342 792 q 482 799 415 792 q 607 820 549 806 q 715 856 665 835 q 804 906 765 876 q 871 974 843 936 q 913 1059 899 1013 q 928 1163 928 1106 q 889 1306 928 1251 q 771 1386 850 1361 q 572 1411 692 1411 l 342 1411 l 342 792 m 508 1611 q 474 1629 492 1611 q 457 1661 457 1647 q 459 1674 457 1668 q 469 1688 461 1679 l 675 1890 q 688 1901 682 1897 q 704 1906 694 1906 q 735 1893 718 1906 q 765 1864 753 1881 q 778 1832 778 1847 q 774 1815 778 1822 q 757 1797 771 1808 l 536 1624 q 520 1615 526 1618 q 508 1611 514 1611 z "},"Ř":{"ha":1154,"x_min":219,"x_max":1110,"o":"m 281 -19 q 235 -10 250 -19 q 219 19 219 0 l 219 1483 q 235 1513 219 1503 q 282 1522 251 1522 l 556 1522 q 835 1486 726 1522 q 999 1371 944 1450 q 1053 1163 1053 1292 q 1033 1030 1053 1090 q 978 919 1014 969 q 893 831 943 869 q 778 764 843 792 q 639 719 714 736 q 479 694 564 701 q 665 476 568 585 q 867 267 763 368 q 1086 75 972 167 q 1106 42 1101 64 q 1083 -4 1110 21 q 1046 -23 1065 -22 q 1006 -7 1026 -24 q 768 206 883 93 q 547 439 653 319 q 342 676 440 558 l 342 19 q 326 -10 342 0 q 281 -19 311 -19 m 342 792 q 482 799 415 792 q 607 820 549 806 q 715 856 665 835 q 804 906 765 876 q 871 974 843 936 q 913 1059 899 1013 q 928 1163 928 1106 q 889 1306 928 1251 q 771 1386 850 1361 q 572 1411 692 1411 l 342 1411 l 342 792 m 800 1906 q 831 1890 813 1906 q 849 1858 849 1874 q 848 1850 849 1856 q 840 1836 847 1844 l 640 1639 q 619 1621 631 1631 q 579 1611 607 1611 q 542 1621 553 1611 q 521 1639 531 1631 l 319 1836 q 312 1850 313 1844 q 311 1858 311 1856 q 329 1890 311 1874 q 360 1906 347 1906 q 377 1901 369 1906 q 394 1889 385 1896 l 579 1750 l 765 1889 q 783 1901 776 1896 q 800 1906 790 1906 z "},"Ŗ":{"ha":1154,"x_min":219,"x_max":1110,"o":"m 281 -19 q 235 -10 250 -19 q 219 19 219 0 l 219 1483 q 235 1513 219 1503 q 282 1522 251 1522 l 556 1522 q 835 1486 726 1522 q 999 1371 944 1450 q 1053 1163 1053 1292 q 1033 1030 1053 1090 q 978 919 1014 969 q 893 831 943 869 q 778 764 843 792 q 639 719 714 736 q 479 694 564 701 q 665 476 568 585 q 867 267 763 368 q 1086 75 972 167 q 1106 42 1101 64 q 1083 -4 1110 21 q 1046 -23 1065 -22 q 1006 -7 1026 -24 q 768 206 883 93 q 547 439 653 319 q 342 676 440 558 l 342 19 q 326 -10 342 0 q 281 -19 311 -19 m 342 792 q 482 799 415 792 q 607 820 549 806 q 715 856 665 835 q 804 906 765 876 q 871 974 843 936 q 913 1059 899 1013 q 928 1163 928 1106 q 889 1306 928 1251 q 771 1386 850 1361 q 572 1411 692 1411 l 342 1411 l 342 792 m 563 -404 q 542 -386 546 -397 q 544 -354 538 -375 q 569 -281 561 -311 q 580 -219 578 -250 q 582 -146 582 -187 q 595 -112 582 -122 q 635 -103 608 -103 q 684 -118 667 -103 q 701 -160 701 -133 q 692 -233 701 -194 q 665 -310 682 -272 q 626 -382 649 -349 q 599 -408 613 -404 q 563 -404 585 -412 z "},"Ś":{"ha":1144,"x_min":117,"x_max":1026,"o":"m 574 -26 q 442 -11 506 -26 q 320 33 378 4 q 215 101 263 61 q 129 188 167 140 q 117 221 117 206 q 139 256 117 236 q 176 276 163 276 q 214 251 189 276 q 303 178 251 215 q 422 116 354 140 q 574 92 489 92 q 711 112 651 92 q 813 171 771 132 q 877 265 856 210 q 899 393 899 321 q 875 510 899 461 q 808 594 851 558 q 706 660 764 631 q 578 719 649 689 q 461 772 519 743 q 351 838 403 801 q 258 922 299 874 q 194 1034 218 971 q 171 1181 171 1097 q 203 1335 171 1268 q 292 1451 235 1403 q 425 1524 349 1499 q 592 1549 501 1549 q 740 1527 674 1549 q 864 1465 807 1506 q 974 1368 921 1425 q 985 1336 988 1351 q 967 1304 983 1321 q 933 1281 950 1286 q 900 1290 915 1275 q 817 1364 860 1332 q 719 1413 774 1396 q 592 1431 665 1431 q 468 1413 522 1431 q 376 1364 414 1396 q 319 1285 339 1332 q 300 1179 300 1239 q 323 1056 300 1107 q 388 967 346 1004 q 486 901 429 931 q 608 846 543 872 q 756 780 682 817 q 891 692 829 743 q 990 568 953 640 q 1026 393 1026 496 q 994 219 1026 297 q 903 87 963 142 q 760 3 843 32 q 574 -26 676 -26 m 531 1611 q 497 1629 514 1611 q 479 1661 479 1647 q 481 1674 479 1668 q 492 1688 483 1679 l 697 1890 q 710 1901 704 1897 q 726 1906 717 1906 q 758 1893 740 1906 q 788 1864 775 1881 q 800 1832 800 1847 q 797 1815 800 1822 q 779 1797 793 1808 l 558 1624 q 542 1615 549 1618 q 531 1611 536 1611 z "},"Š":{"ha":1144,"x_min":117,"x_max":1026,"o":"m 574 -26 q 442 -11 506 -26 q 320 33 378 4 q 215 101 263 61 q 129 188 167 140 q 117 221 117 206 q 139 256 117 236 q 176 276 163 276 q 214 251 189 276 q 303 178 251 215 q 422 116 354 140 q 574 92 489 92 q 711 112 651 92 q 813 171 771 132 q 877 265 856 210 q 899 393 899 321 q 875 510 899 461 q 808 594 851 558 q 706 660 764 631 q 578 719 649 689 q 461 772 519 743 q 351 838 403 801 q 258 922 299 874 q 194 1034 218 971 q 171 1181 171 1097 q 203 1335 171 1268 q 292 1451 235 1403 q 425 1524 349 1499 q 592 1549 501 1549 q 740 1527 674 1549 q 864 1465 807 1506 q 974 1368 921 1425 q 985 1336 988 1351 q 967 1304 983 1321 q 933 1281 950 1286 q 900 1290 915 1275 q 817 1364 860 1332 q 719 1413 774 1396 q 592 1431 665 1431 q 468 1413 522 1431 q 376 1364 414 1396 q 319 1285 339 1332 q 300 1179 300 1239 q 323 1056 300 1107 q 388 967 346 1004 q 486 901 429 931 q 608 846 543 872 q 756 780 682 817 q 891 692 829 743 q 990 568 953 640 q 1026 393 1026 496 q 994 219 1026 297 q 903 87 963 142 q 760 3 843 32 q 574 -26 676 -26 m 822 1906 q 853 1890 835 1906 q 871 1858 871 1874 q 870 1850 871 1856 q 863 1836 869 1844 l 663 1639 q 641 1621 653 1631 q 601 1611 629 1611 q 564 1621 575 1611 q 543 1639 553 1631 l 342 1836 q 334 1850 335 1844 q 333 1858 333 1856 q 351 1890 333 1874 q 382 1906 369 1906 q 399 1901 392 1906 q 417 1889 407 1896 l 601 1750 l 788 1889 q 806 1901 799 1896 q 822 1906 813 1906 z "},"Ş":{"ha":1144,"x_min":117,"x_max":1026,"o":"m 574 -26 q 442 -11 506 -26 q 320 33 378 4 q 215 101 263 61 q 129 188 167 140 q 117 221 117 206 q 139 256 117 236 q 176 276 163 276 q 214 251 189 276 q 303 178 251 215 q 422 116 354 140 q 574 92 489 92 q 711 112 651 92 q 813 171 771 132 q 877 265 856 210 q 899 393 899 321 q 875 510 899 461 q 808 594 851 558 q 706 660 764 631 q 578 719 649 689 q 461 772 519 743 q 351 838 403 801 q 258 922 299 874 q 194 1034 218 971 q 171 1181 171 1097 q 203 1335 171 1268 q 292 1451 235 1403 q 425 1524 349 1499 q 592 1549 501 1549 q 740 1527 674 1549 q 864 1465 807 1506 q 974 1368 921 1425 q 985 1336 988 1351 q 967 1304 983 1321 q 933 1281 950 1286 q 900 1290 915 1275 q 817 1364 860 1332 q 719 1413 774 1396 q 592 1431 665 1431 q 468 1413 522 1431 q 376 1364 414 1396 q 319 1285 339 1332 q 300 1179 300 1239 q 323 1056 300 1107 q 388 967 346 1004 q 486 901 429 931 q 608 846 543 872 q 756 780 682 817 q 891 692 829 743 q 990 568 953 640 q 1026 393 1026 496 q 994 219 1026 297 q 903 87 963 142 q 760 3 843 32 q 574 -26 676 -26 m 553 -374 q 486 -366 531 -374 q 404 -335 442 -358 q 387 -309 389 -325 q 392 -278 385 -293 q 414 -253 401 -258 q 444 -256 426 -247 q 486 -269 460 -261 q 543 -278 513 -278 q 603 -267 586 -278 q 621 -231 621 -257 q 599 -194 621 -210 q 517 -187 578 -179 q 493 -186 501 -189 q 476 -174 485 -183 q 469 -154 469 -164 q 472 -135 468 -144 l 542 18 l 633 18 l 557 -146 l 515 -124 q 626 -108 578 -100 q 703 -149 675 -117 q 731 -231 731 -181 q 710 -307 731 -275 q 651 -356 690 -339 q 553 -374 613 -374 z "},"Ŝ":{"ha":1144,"x_min":117,"x_max":1026,"o":"m 574 -26 q 442 -11 506 -26 q 320 33 378 4 q 215 101 263 61 q 129 188 167 140 q 117 221 117 206 q 139 256 117 236 q 176 276 163 276 q 214 251 189 276 q 303 178 251 215 q 422 116 354 140 q 574 92 489 92 q 711 112 651 92 q 813 171 771 132 q 877 265 856 210 q 899 393 899 321 q 875 510 899 461 q 808 594 851 558 q 706 660 764 631 q 578 719 649 689 q 461 772 519 743 q 351 838 403 801 q 258 922 299 874 q 194 1034 218 971 q 171 1181 171 1097 q 203 1335 171 1268 q 292 1451 235 1403 q 425 1524 349 1499 q 592 1549 501 1549 q 740 1527 674 1549 q 864 1465 807 1506 q 974 1368 921 1425 q 985 1336 988 1351 q 967 1304 983 1321 q 933 1281 950 1286 q 900 1290 915 1275 q 817 1364 860 1332 q 719 1413 774 1396 q 592 1431 665 1431 q 468 1413 522 1431 q 376 1364 414 1396 q 319 1285 339 1332 q 300 1179 300 1239 q 323 1056 300 1107 q 388 967 346 1004 q 486 901 429 931 q 608 846 543 872 q 756 780 682 817 q 891 692 829 743 q 990 568 953 640 q 1026 393 1026 496 q 994 219 1026 297 q 903 87 963 142 q 760 3 843 32 q 574 -26 676 -26 m 382 1611 q 351 1628 369 1611 q 333 1658 333 1644 q 334 1668 333 1663 q 342 1681 335 1674 l 540 1878 q 563 1897 550 1888 q 601 1906 575 1906 q 640 1897 628 1906 q 661 1878 651 1888 l 863 1681 q 870 1668 869 1674 q 871 1658 871 1663 q 853 1628 871 1644 q 821 1611 835 1611 q 806 1616 813 1611 q 788 1629 799 1621 l 601 1767 l 417 1629 q 399 1616 407 1621 q 382 1611 392 1611 z "},"Ș":{"ha":1144,"x_min":117,"x_max":1026,"o":"m 574 -26 q 442 -11 506 -26 q 320 33 378 4 q 215 101 263 61 q 129 188 167 140 q 117 221 117 206 q 139 256 117 236 q 176 276 163 276 q 214 251 189 276 q 303 178 251 215 q 422 116 354 140 q 574 92 489 92 q 711 112 651 92 q 813 171 771 132 q 877 265 856 210 q 899 393 899 321 q 875 510 899 461 q 808 594 851 558 q 706 660 764 631 q 578 719 649 689 q 461 772 519 743 q 351 838 403 801 q 258 922 299 874 q 194 1034 218 971 q 171 1181 171 1097 q 203 1335 171 1268 q 292 1451 235 1403 q 425 1524 349 1499 q 592 1549 501 1549 q 740 1527 674 1549 q 864 1465 807 1506 q 974 1368 921 1425 q 985 1336 988 1351 q 967 1304 983 1321 q 933 1281 950 1286 q 900 1290 915 1275 q 817 1364 860 1332 q 719 1413 774 1396 q 592 1431 665 1431 q 468 1413 522 1431 q 376 1364 414 1396 q 319 1285 339 1332 q 300 1179 300 1239 q 323 1056 300 1107 q 388 967 346 1004 q 486 901 429 931 q 608 846 543 872 q 756 780 682 817 q 891 692 829 743 q 990 568 953 640 q 1026 393 1026 496 q 994 219 1026 297 q 903 87 963 142 q 760 3 843 32 q 574 -26 676 -26 m 494 -404 q 474 -386 478 -397 q 476 -354 469 -375 q 501 -281 493 -311 q 512 -219 510 -250 q 514 -146 514 -187 q 527 -112 514 -122 q 567 -103 540 -103 q 616 -118 599 -103 q 633 -160 633 -133 q 624 -233 633 -194 q 597 -310 614 -272 q 558 -382 581 -349 q 531 -408 544 -404 q 494 -404 517 -412 z "},"Ŧ":{"ha":1149,"x_min":31,"x_max":1118,"o":"m 574 -21 q 513 18 513 -21 l 513 1411 l 69 1411 q 40 1424 49 1411 q 31 1467 31 1436 q 40 1510 31 1499 q 69 1522 49 1522 l 1081 1522 q 1110 1510 1101 1522 q 1118 1467 1118 1499 q 1110 1424 1118 1436 q 1081 1411 1101 1411 l 635 1411 l 635 18 q 619 -11 635 -1 q 574 -21 604 -21 m 283 710 q 251 725 258 710 q 244 758 244 740 q 251 794 244 778 q 283 811 258 811 l 865 811 q 896 794 889 811 q 903 758 903 778 q 896 725 903 740 q 865 710 889 710 l 283 710 z "},"Ť":{"ha":1149,"x_min":31,"x_max":1118,"o":"m 574 -21 q 513 18 513 -21 l 513 1411 l 69 1411 q 40 1424 49 1411 q 31 1467 31 1436 q 40 1510 31 1499 q 69 1522 49 1522 l 1081 1522 q 1110 1510 1101 1522 q 1118 1467 1118 1499 q 1110 1424 1118 1436 q 1081 1411 1101 1411 l 635 1411 l 635 18 q 619 -11 635 -1 q 574 -21 604 -21 m 794 1906 q 825 1890 807 1906 q 843 1858 843 1874 q 842 1850 843 1856 q 835 1836 842 1844 l 635 1639 q 613 1621 625 1631 q 574 1611 601 1611 q 536 1621 547 1611 q 515 1639 525 1631 l 314 1836 q 306 1850 307 1844 q 306 1858 306 1856 q 324 1890 306 1874 q 354 1906 342 1906 q 372 1901 364 1906 q 389 1889 379 1896 l 574 1750 l 760 1889 q 778 1901 771 1896 q 794 1906 785 1906 z "},"Ţ":{"ha":1149,"x_min":31,"x_max":1118,"o":"m 574 -21 q 513 18 513 -21 l 513 1411 l 69 1411 q 40 1424 49 1411 q 31 1467 31 1436 q 40 1510 31 1499 q 69 1522 49 1522 l 1081 1522 q 1110 1510 1101 1522 q 1118 1467 1118 1499 q 1110 1424 1118 1436 q 1081 1411 1101 1411 l 635 1411 l 635 18 q 619 -11 635 -1 q 574 -21 604 -21 m 550 -374 q 483 -366 528 -374 q 401 -335 439 -358 q 384 -309 386 -325 q 389 -278 382 -293 q 411 -253 399 -258 q 442 -256 424 -247 q 483 -269 457 -261 q 540 -278 510 -278 q 601 -267 583 -278 q 618 -231 618 -257 q 597 -194 618 -210 q 514 -187 575 -179 q 490 -186 499 -189 q 474 -174 482 -183 q 466 -154 467 -164 q 469 -135 465 -144 l 539 18 l 631 18 l 554 -146 l 513 -124 q 624 -108 575 -100 q 700 -149 672 -117 q 728 -231 728 -181 q 708 -307 728 -275 q 649 -356 688 -339 q 550 -374 610 -374 z "},"Ț":{"ha":1149,"x_min":31,"x_max":1118,"o":"m 574 -21 q 513 18 513 -21 l 513 1411 l 69 1411 q 40 1424 49 1411 q 31 1467 31 1436 q 40 1510 31 1499 q 69 1522 49 1522 l 1081 1522 q 1110 1510 1101 1522 q 1118 1467 1118 1499 q 1110 1424 1118 1436 q 1081 1411 1101 1411 l 635 1411 l 635 18 q 619 -11 635 -1 q 574 -21 604 -21 m 492 -404 q 471 -386 475 -397 q 474 -354 467 -375 q 499 -281 490 -311 q 509 -219 507 -250 q 511 -146 511 -187 q 524 -112 511 -122 q 564 -103 538 -103 q 613 -118 596 -103 q 631 -160 631 -133 q 621 -233 631 -194 q 594 -310 611 -272 q 556 -382 578 -349 q 528 -408 542 -404 q 492 -404 514 -412 z "},"Ú":{"ha":1435,"x_min":214,"x_max":1221,"o":"m 721 -26 q 506 7 600 -26 q 347 105 411 40 q 248 263 282 169 q 214 475 214 356 l 214 1511 q 229 1540 214 1531 q 275 1549 244 1549 q 321 1540 306 1549 q 336 1511 336 1531 l 336 475 q 381 267 336 353 q 510 137 425 182 q 721 92 596 92 q 928 137 844 92 q 1056 267 1013 182 q 1100 475 1100 353 l 1100 1511 q 1115 1540 1100 1531 q 1161 1549 1131 1549 q 1221 1511 1221 1549 l 1221 475 q 1163 203 1221 315 q 992 32 1104 90 q 721 -26 881 -26 m 647 1611 q 613 1629 631 1611 q 596 1661 596 1647 q 598 1674 596 1668 q 608 1688 600 1679 l 814 1890 q 827 1901 821 1897 q 843 1906 833 1906 q 874 1893 857 1906 q 904 1864 892 1881 q 917 1832 917 1847 q 913 1815 917 1822 q 896 1797 910 1808 l 675 1624 q 659 1615 665 1618 q 647 1611 653 1611 z "},"Ŭ":{"ha":1435,"x_min":214,"x_max":1221,"o":"m 721 -26 q 506 7 600 -26 q 347 105 411 40 q 248 263 282 169 q 214 475 214 356 l 214 1511 q 229 1540 214 1531 q 275 1549 244 1549 q 321 1540 306 1549 q 336 1511 336 1531 l 336 475 q 381 267 336 353 q 510 137 425 182 q 721 92 596 92 q 928 137 844 92 q 1056 267 1013 182 q 1100 475 1100 353 l 1100 1511 q 1115 1540 1100 1531 q 1161 1549 1131 1549 q 1221 1511 1221 1549 l 1221 475 q 1163 203 1221 315 q 992 32 1104 90 q 721 -26 881 -26 m 718 1611 q 540 1674 607 1611 q 463 1865 472 1736 q 475 1894 461 1882 q 515 1906 489 1906 q 546 1895 538 1906 q 558 1865 554 1885 q 615 1767 578 1799 q 718 1735 651 1735 q 822 1767 785 1735 q 876 1865 860 1799 q 890 1895 882 1885 q 919 1906 897 1906 q 960 1894 946 1906 q 974 1865 975 1882 q 934 1727 968 1783 q 844 1641 900 1671 q 718 1611 789 1611 z "},"Ǔ":{"ha":1435,"x_min":214,"x_max":1221,"o":"m 721 -26 q 506 7 600 -26 q 347 105 411 40 q 248 263 282 169 q 214 475 214 356 l 214 1511 q 229 1540 214 1531 q 275 1549 244 1549 q 321 1540 306 1549 q 336 1511 336 1531 l 336 475 q 381 267 336 353 q 510 137 425 182 q 721 92 596 92 q 928 137 844 92 q 1056 267 1013 182 q 1100 475 1100 353 l 1100 1511 q 1115 1540 1100 1531 q 1161 1549 1131 1549 q 1221 1511 1221 1549 l 1221 475 q 1163 203 1221 315 q 992 32 1104 90 q 721 -26 881 -26 m 939 1906 q 969 1890 951 1906 q 988 1858 988 1874 q 987 1850 988 1856 q 979 1836 986 1844 l 779 1639 q 758 1621 769 1631 q 718 1611 746 1611 q 681 1621 692 1611 q 660 1639 669 1631 l 458 1836 q 451 1850 451 1844 q 450 1858 450 1856 q 468 1890 450 1874 q 499 1906 486 1906 q 516 1901 508 1906 q 533 1889 524 1896 l 718 1750 l 904 1889 q 922 1901 915 1896 q 939 1906 929 1906 z "},"Û":{"ha":1435,"x_min":214,"x_max":1221,"o":"m 721 -26 q 506 7 600 -26 q 347 105 411 40 q 248 263 282 169 q 214 475 214 356 l 214 1511 q 229 1540 214 1531 q 275 1549 244 1549 q 321 1540 306 1549 q 336 1511 336 1531 l 336 475 q 381 267 336 353 q 510 137 425 182 q 721 92 596 92 q 928 137 844 92 q 1056 267 1013 182 q 1100 475 1100 353 l 1100 1511 q 1115 1540 1100 1531 q 1161 1549 1131 1549 q 1221 1511 1221 1549 l 1221 475 q 1163 203 1221 315 q 992 32 1104 90 q 721 -26 881 -26 m 499 1611 q 468 1628 486 1611 q 450 1658 450 1644 q 451 1668 450 1663 q 458 1681 451 1674 l 657 1878 q 679 1897 667 1888 q 718 1906 692 1906 q 756 1897 744 1906 q 778 1878 768 1888 l 979 1681 q 987 1668 986 1674 q 988 1658 988 1663 q 969 1628 988 1644 q 938 1611 951 1611 q 922 1616 929 1611 q 904 1629 915 1621 l 718 1767 l 533 1629 q 516 1616 524 1621 q 499 1611 508 1611 z "},"Ü":{"ha":1435,"x_min":214,"x_max":1221,"o":"m 721 -26 q 506 7 600 -26 q 347 105 411 40 q 248 263 282 169 q 214 475 214 356 l 214 1511 q 229 1540 214 1531 q 275 1549 244 1549 q 321 1540 306 1549 q 336 1511 336 1531 l 336 475 q 381 267 336 353 q 510 137 425 182 q 721 92 596 92 q 928 137 844 92 q 1056 267 1013 182 q 1100 475 1100 353 l 1100 1511 q 1115 1540 1100 1531 q 1161 1549 1131 1549 q 1221 1511 1221 1549 l 1221 475 q 1163 203 1221 315 q 992 32 1104 90 q 721 -26 881 -26 m 543 1661 q 485 1683 506 1661 q 465 1747 465 1704 q 485 1814 465 1792 q 544 1836 504 1836 q 601 1814 582 1836 q 621 1747 621 1792 q 602 1683 622 1704 q 543 1661 582 1661 m 894 1661 q 836 1683 856 1661 q 817 1747 817 1704 q 836 1814 817 1792 q 894 1836 856 1836 q 951 1814 932 1836 q 971 1747 971 1792 q 952 1683 972 1704 q 894 1661 932 1661 z "},"Ù":{"ha":1435,"x_min":214,"x_max":1221,"o":"m 721 -26 q 506 7 600 -26 q 347 105 411 40 q 248 263 282 169 q 214 475 214 356 l 214 1511 q 229 1540 214 1531 q 275 1549 244 1549 q 321 1540 306 1549 q 336 1511 336 1531 l 336 475 q 381 267 336 353 q 510 137 425 182 q 721 92 596 92 q 928 137 844 92 q 1056 267 1013 182 q 1100 475 1100 353 l 1100 1511 q 1115 1540 1100 1531 q 1161 1549 1131 1549 q 1221 1511 1221 1549 l 1221 475 q 1163 203 1221 315 q 992 32 1104 90 q 721 -26 881 -26 m 789 1611 q 777 1615 783 1611 q 761 1624 771 1618 l 540 1797 q 524 1815 528 1808 q 519 1832 519 1822 q 532 1864 519 1847 q 563 1893 544 1881 q 593 1906 581 1906 q 609 1901 603 1906 q 622 1890 615 1897 l 828 1688 q 840 1674 838 1679 q 842 1663 842 1668 q 824 1629 842 1647 q 789 1611 806 1611 z "},"Ű":{"ha":1435,"x_min":214,"x_max":1221,"o":"m 721 -26 q 506 7 600 -26 q 347 105 411 40 q 248 263 282 169 q 214 475 214 356 l 214 1511 q 229 1540 214 1531 q 275 1549 244 1549 q 321 1540 306 1549 q 336 1511 336 1531 l 336 475 q 381 267 336 353 q 510 137 425 182 q 721 92 596 92 q 928 137 844 92 q 1056 267 1013 182 q 1100 475 1100 353 l 1100 1511 q 1115 1540 1100 1531 q 1161 1549 1131 1549 q 1221 1511 1221 1549 l 1221 475 q 1163 203 1221 315 q 992 32 1104 90 q 721 -26 881 -26 m 579 1611 q 546 1629 564 1611 q 528 1663 528 1647 q 530 1673 528 1668 q 540 1688 532 1678 l 724 1890 q 738 1901 731 1897 q 754 1906 746 1906 q 785 1894 769 1906 q 813 1865 801 1882 q 824 1833 824 1849 q 821 1817 824 1824 q 803 1799 818 1810 l 607 1624 q 592 1615 599 1618 q 579 1611 585 1611 m 854 1611 q 819 1629 838 1611 q 801 1663 801 1647 q 803 1674 801 1668 q 815 1688 806 1679 l 1003 1890 q 1017 1901 1010 1897 q 1033 1906 1024 1906 q 1065 1894 1049 1906 q 1092 1865 1081 1882 q 1103 1833 1103 1849 q 1099 1817 1103 1824 q 1082 1799 1096 1810 l 881 1624 q 866 1615 872 1618 q 854 1611 860 1611 z "},"Ū":{"ha":1435,"x_min":214,"x_max":1221,"o":"m 721 -26 q 506 7 600 -26 q 347 105 411 40 q 248 263 282 169 q 214 475 214 356 l 214 1511 q 229 1540 214 1531 q 275 1549 244 1549 q 321 1540 306 1549 q 336 1511 336 1531 l 336 475 q 381 267 336 353 q 510 137 425 182 q 721 92 596 92 q 928 137 844 92 q 1056 267 1013 182 q 1100 475 1100 353 l 1100 1511 q 1115 1540 1100 1531 q 1161 1549 1131 1549 q 1221 1511 1221 1549 l 1221 475 q 1163 203 1221 315 q 992 32 1104 90 q 721 -26 881 -26 m 522 1697 q 492 1713 499 1697 q 485 1754 485 1729 q 492 1798 485 1781 q 522 1815 499 1815 l 915 1815 q 947 1798 940 1815 q 953 1754 953 1781 q 947 1713 953 1729 q 915 1697 940 1697 l 522 1697 z "},"Ų":{"ha":1435,"x_min":214,"x_max":1221,"o":"m 721 -26 q 506 7 600 -26 q 347 105 411 40 q 248 263 282 169 q 214 475 214 356 l 214 1511 q 229 1540 214 1531 q 275 1549 244 1549 q 321 1540 306 1549 q 336 1511 336 1531 l 336 475 q 381 267 336 353 q 510 137 425 182 q 721 92 596 92 q 928 137 844 92 q 1056 267 1013 182 q 1100 475 1100 353 l 1100 1511 q 1115 1540 1100 1531 q 1161 1549 1131 1549 q 1221 1511 1221 1549 l 1221 475 q 1163 203 1221 315 q 992 32 1104 90 q 721 -26 881 -26 m 836 -335 q 750 -304 782 -335 q 718 -224 718 -274 q 730 -161 718 -192 q 765 -98 742 -131 q 822 -29 788 -65 q 903 49 857 7 l 989 47 l 989 38 q 932 -23 960 8 q 882 -84 904 -54 q 847 -140 860 -114 q 833 -189 833 -167 q 842 -219 833 -207 q 869 -231 850 -231 q 913 -212 893 -231 q 956 -168 933 -193 q 976 -157 964 -161 q 1007 -164 989 -153 q 1032 -192 1024 -174 q 1032 -224 1040 -210 q 976 -286 1011 -261 q 905 -323 942 -311 q 836 -335 868 -335 z "},"Ů":{"ha":1435,"x_min":214,"x_max":1221,"o":"m 721 -26 q 506 7 600 -26 q 347 105 411 40 q 248 263 282 169 q 214 475 214 356 l 214 1511 q 229 1540 214 1531 q 275 1549 244 1549 q 321 1540 306 1549 q 336 1511 336 1531 l 336 475 q 381 267 336 353 q 510 137 425 182 q 721 92 596 92 q 928 137 844 92 q 1056 267 1013 182 q 1100 475 1100 353 l 1100 1511 q 1115 1540 1100 1531 q 1161 1549 1131 1549 q 1221 1511 1221 1549 l 1221 475 q 1163 203 1221 315 q 992 32 1104 90 q 721 -26 881 -26 m 718 1600 q 619 1622 663 1600 q 550 1683 575 1644 q 525 1769 525 1721 q 550 1858 525 1819 q 619 1917 575 1896 q 718 1939 663 1939 q 821 1917 776 1939 q 890 1858 865 1896 q 914 1771 914 1819 q 890 1683 914 1721 q 821 1622 865 1644 q 718 1600 776 1600 m 718 1685 q 788 1710 763 1685 q 814 1771 814 1735 q 788 1830 814 1806 q 718 1854 763 1854 q 650 1830 675 1854 q 625 1771 625 1806 q 650 1710 625 1735 q 718 1685 675 1685 z "},"Ũ":{"ha":1435,"x_min":214,"x_max":1221,"o":"m 721 -26 q 506 7 600 -26 q 347 105 411 40 q 248 263 282 169 q 214 475 214 356 l 214 1511 q 229 1540 214 1531 q 275 1549 244 1549 q 321 1540 306 1549 q 336 1511 336 1531 l 336 475 q 381 267 336 353 q 510 137 425 182 q 721 92 596 92 q 928 137 844 92 q 1056 267 1013 182 q 1100 475 1100 353 l 1100 1511 q 1115 1540 1100 1531 q 1161 1549 1131 1549 q 1221 1511 1221 1549 l 1221 475 q 1163 203 1221 315 q 992 32 1104 90 q 721 -26 881 -26 m 504 1651 q 457 1689 457 1651 q 491 1824 458 1782 q 586 1865 524 1865 q 665 1851 629 1865 q 732 1817 701 1836 q 789 1783 763 1797 q 839 1768 815 1768 q 867 1787 857 1768 q 878 1838 876 1806 q 925 1867 879 1867 q 963 1858 951 1867 q 975 1829 975 1849 q 942 1700 974 1746 q 843 1654 911 1654 q 763 1669 800 1654 q 694 1702 725 1683 q 638 1735 664 1721 q 590 1750 613 1750 q 565 1736 574 1750 q 554 1689 557 1722 q 540 1661 553 1671 q 504 1651 528 1651 z "},"Ǘ":{"ha":1435,"x_min":214,"x_max":1221,"o":"m 721 -26 q 506 7 600 -26 q 347 105 411 40 q 248 263 282 169 q 214 475 214 356 l 214 1511 q 229 1540 214 1531 q 275 1549 244 1549 q 321 1540 306 1549 q 336 1511 336 1531 l 336 475 q 381 267 336 353 q 510 137 425 182 q 721 92 596 92 q 928 137 844 92 q 1056 267 1013 182 q 1100 475 1100 353 l 1100 1511 q 1115 1540 1100 1531 q 1161 1549 1131 1549 q 1221 1511 1221 1549 l 1221 475 q 1163 203 1221 315 q 992 32 1104 90 q 721 -26 881 -26 m 543 1661 q 485 1683 506 1661 q 465 1747 465 1704 q 485 1814 465 1792 q 544 1836 504 1836 q 601 1814 582 1836 q 621 1747 621 1792 q 602 1683 622 1704 q 543 1661 582 1661 m 894 1661 q 836 1683 856 1661 q 817 1747 817 1704 q 836 1814 817 1792 q 894 1836 856 1836 q 951 1814 932 1836 q 971 1747 971 1792 q 952 1683 972 1704 q 894 1661 932 1661 m 647 1875 q 613 1893 631 1875 q 596 1925 596 1911 q 598 1938 596 1932 q 608 1951 600 1943 l 814 2154 q 827 2165 821 2161 q 843 2169 833 2169 q 874 2157 857 2169 q 904 2128 892 2144 q 917 2096 917 2111 q 913 2079 917 2086 q 896 2061 910 2072 l 675 1888 q 659 1878 665 1882 q 647 1875 653 1875 z "},"Ǚ":{"ha":1435,"x_min":214,"x_max":1221,"o":"m 721 -26 q 506 7 600 -26 q 347 105 411 40 q 248 263 282 169 q 214 475 214 356 l 214 1511 q 229 1540 214 1531 q 275 1549 244 1549 q 321 1540 306 1549 q 336 1511 336 1531 l 336 475 q 381 267 336 353 q 510 137 425 182 q 721 92 596 92 q 928 137 844 92 q 1056 267 1013 182 q 1100 475 1100 353 l 1100 1511 q 1115 1540 1100 1531 q 1161 1549 1131 1549 q 1221 1511 1221 1549 l 1221 475 q 1163 203 1221 315 q 992 32 1104 90 q 721 -26 881 -26 m 543 1661 q 485 1683 506 1661 q 465 1747 465 1704 q 485 1814 465 1792 q 544 1836 504 1836 q 601 1814 582 1836 q 621 1747 621 1792 q 602 1683 622 1704 q 543 1661 582 1661 m 894 1661 q 836 1683 856 1661 q 817 1747 817 1704 q 836 1814 817 1792 q 894 1836 856 1836 q 951 1814 932 1836 q 971 1747 971 1792 q 952 1683 972 1704 q 894 1661 932 1661 m 939 2169 q 969 2153 951 2169 q 988 2122 988 2138 q 987 2114 988 2119 q 979 2100 986 2108 l 779 1903 q 758 1885 769 1894 q 718 1875 746 1875 q 681 1885 692 1875 q 660 1903 669 1894 l 458 2100 q 451 2114 451 2108 q 450 2122 450 2119 q 468 2153 450 2138 q 499 2169 486 2169 q 516 2165 508 2169 q 533 2153 524 2160 l 718 2014 l 904 2153 q 922 2165 915 2160 q 939 2169 929 2169 z "},"Ǜ":{"ha":1435,"x_min":214,"x_max":1221,"o":"m 721 -26 q 506 7 600 -26 q 347 105 411 40 q 248 263 282 169 q 214 475 214 356 l 214 1511 q 229 1540 214 1531 q 275 1549 244 1549 q 321 1540 306 1549 q 336 1511 336 1531 l 336 475 q 381 267 336 353 q 510 137 425 182 q 721 92 596 92 q 928 137 844 92 q 1056 267 1013 182 q 1100 475 1100 353 l 1100 1511 q 1115 1540 1100 1531 q 1161 1549 1131 1549 q 1221 1511 1221 1549 l 1221 475 q 1163 203 1221 315 q 992 32 1104 90 q 721 -26 881 -26 m 543 1661 q 485 1683 506 1661 q 465 1747 465 1704 q 485 1814 465 1792 q 544 1836 504 1836 q 601 1814 582 1836 q 621 1747 621 1792 q 602 1683 622 1704 q 543 1661 582 1661 m 894 1661 q 836 1683 856 1661 q 817 1747 817 1704 q 836 1814 817 1792 q 894 1836 856 1836 q 951 1814 932 1836 q 971 1747 971 1792 q 952 1683 972 1704 q 894 1661 932 1661 m 789 1875 q 777 1878 783 1875 q 761 1888 771 1882 l 540 2061 q 524 2079 528 2072 q 519 2096 519 2086 q 532 2128 519 2111 q 563 2157 544 2144 q 593 2169 581 2169 q 609 2165 603 2169 q 622 2154 615 2161 l 828 1951 q 840 1938 838 1943 q 842 1926 842 1932 q 824 1893 842 1911 q 789 1875 806 1875 z "},"Ǖ":{"ha":1435,"x_min":214,"x_max":1221,"o":"m 721 -26 q 506 7 600 -26 q 347 105 411 40 q 248 263 282 169 q 214 475 214 356 l 214 1511 q 229 1540 214 1531 q 275 1549 244 1549 q 321 1540 306 1549 q 336 1511 336 1531 l 336 475 q 381 267 336 353 q 510 137 425 182 q 721 92 596 92 q 928 137 844 92 q 1056 267 1013 182 q 1100 475 1100 353 l 1100 1511 q 1115 1540 1100 1531 q 1161 1549 1131 1549 q 1221 1511 1221 1549 l 1221 475 q 1163 203 1221 315 q 992 32 1104 90 q 721 -26 881 -26 m 543 1661 q 485 1683 506 1661 q 465 1747 465 1704 q 485 1814 465 1792 q 544 1836 504 1836 q 601 1814 582 1836 q 621 1747 621 1792 q 602 1683 622 1704 q 543 1661 582 1661 m 894 1661 q 836 1683 856 1661 q 817 1747 817 1704 q 836 1814 817 1792 q 894 1836 856 1836 q 951 1814 932 1836 q 971 1747 971 1792 q 952 1683 972 1704 q 894 1661 932 1661 m 522 1961 q 492 1977 499 1961 q 485 2018 485 1993 q 492 2062 485 2044 q 522 2079 499 2079 l 915 2079 q 947 2062 940 2079 q 953 2018 953 2044 q 947 1977 953 1993 q 915 1961 940 1961 l 522 1961 z "},"Ụ":{"ha":1435,"x_min":214,"x_max":1221,"o":"m 721 -26 q 506 7 600 -26 q 347 105 411 40 q 248 263 282 169 q 214 475 214 356 l 214 1511 q 229 1540 214 1531 q 275 1549 244 1549 q 321 1540 306 1549 q 336 1511 336 1531 l 336 475 q 381 267 336 353 q 510 137 425 182 q 721 92 596 92 q 928 137 844 92 q 1056 267 1013 182 q 1100 475 1100 353 l 1100 1511 q 1115 1540 1100 1531 q 1161 1549 1131 1549 q 1221 1511 1221 1549 l 1221 475 q 1163 203 1221 315 q 992 32 1104 90 q 721 -26 881 -26 m 718 -326 q 660 -305 679 -326 q 640 -239 640 -283 q 660 -173 640 -194 q 718 -151 679 -151 q 775 -173 756 -151 q 794 -239 794 -194 q 776 -305 796 -283 q 718 -326 756 -326 z "},"Ủ":{"ha":1435,"x_min":214,"x_max":1221,"o":"m 721 -26 q 506 7 600 -26 q 347 105 411 40 q 248 263 282 169 q 214 475 214 356 l 214 1511 q 229 1540 214 1531 q 275 1549 244 1549 q 321 1540 306 1549 q 336 1511 336 1531 l 336 475 q 381 267 336 353 q 510 137 425 182 q 721 92 596 92 q 928 137 844 92 q 1056 267 1013 182 q 1100 475 1100 353 l 1100 1511 q 1115 1540 1100 1531 q 1161 1549 1131 1549 q 1221 1511 1221 1549 l 1221 475 q 1163 203 1221 315 q 992 32 1104 90 q 721 -26 881 -26 m 735 1943 q 844 1910 803 1943 q 886 1822 886 1876 q 869 1759 886 1786 q 814 1703 853 1732 q 789 1678 796 1689 q 785 1653 782 1667 l 786 1643 q 778 1617 790 1628 q 749 1601 767 1606 q 715 1601 731 1597 q 692 1619 699 1606 l 676 1657 q 677 1716 665 1689 q 719 1765 689 1743 q 747 1790 739 1779 q 756 1813 756 1801 q 744 1833 756 1824 q 713 1842 732 1842 q 669 1835 692 1842 q 635 1819 647 1829 q 576 1842 601 1799 q 585 1896 560 1874 q 653 1930 614 1917 q 735 1943 693 1943 z "},"Ư":{"ha":1435,"x_min":214,"x_max":1479,"o":"m 1468 1776 q 1473 1661 1479 1718 q 1435 1558 1467 1604 q 1342 1485 1404 1513 q 1178 1457 1279 1457 l 1178 1544 q 1310 1579 1272 1551 q 1352 1654 1349 1607 q 1346 1767 1356 1701 q 1359 1803 1343 1790 q 1399 1819 1375 1817 q 1443 1810 1422 1821 q 1468 1776 1464 1800 m 721 -26 q 506 7 600 -26 q 347 105 411 40 q 248 263 282 169 q 214 475 214 356 l 214 1511 q 229 1540 214 1531 q 275 1549 244 1549 q 321 1540 306 1549 q 336 1511 336 1531 l 336 475 q 381 267 336 353 q 510 137 425 182 q 721 92 596 92 q 928 137 844 92 q 1056 267 1013 182 q 1100 475 1100 353 l 1100 1511 q 1115 1540 1100 1531 q 1161 1549 1131 1549 q 1221 1511 1221 1549 l 1221 475 q 1163 203 1221 315 q 992 32 1104 90 q 721 -26 881 -26 z "},"Ứ":{"ha":1435,"x_min":214,"x_max":1479,"o":"m 1468 1776 q 1473 1661 1479 1718 q 1435 1558 1467 1604 q 1342 1485 1404 1513 q 1178 1457 1279 1457 l 1178 1544 q 1310 1579 1272 1551 q 1352 1654 1349 1607 q 1346 1767 1356 1701 q 1359 1803 1343 1790 q 1399 1819 1375 1817 q 1443 1810 1422 1821 q 1468 1776 1464 1800 m 721 -26 q 506 7 600 -26 q 347 105 411 40 q 248 263 282 169 q 214 475 214 356 l 214 1511 q 229 1540 214 1531 q 275 1549 244 1549 q 321 1540 306 1549 q 336 1511 336 1531 l 336 475 q 381 267 336 353 q 510 137 425 182 q 721 92 596 92 q 928 137 844 92 q 1056 267 1013 182 q 1100 475 1100 353 l 1100 1511 q 1115 1540 1100 1531 q 1161 1549 1131 1549 q 1221 1511 1221 1549 l 1221 475 q 1163 203 1221 315 q 992 32 1104 90 q 721 -26 881 -26 m 647 1611 q 613 1629 631 1611 q 596 1661 596 1647 q 598 1674 596 1668 q 608 1688 600 1679 l 814 1890 q 827 1901 821 1897 q 843 1906 833 1906 q 874 1893 857 1906 q 904 1864 892 1881 q 917 1832 917 1847 q 913 1815 917 1822 q 896 1797 910 1808 l 675 1624 q 659 1615 665 1618 q 647 1611 653 1611 z "},"Ự":{"ha":1435,"x_min":214,"x_max":1479,"o":"m 1468 1776 q 1473 1661 1479 1718 q 1435 1558 1467 1604 q 1342 1485 1404 1513 q 1178 1457 1279 1457 l 1178 1544 q 1310 1579 1272 1551 q 1352 1654 1349 1607 q 1346 1767 1356 1701 q 1359 1803 1343 1790 q 1399 1819 1375 1817 q 1443 1810 1422 1821 q 1468 1776 1464 1800 m 721 -26 q 506 7 600 -26 q 347 105 411 40 q 248 263 282 169 q 214 475 214 356 l 214 1511 q 229 1540 214 1531 q 275 1549 244 1549 q 321 1540 306 1549 q 336 1511 336 1531 l 336 475 q 381 267 336 353 q 510 137 425 182 q 721 92 596 92 q 928 137 844 92 q 1056 267 1013 182 q 1100 475 1100 353 l 1100 1511 q 1115 1540 1100 1531 q 1161 1549 1131 1549 q 1221 1511 1221 1549 l 1221 475 q 1163 203 1221 315 q 992 32 1104 90 q 721 -26 881 -26 m 718 -326 q 660 -305 679 -326 q 640 -239 640 -283 q 660 -173 640 -194 q 718 -151 679 -151 q 775 -173 756 -151 q 794 -239 794 -194 q 776 -305 796 -283 q 718 -326 756 -326 z "},"Ừ":{"ha":1435,"x_min":214,"x_max":1479,"o":"m 1468 1776 q 1473 1661 1479 1718 q 1435 1558 1467 1604 q 1342 1485 1404 1513 q 1178 1457 1279 1457 l 1178 1544 q 1310 1579 1272 1551 q 1352 1654 1349 1607 q 1346 1767 1356 1701 q 1359 1803 1343 1790 q 1399 1819 1375 1817 q 1443 1810 1422 1821 q 1468 1776 1464 1800 m 721 -26 q 506 7 600 -26 q 347 105 411 40 q 248 263 282 169 q 214 475 214 356 l 214 1511 q 229 1540 214 1531 q 275 1549 244 1549 q 321 1540 306 1549 q 336 1511 336 1531 l 336 475 q 381 267 336 353 q 510 137 425 182 q 721 92 596 92 q 928 137 844 92 q 1056 267 1013 182 q 1100 475 1100 353 l 1100 1511 q 1115 1540 1100 1531 q 1161 1549 1131 1549 q 1221 1511 1221 1549 l 1221 475 q 1163 203 1221 315 q 992 32 1104 90 q 721 -26 881 -26 m 789 1611 q 777 1615 783 1611 q 761 1624 771 1618 l 540 1797 q 524 1815 528 1808 q 519 1832 519 1822 q 532 1864 519 1847 q 563 1893 544 1881 q 593 1906 581 1906 q 609 1901 603 1906 q 622 1890 615 1897 l 828 1688 q 840 1674 838 1679 q 842 1663 842 1668 q 824 1629 842 1647 q 789 1611 806 1611 z "},"Ử":{"ha":1435,"x_min":214,"x_max":1479,"o":"m 1468 1776 q 1473 1661 1479 1718 q 1435 1558 1467 1604 q 1342 1485 1404 1513 q 1178 1457 1279 1457 l 1178 1544 q 1310 1579 1272 1551 q 1352 1654 1349 1607 q 1346 1767 1356 1701 q 1359 1803 1343 1790 q 1399 1819 1375 1817 q 1443 1810 1422 1821 q 1468 1776 1464 1800 m 721 -26 q 506 7 600 -26 q 347 105 411 40 q 248 263 282 169 q 214 475 214 356 l 214 1511 q 229 1540 214 1531 q 275 1549 244 1549 q 321 1540 306 1549 q 336 1511 336 1531 l 336 475 q 381 267 336 353 q 510 137 425 182 q 721 92 596 92 q 928 137 844 92 q 1056 267 1013 182 q 1100 475 1100 353 l 1100 1511 q 1115 1540 1100 1531 q 1161 1549 1131 1549 q 1221 1511 1221 1549 l 1221 475 q 1163 203 1221 315 q 992 32 1104 90 q 721 -26 881 -26 m 735 1943 q 844 1910 803 1943 q 886 1822 886 1876 q 869 1759 886 1786 q 814 1703 853 1732 q 789 1678 796 1689 q 785 1653 782 1667 l 786 1643 q 778 1617 790 1628 q 749 1601 767 1606 q 715 1601 731 1597 q 692 1619 699 1606 l 676 1657 q 677 1716 665 1689 q 719 1765 689 1743 q 747 1790 739 1779 q 756 1813 756 1801 q 744 1833 756 1824 q 713 1842 732 1842 q 669 1835 692 1842 q 635 1819 647 1829 q 576 1842 601 1799 q 585 1896 560 1874 q 653 1930 614 1917 q 735 1943 693 1943 z "},"Ữ":{"ha":1435,"x_min":214,"x_max":1479,"o":"m 1468 1776 q 1473 1661 1479 1718 q 1435 1558 1467 1604 q 1342 1485 1404 1513 q 1178 1457 1279 1457 l 1178 1544 q 1310 1579 1272 1551 q 1352 1654 1349 1607 q 1346 1767 1356 1701 q 1359 1803 1343 1790 q 1399 1819 1375 1817 q 1443 1810 1422 1821 q 1468 1776 1464 1800 m 721 -26 q 506 7 600 -26 q 347 105 411 40 q 248 263 282 169 q 214 475 214 356 l 214 1511 q 229 1540 214 1531 q 275 1549 244 1549 q 321 1540 306 1549 q 336 1511 336 1531 l 336 475 q 381 267 336 353 q 510 137 425 182 q 721 92 596 92 q 928 137 844 92 q 1056 267 1013 182 q 1100 475 1100 353 l 1100 1511 q 1115 1540 1100 1531 q 1161 1549 1131 1549 q 1221 1511 1221 1549 l 1221 475 q 1163 203 1221 315 q 992 32 1104 90 q 721 -26 881 -26 m 504 1651 q 457 1689 457 1651 q 491 1824 458 1782 q 586 1865 524 1865 q 665 1851 629 1865 q 732 1817 701 1836 q 789 1783 763 1797 q 839 1768 815 1768 q 867 1787 857 1768 q 878 1838 876 1806 q 925 1867 879 1867 q 963 1858 951 1867 q 975 1829 975 1849 q 942 1700 974 1746 q 843 1654 911 1654 q 763 1669 800 1654 q 694 1702 725 1683 q 638 1735 664 1721 q 590 1750 613 1750 q 565 1736 574 1750 q 554 1689 557 1722 q 540 1661 553 1671 q 504 1651 528 1651 z "},"Ẃ":{"ha":1974,"x_min":26,"x_max":1947,"o":"m 503 -19 q 453 -7 471 -19 q 426 36 435 6 l 32 1486 q 35 1519 26 1506 q 75 1543 44 1533 q 122 1549 103 1553 q 146 1522 140 1546 l 506 174 l 915 1499 q 940 1538 924 1526 q 986 1549 956 1549 q 1034 1538 1018 1549 q 1058 1499 1050 1526 l 1465 175 l 1828 1522 q 1853 1549 1835 1546 q 1899 1543 1872 1553 q 1938 1519 1929 1533 q 1942 1486 1947 1506 l 1543 36 q 1517 -7 1535 6 q 1465 -19 1500 -19 q 1416 -7 1432 -19 q 1389 36 1400 6 l 986 1354 l 581 36 q 553 -7 571 6 q 503 -19 536 -19 m 915 1611 q 881 1629 899 1611 q 864 1661 864 1647 q 866 1674 864 1668 q 876 1688 868 1679 l 1082 1890 q 1095 1901 1089 1897 q 1111 1906 1101 1906 q 1142 1893 1125 1906 q 1172 1864 1160 1881 q 1185 1832 1185 1847 q 1181 1815 1185 1822 q 1164 1797 1178 1808 l 943 1624 q 927 1615 933 1618 q 915 1611 921 1611 z "},"Ŵ":{"ha":1974,"x_min":26,"x_max":1947,"o":"m 503 -19 q 453 -7 471 -19 q 426 36 435 6 l 32 1486 q 35 1519 26 1506 q 75 1543 44 1533 q 122 1549 103 1553 q 146 1522 140 1546 l 506 174 l 915 1499 q 940 1538 924 1526 q 986 1549 956 1549 q 1034 1538 1018 1549 q 1058 1499 1050 1526 l 1465 175 l 1828 1522 q 1853 1549 1835 1546 q 1899 1543 1872 1553 q 1938 1519 1929 1533 q 1942 1486 1947 1506 l 1543 36 q 1517 -7 1535 6 q 1465 -19 1500 -19 q 1416 -7 1432 -19 q 1389 36 1400 6 l 986 1354 l 581 36 q 553 -7 571 6 q 503 -19 536 -19 m 767 1611 q 736 1628 754 1611 q 718 1658 718 1644 q 719 1668 718 1663 q 726 1681 719 1674 l 925 1878 q 947 1897 935 1888 q 986 1906 960 1906 q 1024 1897 1013 1906 q 1046 1878 1036 1888 l 1247 1681 q 1255 1668 1254 1674 q 1256 1658 1256 1663 q 1238 1628 1256 1644 q 1206 1611 1219 1611 q 1190 1616 1197 1611 q 1172 1629 1183 1621 l 986 1767 l 801 1629 q 784 1616 792 1621 q 767 1611 776 1611 z "},"Ẅ":{"ha":1974,"x_min":26,"x_max":1947,"o":"m 503 -19 q 453 -7 471 -19 q 426 36 435 6 l 32 1486 q 35 1519 26 1506 q 75 1543 44 1533 q 122 1549 103 1553 q 146 1522 140 1546 l 506 174 l 915 1499 q 940 1538 924 1526 q 986 1549 956 1549 q 1034 1538 1018 1549 q 1058 1499 1050 1526 l 1465 175 l 1828 1522 q 1853 1549 1835 1546 q 1899 1543 1872 1553 q 1938 1519 1929 1533 q 1942 1486 1947 1506 l 1543 36 q 1517 -7 1535 6 q 1465 -19 1500 -19 q 1416 -7 1432 -19 q 1389 36 1400 6 l 986 1354 l 581 36 q 553 -7 571 6 q 503 -19 536 -19 m 811 1661 q 753 1683 774 1661 q 733 1747 733 1704 q 753 1814 733 1792 q 813 1836 772 1836 q 869 1814 850 1836 q 889 1747 889 1792 q 870 1683 890 1704 q 811 1661 850 1661 m 1163 1661 q 1104 1683 1124 1661 q 1085 1747 1085 1704 q 1104 1814 1085 1792 q 1163 1836 1124 1836 q 1219 1814 1200 1836 q 1239 1747 1239 1792 q 1220 1683 1240 1704 q 1163 1661 1200 1661 z "},"Ẁ":{"ha":1974,"x_min":26,"x_max":1947,"o":"m 503 -19 q 453 -7 471 -19 q 426 36 435 6 l 32 1486 q 35 1519 26 1506 q 75 1543 44 1533 q 122 1549 103 1553 q 146 1522 140 1546 l 506 174 l 915 1499 q 940 1538 924 1526 q 986 1549 956 1549 q 1034 1538 1018 1549 q 1058 1499 1050 1526 l 1465 175 l 1828 1522 q 1853 1549 1835 1546 q 1899 1543 1872 1553 q 1938 1519 1929 1533 q 1942 1486 1947 1506 l 1543 36 q 1517 -7 1535 6 q 1465 -19 1500 -19 q 1416 -7 1432 -19 q 1389 36 1400 6 l 986 1354 l 581 36 q 553 -7 571 6 q 503 -19 536 -19 m 1057 1611 q 1045 1615 1051 1611 q 1029 1624 1039 1618 l 808 1797 q 792 1815 796 1808 q 788 1832 788 1822 q 800 1864 788 1847 q 831 1893 813 1881 q 861 1906 849 1906 q 877 1901 871 1906 q 890 1890 883 1897 l 1096 1688 q 1108 1674 1106 1679 q 1110 1663 1110 1668 q 1092 1629 1110 1647 q 1057 1611 1074 1611 z "},"Ý":{"ha":1044,"x_min":4,"x_max":1040,"o":"m 519 -19 q 458 19 458 -19 l 458 650 l 14 1474 q 12 1506 4 1490 q 49 1536 19 1521 q 92 1551 75 1550 q 122 1528 110 1551 l 519 782 l 924 1528 q 954 1551 938 1551 q 997 1536 971 1550 q 1033 1506 1025 1521 q 1032 1474 1040 1490 l 581 650 l 581 19 q 519 -19 581 -19 m 451 1611 q 417 1629 435 1611 q 400 1661 400 1647 q 402 1674 400 1668 q 413 1688 404 1679 l 618 1890 q 631 1901 625 1897 q 647 1906 638 1906 q 678 1893 661 1906 q 708 1864 696 1881 q 721 1832 721 1847 q 717 1815 721 1822 q 700 1797 714 1808 l 479 1624 q 463 1615 469 1618 q 451 1611 457 1611 z "},"Ŷ":{"ha":1044,"x_min":4,"x_max":1040,"o":"m 519 -19 q 458 19 458 -19 l 458 650 l 14 1474 q 12 1506 4 1490 q 49 1536 19 1521 q 92 1551 75 1550 q 122 1528 110 1551 l 519 782 l 924 1528 q 954 1551 938 1551 q 997 1536 971 1550 q 1033 1506 1025 1521 q 1032 1474 1040 1490 l 581 650 l 581 19 q 519 -19 581 -19 m 303 1611 q 272 1628 290 1611 q 254 1658 254 1644 q 255 1668 254 1663 q 263 1681 256 1674 l 461 1878 q 483 1897 471 1888 q 522 1906 496 1906 q 560 1897 549 1906 q 582 1878 572 1888 l 783 1681 q 791 1668 790 1674 q 792 1658 792 1663 q 774 1628 792 1644 q 742 1611 756 1611 q 726 1616 733 1611 q 708 1629 719 1621 l 522 1767 l 338 1629 q 320 1616 328 1621 q 303 1611 313 1611 z "},"Ÿ":{"ha":1044,"x_min":4,"x_max":1040,"o":"m 519 -19 q 458 19 458 -19 l 458 650 l 14 1474 q 12 1506 4 1490 q 49 1536 19 1521 q 92 1551 75 1550 q 122 1528 110 1551 l 519 782 l 924 1528 q 954 1551 938 1551 q 997 1536 971 1550 q 1033 1506 1025 1521 q 1032 1474 1040 1490 l 581 650 l 581 19 q 519 -19 581 -19 m 347 1661 q 290 1683 310 1661 q 269 1747 269 1704 q 289 1814 269 1792 q 349 1836 308 1836 q 406 1814 386 1836 q 425 1747 425 1792 q 406 1683 426 1704 q 347 1661 386 1661 m 699 1661 q 640 1683 660 1661 q 621 1747 621 1704 q 640 1814 621 1792 q 699 1836 660 1836 q 756 1814 736 1836 q 775 1747 775 1792 q 756 1683 776 1704 q 699 1661 736 1661 z "},"Ỳ":{"ha":1044,"x_min":4,"x_max":1040,"o":"m 519 -19 q 458 19 458 -19 l 458 650 l 14 1474 q 12 1506 4 1490 q 49 1536 19 1521 q 92 1551 75 1550 q 122 1528 110 1551 l 519 782 l 924 1528 q 954 1551 938 1551 q 997 1536 971 1550 q 1033 1506 1025 1521 q 1032 1474 1040 1490 l 581 650 l 581 19 q 519 -19 581 -19 m 593 1611 q 581 1615 588 1611 q 565 1624 575 1618 l 344 1797 q 328 1815 332 1808 q 324 1832 324 1822 q 336 1864 324 1847 q 367 1893 349 1881 q 397 1906 385 1906 q 413 1901 407 1906 q 426 1890 419 1897 l 632 1688 q 644 1674 642 1679 q 646 1663 646 1668 q 628 1629 646 1647 q 593 1611 610 1611 z "},"Ỵ":{"ha":1044,"x_min":4,"x_max":1040,"o":"m 519 -19 q 458 19 458 -19 l 458 650 l 14 1474 q 12 1506 4 1490 q 49 1536 19 1521 q 92 1551 75 1550 q 122 1528 110 1551 l 519 782 l 924 1528 q 954 1551 938 1551 q 997 1536 971 1550 q 1033 1506 1025 1521 q 1032 1474 1040 1490 l 581 650 l 581 19 q 519 -19 581 -19 m 514 -326 q 456 -305 475 -326 q 436 -239 436 -283 q 456 -173 436 -194 q 514 -151 475 -151 q 571 -173 551 -151 q 590 -239 590 -194 q 572 -305 592 -283 q 514 -326 551 -326 z "},"Ỷ":{"ha":1044,"x_min":4,"x_max":1040,"o":"m 519 -19 q 458 19 458 -19 l 458 650 l 14 1474 q 12 1506 4 1490 q 49 1536 19 1521 q 92 1551 75 1550 q 122 1528 110 1551 l 519 782 l 924 1528 q 954 1551 938 1551 q 997 1536 971 1550 q 1033 1506 1025 1521 q 1032 1474 1040 1490 l 581 650 l 581 19 q 519 -19 581 -19 m 539 1943 q 649 1910 607 1943 q 690 1822 690 1876 q 674 1759 690 1786 q 618 1703 657 1732 q 593 1678 600 1689 q 589 1653 586 1667 l 590 1643 q 583 1617 594 1628 q 553 1601 571 1606 q 519 1601 535 1597 q 496 1619 503 1606 l 481 1657 q 481 1716 469 1689 q 524 1765 493 1743 q 551 1790 543 1779 q 560 1813 560 1801 q 548 1833 560 1824 q 517 1842 536 1842 q 474 1835 496 1842 q 439 1819 451 1829 q 381 1842 406 1799 q 389 1896 364 1874 q 458 1930 418 1917 q 539 1943 497 1943 z "},"Ỹ":{"ha":1044,"x_min":4,"x_max":1040,"o":"m 519 -19 q 458 19 458 -19 l 458 650 l 14 1474 q 12 1506 4 1490 q 49 1536 19 1521 q 92 1551 75 1550 q 122 1528 110 1551 l 519 782 l 924 1528 q 954 1551 938 1551 q 997 1536 971 1550 q 1033 1506 1025 1521 q 1032 1474 1040 1490 l 581 650 l 581 19 q 519 -19 581 -19 m 308 1651 q 261 1689 261 1651 q 295 1824 263 1782 q 390 1865 328 1865 q 469 1851 433 1865 q 536 1817 506 1836 q 593 1783 567 1797 q 643 1768 619 1768 q 671 1787 661 1768 q 682 1838 681 1806 q 729 1867 683 1867 q 767 1858 756 1867 q 779 1829 779 1849 q 747 1700 778 1746 q 647 1654 715 1654 q 567 1669 604 1654 q 499 1702 529 1683 q 442 1735 468 1721 q 394 1750 417 1750 q 369 1736 378 1750 q 358 1689 361 1722 q 344 1661 357 1671 q 308 1651 332 1651 z "},"Ź":{"ha":1019,"x_min":22,"x_max":996,"o":"m 72 0 q 43 13 56 0 q 26 46 31 26 q 31 81 22 65 l 810 1411 l 118 1411 q 88 1424 97 1411 q 79 1467 79 1436 q 88 1510 79 1499 q 118 1522 97 1522 l 929 1522 q 970 1494 956 1522 q 971 1442 985 1467 l 193 111 l 957 111 q 987 99 978 111 q 996 56 996 88 q 987 13 996 25 q 957 0 978 0 l 72 0 m 439 1611 q 405 1629 422 1611 q 388 1661 388 1647 q 390 1674 388 1668 q 400 1688 392 1679 l 606 1890 q 619 1901 613 1897 q 635 1906 625 1906 q 666 1893 649 1906 q 696 1864 683 1881 q 708 1832 708 1847 q 705 1815 708 1822 q 688 1797 701 1808 l 467 1624 q 451 1615 457 1618 q 439 1611 444 1611 z "},"Ž":{"ha":1019,"x_min":22,"x_max":996,"o":"m 72 0 q 43 13 56 0 q 26 46 31 26 q 31 81 22 65 l 810 1411 l 118 1411 q 88 1424 97 1411 q 79 1467 79 1436 q 88 1510 79 1499 q 118 1522 97 1522 l 929 1522 q 970 1494 956 1522 q 971 1442 985 1467 l 193 111 l 957 111 q 987 99 978 111 q 996 56 996 88 q 987 13 996 25 q 957 0 978 0 l 72 0 m 731 1906 q 761 1890 743 1906 q 779 1858 779 1874 q 778 1850 779 1856 q 771 1836 778 1844 l 571 1639 q 549 1621 561 1631 q 510 1611 538 1611 q 472 1621 483 1611 q 451 1639 461 1631 l 250 1836 q 242 1850 243 1844 q 242 1858 242 1856 q 260 1890 242 1874 q 290 1906 278 1906 q 308 1901 300 1906 q 325 1889 315 1896 l 510 1750 l 696 1889 q 714 1901 707 1896 q 731 1906 721 1906 z "},"Ż":{"ha":1019,"x_min":22,"x_max":996,"o":"m 72 0 q 43 13 56 0 q 26 46 31 26 q 31 81 22 65 l 810 1411 l 118 1411 q 88 1424 97 1411 q 79 1467 79 1436 q 88 1510 79 1499 q 118 1522 97 1522 l 929 1522 q 970 1494 956 1522 q 971 1442 985 1467 l 193 111 l 957 111 q 987 99 978 111 q 996 56 996 88 q 987 13 996 25 q 957 0 978 0 l 72 0 m 510 1660 q 451 1681 471 1660 q 432 1746 432 1703 q 451 1813 432 1790 q 510 1835 471 1835 q 567 1813 547 1835 q 586 1746 586 1790 q 567 1681 588 1703 q 510 1660 547 1660 z "},"á":{"ha":867,"x_min":88,"x_max":865,"o":"m 314 -24 q 193 16 244 -24 q 115 130 142 56 q 88 310 88 204 q 101 445 88 382 q 140 559 114 508 q 203 646 165 610 q 291 701 242 682 q 401 721 340 721 q 489 711 449 721 q 571 679 529 701 l 571 682 q 586 706 571 697 q 631 715 601 715 q 676 706 661 715 q 692 679 692 697 l 692 147 q 694 110 692 124 q 703 90 697 96 q 721 85 710 85 q 740 92 732 85 q 758 114 749 99 q 779 154 768 129 q 797 171 785 167 q 828 167 810 175 q 856 147 847 160 q 858 118 865 135 q 824 49 846 81 q 774 -3 803 17 q 706 -24 744 -24 q 647 -13 672 -24 q 605 17 622 -3 q 579 66 588 38 q 571 129 571 94 q 571 178 571 153 q 571 229 571 204 q 506 92 546 149 q 418 6 467 36 q 314 -24 369 -24 m 210 311 q 222 197 210 247 q 261 117 233 146 q 335 88 289 88 q 433 140 386 88 q 515 288 479 193 q 571 513 551 383 l 571 571 q 490 603 528 594 q 421 613 453 613 q 347 600 381 613 q 288 563 314 588 q 245 501 263 538 q 219 417 228 465 q 210 311 210 369 m 371 847 q 335 864 356 847 q 314 894 314 881 q 315 903 314 899 q 322 917 317 907 l 471 1144 q 485 1160 478 1156 q 504 1165 493 1165 q 537 1155 518 1165 q 570 1130 556 1144 q 585 1103 585 1115 q 581 1087 585 1093 q 568 1069 578 1081 l 397 865 q 371 847 381 847 z "},"ă":{"ha":867,"x_min":88,"x_max":865,"o":"m 314 -24 q 193 16 244 -24 q 115 130 142 56 q 88 310 88 204 q 101 445 88 382 q 140 559 114 508 q 203 646 165 610 q 291 701 242 682 q 401 721 340 721 q 489 711 449 721 q 571 679 529 701 l 571 682 q 586 706 571 697 q 631 715 601 715 q 676 706 661 715 q 692 679 692 697 l 692 147 q 694 110 692 124 q 703 90 697 96 q 721 85 710 85 q 740 92 732 85 q 758 114 749 99 q 779 154 768 129 q 797 171 785 167 q 828 167 810 175 q 856 147 847 160 q 858 118 865 135 q 824 49 846 81 q 774 -3 803 17 q 706 -24 744 -24 q 647 -13 672 -24 q 605 17 622 -3 q 579 66 588 38 q 571 129 571 94 q 571 178 571 153 q 571 229 571 204 q 506 92 546 149 q 418 6 467 36 q 314 -24 369 -24 m 210 311 q 222 197 210 247 q 261 117 233 146 q 335 88 289 88 q 433 140 386 88 q 515 288 479 193 q 571 513 551 383 l 571 571 q 490 603 528 594 q 421 613 453 613 q 347 600 381 613 q 288 563 314 588 q 245 501 263 538 q 219 417 228 465 q 210 311 210 369 m 414 858 q 240 928 304 858 q 169 1124 175 999 q 179 1152 168 1140 q 217 1164 190 1164 q 253 1153 243 1164 q 267 1124 263 1142 q 315 1021 279 1061 q 414 981 350 981 q 514 1021 479 981 q 561 1124 549 1061 q 574 1153 565 1143 q 610 1164 583 1164 q 649 1152 636 1164 q 658 1124 661 1140 q 624 985 656 1044 q 538 892 592 925 q 414 858 483 858 z "},"ǎ":{"ha":867,"x_min":88,"x_max":865,"o":"m 314 -24 q 193 16 244 -24 q 115 130 142 56 q 88 310 88 204 q 101 445 88 382 q 140 559 114 508 q 203 646 165 610 q 291 701 242 682 q 401 721 340 721 q 489 711 449 721 q 571 679 529 701 l 571 682 q 586 706 571 697 q 631 715 601 715 q 676 706 661 715 q 692 679 692 697 l 692 147 q 694 110 692 124 q 703 90 697 96 q 721 85 710 85 q 740 92 732 85 q 758 114 749 99 q 779 154 768 129 q 797 171 785 167 q 828 167 810 175 q 856 147 847 160 q 858 118 865 135 q 824 49 846 81 q 774 -3 803 17 q 706 -24 744 -24 q 647 -13 672 -24 q 605 17 622 -3 q 579 66 588 38 q 571 129 571 94 q 571 178 571 153 q 571 229 571 204 q 506 92 546 149 q 418 6 467 36 q 314 -24 369 -24 m 210 311 q 222 197 210 247 q 261 117 233 146 q 335 88 289 88 q 433 140 386 88 q 515 288 479 193 q 571 513 551 383 l 571 571 q 490 603 528 594 q 421 613 453 613 q 347 600 381 613 q 288 563 314 588 q 245 501 263 538 q 219 417 228 465 q 210 311 210 369 m 613 1174 q 643 1158 625 1174 q 661 1126 661 1142 q 660 1119 661 1124 q 651 1104 658 1114 l 475 883 q 454 865 467 875 q 414 856 442 856 q 375 865 388 856 q 356 883 363 875 l 176 1104 q 169 1119 171 1114 q 168 1126 168 1124 q 185 1158 168 1142 q 217 1174 203 1174 q 233 1169 225 1174 q 251 1157 242 1164 l 414 994 l 578 1157 q 594 1169 586 1164 q 613 1174 603 1174 z "},"â":{"ha":867,"x_min":88,"x_max":865,"o":"m 314 -24 q 193 16 244 -24 q 115 130 142 56 q 88 310 88 204 q 101 445 88 382 q 140 559 114 508 q 203 646 165 610 q 291 701 242 682 q 401 721 340 721 q 489 711 449 721 q 571 679 529 701 l 571 682 q 586 706 571 697 q 631 715 601 715 q 676 706 661 715 q 692 679 692 697 l 692 147 q 694 110 692 124 q 703 90 697 96 q 721 85 710 85 q 740 92 732 85 q 758 114 749 99 q 779 154 768 129 q 797 171 785 167 q 828 167 810 175 q 856 147 847 160 q 858 118 865 135 q 824 49 846 81 q 774 -3 803 17 q 706 -24 744 -24 q 647 -13 672 -24 q 605 17 622 -3 q 579 66 588 38 q 571 129 571 94 q 571 178 571 153 q 571 229 571 204 q 506 92 546 149 q 418 6 467 36 q 314 -24 369 -24 m 210 311 q 222 197 210 247 q 261 117 233 146 q 335 88 289 88 q 433 140 386 88 q 515 288 479 193 q 571 513 551 383 l 571 571 q 490 603 528 594 q 421 613 453 613 q 347 600 381 613 q 288 563 314 588 q 245 501 263 538 q 219 417 228 465 q 210 311 210 369 m 217 847 q 185 864 203 847 q 168 894 168 881 q 169 903 168 899 q 176 917 171 907 l 353 1138 q 374 1156 361 1147 q 414 1165 388 1165 q 453 1156 440 1165 q 474 1138 465 1147 l 651 917 q 660 903 658 907 q 661 894 661 899 q 643 864 661 881 q 613 847 625 847 q 594 852 603 847 q 578 865 586 857 l 414 1026 l 251 865 q 233 852 242 857 q 217 847 225 847 z "},"ä":{"ha":867,"x_min":88,"x_max":865,"o":"m 314 -24 q 193 16 244 -24 q 115 130 142 56 q 88 310 88 204 q 101 445 88 382 q 140 559 114 508 q 203 646 165 610 q 291 701 242 682 q 401 721 340 721 q 489 711 449 721 q 571 679 529 701 l 571 682 q 586 706 571 697 q 631 715 601 715 q 676 706 661 715 q 692 679 692 697 l 692 147 q 694 110 692 124 q 703 90 697 96 q 721 85 710 85 q 740 92 732 85 q 758 114 749 99 q 779 154 768 129 q 797 171 785 167 q 828 167 810 175 q 856 147 847 160 q 858 118 865 135 q 824 49 846 81 q 774 -3 803 17 q 706 -24 744 -24 q 647 -13 672 -24 q 605 17 622 -3 q 579 66 588 38 q 571 129 571 94 q 571 178 571 153 q 571 229 571 204 q 506 92 546 149 q 418 6 467 36 q 314 -24 369 -24 m 210 311 q 222 197 210 247 q 261 117 233 146 q 335 88 289 88 q 433 140 386 88 q 515 288 479 193 q 571 513 551 383 l 571 571 q 490 603 528 594 q 421 613 453 613 q 347 600 381 613 q 288 563 314 588 q 245 501 263 538 q 219 417 228 465 q 210 311 210 369 m 253 929 q 194 951 214 929 q 175 1015 175 972 q 194 1082 175 1060 q 253 1104 214 1104 q 310 1082 292 1104 q 329 1015 329 1060 q 312 951 332 972 q 253 929 292 929 m 576 929 q 518 951 538 929 q 499 1015 499 972 q 518 1082 499 1060 q 576 1104 538 1104 q 633 1082 614 1104 q 653 1015 653 1060 q 634 951 654 972 q 576 929 614 929 z "},"ǽ":{"ha":1240,"x_min":88,"x_max":1194,"o":"m 88 297 q 101 428 88 365 q 142 544 114 490 q 213 637 169 597 q 317 699 257 676 q 453 721 376 721 q 578 711 521 721 q 688 685 635 701 q 797 647 742 668 q 742 490 761 569 q 722 331 722 411 q 744 195 722 250 q 806 113 765 140 q 901 85 846 85 q 987 103 953 85 q 1046 150 1021 121 q 1094 210 1071 179 q 1128 229 1110 231 q 1165 213 1146 228 q 1190 183 1185 197 q 1182 150 1194 168 q 1097 51 1143 90 q 1000 -8 1051 11 q 888 -26 949 -26 q 736 15 801 -26 q 635 134 671 57 q 599 318 599 211 q 609 447 599 389 q 636 554 619 506 q 668 640 653 603 l 700 546 q 578 592 636 574 q 449 610 519 610 q 342 587 388 610 q 268 522 297 564 q 224 425 239 481 q 210 303 210 369 q 223 190 210 239 q 263 115 236 142 q 331 88 289 88 q 392 110 360 88 q 461 189 424 132 q 546 348 499 246 q 654 608 593 450 l 740 588 q 622 282 676 401 q 517 96 567 163 q 419 3 468 29 q 319 -24 371 -24 q 151 62 214 -24 q 88 297 88 147 m 1167 543 q 1141 445 1167 490 q 1069 363 1115 400 q 958 297 1022 326 q 819 244 894 267 q 660 208 743 222 l 660 304 q 774 333 718 317 q 878 369 831 349 q 963 413 926 389 q 1021 467 1000 438 q 1042 529 1042 496 q 1011 592 1042 574 q 938 611 981 611 q 820 592 875 611 q 717 533 765 574 l 692 643 q 822 701 750 681 q 958 721 894 721 q 1106 677 1044 721 q 1167 543 1167 633 m 643 847 q 607 864 628 847 q 586 894 586 881 q 588 903 586 899 q 594 917 589 907 l 743 1144 q 758 1160 750 1156 q 776 1165 765 1165 q 809 1155 790 1165 q 842 1130 828 1144 q 857 1103 857 1115 q 853 1087 857 1093 q 840 1069 850 1081 l 669 865 q 643 847 653 847 z "},"à":{"ha":867,"x_min":88,"x_max":865,"o":"m 314 -24 q 193 16 244 -24 q 115 130 142 56 q 88 310 88 204 q 101 445 88 382 q 140 559 114 508 q 203 646 165 610 q 291 701 242 682 q 401 721 340 721 q 489 711 449 721 q 571 679 529 701 l 571 682 q 586 706 571 697 q 631 715 601 715 q 676 706 661 715 q 692 679 692 697 l 692 147 q 694 110 692 124 q 703 90 697 96 q 721 85 710 85 q 740 92 732 85 q 758 114 749 99 q 779 154 768 129 q 797 171 785 167 q 828 167 810 175 q 856 147 847 160 q 858 118 865 135 q 824 49 846 81 q 774 -3 803 17 q 706 -24 744 -24 q 647 -13 672 -24 q 605 17 622 -3 q 579 66 588 38 q 571 129 571 94 q 571 178 571 153 q 571 229 571 204 q 506 92 546 149 q 418 6 467 36 q 314 -24 369 -24 m 210 311 q 222 197 210 247 q 261 117 233 146 q 335 88 289 88 q 433 140 386 88 q 515 288 479 193 q 571 513 551 383 l 571 571 q 490 603 528 594 q 421 613 453 613 q 347 600 381 613 q 288 563 314 588 q 245 501 263 538 q 219 417 228 465 q 210 311 210 369 m 456 847 q 444 851 450 847 q 429 865 438 856 l 258 1069 q 245 1087 249 1081 q 242 1103 242 1093 q 256 1130 242 1115 q 290 1155 271 1144 q 322 1165 308 1165 q 356 1144 342 1165 l 504 917 q 512 903 511 907 q 513 894 513 899 q 492 864 513 881 q 456 847 471 847 z "},"ā":{"ha":867,"x_min":88,"x_max":865,"o":"m 314 -24 q 193 16 244 -24 q 115 130 142 56 q 88 310 88 204 q 101 445 88 382 q 140 559 114 508 q 203 646 165 610 q 291 701 242 682 q 401 721 340 721 q 489 711 449 721 q 571 679 529 701 l 571 682 q 586 706 571 697 q 631 715 601 715 q 676 706 661 715 q 692 679 692 697 l 692 147 q 694 110 692 124 q 703 90 697 96 q 721 85 710 85 q 740 92 732 85 q 758 114 749 99 q 779 154 768 129 q 797 171 785 167 q 828 167 810 175 q 856 147 847 160 q 858 118 865 135 q 824 49 846 81 q 774 -3 803 17 q 706 -24 744 -24 q 647 -13 672 -24 q 605 17 622 -3 q 579 66 588 38 q 571 129 571 94 q 571 178 571 153 q 571 229 571 204 q 506 92 546 149 q 418 6 467 36 q 314 -24 369 -24 m 210 311 q 222 197 210 247 q 261 117 233 146 q 335 88 289 88 q 433 140 386 88 q 515 288 479 193 q 571 513 551 383 l 571 571 q 490 603 528 594 q 421 613 453 613 q 347 600 381 613 q 288 563 314 588 q 245 501 263 538 q 219 417 228 465 q 210 311 210 369 m 228 953 q 197 969 204 953 q 190 1011 190 986 q 197 1054 190 1038 q 228 1071 204 1071 l 600 1071 q 631 1054 625 1071 q 638 1011 638 1038 q 631 969 638 986 q 600 953 625 953 l 228 953 z "},"ą":{"ha":867,"x_min":88,"x_max":865,"o":"m 314 -24 q 193 16 244 -24 q 115 130 142 56 q 88 310 88 204 q 101 445 88 382 q 140 559 114 508 q 203 646 165 610 q 291 701 242 682 q 401 721 340 721 q 489 711 449 721 q 571 679 529 701 l 571 682 q 586 706 571 697 q 631 715 601 715 q 676 706 661 715 q 692 679 692 697 l 692 147 q 694 110 692 124 q 703 90 697 96 q 721 85 710 85 q 740 92 732 85 q 758 114 749 99 q 779 154 768 129 q 797 171 785 167 q 828 167 810 175 q 856 147 847 160 q 858 118 865 135 q 824 49 846 81 q 774 -3 803 17 q 706 -24 744 -24 q 647 -13 672 -24 q 605 17 622 -3 q 579 66 588 38 q 571 129 571 94 q 571 178 571 153 q 571 229 571 204 q 506 92 546 149 q 418 6 467 36 q 314 -24 369 -24 m 210 311 q 222 197 210 247 q 261 117 233 146 q 335 88 289 88 q 433 140 386 88 q 515 288 479 193 q 571 513 551 383 l 571 571 q 490 603 528 594 q 421 613 453 613 q 347 600 381 613 q 288 563 314 588 q 245 501 263 538 q 219 417 228 465 q 210 311 210 369 m 658 -339 q 572 -308 604 -339 q 540 -228 540 -278 q 552 -165 540 -196 q 587 -102 564 -135 q 644 -33 610 -69 q 725 44 679 3 l 811 43 l 811 33 q 754 -27 782 4 q 704 -88 726 -58 q 669 -144 682 -118 q 656 -193 656 -171 q 664 -223 656 -211 q 692 -235 672 -235 q 735 -216 715 -235 q 778 -172 756 -197 q 799 -161 786 -165 q 829 -168 811 -157 q 854 -196 846 -178 q 854 -228 863 -214 q 799 -290 833 -265 q 727 -327 764 -315 q 658 -339 690 -339 z "},"å":{"ha":867,"x_min":88,"x_max":865,"o":"m 314 -24 q 193 16 244 -24 q 115 130 142 56 q 88 310 88 204 q 101 445 88 382 q 140 559 114 508 q 203 646 165 610 q 291 701 242 682 q 401 721 340 721 q 489 711 449 721 q 571 679 529 701 l 571 682 q 586 706 571 697 q 631 715 601 715 q 676 706 661 715 q 692 679 692 697 l 692 147 q 694 110 692 124 q 703 90 697 96 q 721 85 710 85 q 740 92 732 85 q 758 114 749 99 q 779 154 768 129 q 797 171 785 167 q 828 167 810 175 q 856 147 847 160 q 858 118 865 135 q 824 49 846 81 q 774 -3 803 17 q 706 -24 744 -24 q 647 -13 672 -24 q 605 17 622 -3 q 579 66 588 38 q 571 129 571 94 q 571 178 571 153 q 571 229 571 204 q 506 92 546 149 q 418 6 467 36 q 314 -24 369 -24 m 210 311 q 222 197 210 247 q 261 117 233 146 q 335 88 289 88 q 433 140 386 88 q 515 288 479 193 q 571 513 551 383 l 571 571 q 490 603 528 594 q 421 613 453 613 q 347 600 381 613 q 288 563 314 588 q 245 501 263 538 q 219 417 228 465 q 210 311 210 369 m 414 835 q 277 885 329 835 q 225 1015 225 935 q 249 1110 225 1069 q 315 1172 272 1150 q 414 1194 358 1194 q 551 1146 499 1194 q 603 1015 603 1097 q 579 921 603 961 q 513 858 556 881 q 414 835 471 835 m 414 918 q 463 931 443 918 q 494 965 483 943 q 504 1015 504 986 q 481 1085 504 1060 q 414 1111 457 1111 q 365 1099 386 1111 q 334 1066 344 1088 q 324 1015 324 1044 q 347 945 324 972 q 414 918 371 918 z "},"ã":{"ha":867,"x_min":88,"x_max":865,"o":"m 314 -24 q 193 16 244 -24 q 115 130 142 56 q 88 310 88 204 q 101 445 88 382 q 140 559 114 508 q 203 646 165 610 q 291 701 242 682 q 401 721 340 721 q 489 711 449 721 q 571 679 529 701 l 571 682 q 586 706 571 697 q 631 715 601 715 q 676 706 661 715 q 692 679 692 697 l 692 147 q 694 110 692 124 q 703 90 697 96 q 721 85 710 85 q 740 92 732 85 q 758 114 749 99 q 779 154 768 129 q 797 171 785 167 q 828 167 810 175 q 856 147 847 160 q 858 118 865 135 q 824 49 846 81 q 774 -3 803 17 q 706 -24 744 -24 q 647 -13 672 -24 q 605 17 622 -3 q 579 66 588 38 q 571 129 571 94 q 571 178 571 153 q 571 229 571 204 q 506 92 546 149 q 418 6 467 36 q 314 -24 369 -24 m 210 311 q 222 197 210 247 q 261 117 233 146 q 335 88 289 88 q 433 140 386 88 q 515 288 479 193 q 571 513 551 383 l 571 571 q 490 603 528 594 q 421 613 453 613 q 347 600 381 613 q 288 563 314 588 q 245 501 263 538 q 219 417 228 465 q 210 311 210 369 m 206 889 q 158 925 158 889 q 192 1069 161 1026 q 283 1113 224 1113 q 360 1098 325 1113 q 427 1063 396 1083 q 484 1028 458 1043 q 532 1014 510 1014 q 558 1031 549 1014 q 568 1085 567 1049 q 615 1115 572 1115 q 654 1106 643 1115 q 665 1076 665 1096 q 635 941 664 992 q 539 890 606 890 q 458 906 494 890 q 390 941 421 921 q 335 976 360 961 q 290 992 311 992 q 267 976 275 992 q 256 925 258 961 q 242 898 254 907 q 206 889 229 889 z "},"ắ":{"ha":867,"x_min":88,"x_max":865,"o":"m 314 -24 q 193 16 244 -24 q 115 130 142 56 q 88 310 88 204 q 101 445 88 382 q 140 559 114 508 q 203 646 165 610 q 291 701 242 682 q 401 721 340 721 q 489 711 449 721 q 571 679 529 701 l 571 682 q 586 706 571 697 q 631 715 601 715 q 676 706 661 715 q 692 679 692 697 l 692 147 q 694 110 692 124 q 703 90 697 96 q 721 85 710 85 q 740 92 732 85 q 758 114 749 99 q 779 154 768 129 q 797 171 785 167 q 828 167 810 175 q 856 147 847 160 q 858 118 865 135 q 824 49 846 81 q 774 -3 803 17 q 706 -24 744 -24 q 647 -13 672 -24 q 605 17 622 -3 q 579 66 588 38 q 571 129 571 94 q 571 178 571 153 q 571 229 571 204 q 506 92 546 149 q 418 6 467 36 q 314 -24 369 -24 m 210 311 q 222 197 210 247 q 261 117 233 146 q 335 88 289 88 q 433 140 386 88 q 515 288 479 193 q 571 513 551 383 l 571 571 q 490 603 528 594 q 421 613 453 613 q 347 600 381 613 q 288 563 314 588 q 245 501 263 538 q 219 417 228 465 q 210 311 210 369 m 414 858 q 240 928 304 858 q 169 1124 175 999 q 179 1152 168 1140 q 217 1164 190 1164 q 253 1153 243 1164 q 267 1124 263 1142 q 315 1021 279 1061 q 414 981 350 981 q 514 1021 479 981 q 561 1124 549 1061 q 574 1153 565 1143 q 610 1164 583 1164 q 649 1152 636 1164 q 658 1124 661 1140 q 624 985 656 1044 q 538 892 592 925 q 414 858 483 858 m 375 1161 q 339 1178 360 1161 q 318 1208 318 1194 q 319 1217 318 1213 q 326 1231 321 1221 l 475 1458 q 490 1474 482 1469 q 508 1479 497 1479 q 541 1469 522 1479 q 574 1444 560 1458 q 589 1417 589 1429 q 585 1401 589 1407 q 572 1383 582 1394 l 401 1179 q 375 1161 385 1161 z "},"ặ":{"ha":867,"x_min":88,"x_max":865,"o":"m 314 -24 q 193 16 244 -24 q 115 130 142 56 q 88 310 88 204 q 101 445 88 382 q 140 559 114 508 q 203 646 165 610 q 291 701 242 682 q 401 721 340 721 q 489 711 449 721 q 571 679 529 701 l 571 682 q 586 706 571 697 q 631 715 601 715 q 676 706 661 715 q 692 679 692 697 l 692 147 q 694 110 692 124 q 703 90 697 96 q 721 85 710 85 q 740 92 732 85 q 758 114 749 99 q 779 154 768 129 q 797 171 785 167 q 828 167 810 175 q 856 147 847 160 q 858 118 865 135 q 824 49 846 81 q 774 -3 803 17 q 706 -24 744 -24 q 647 -13 672 -24 q 605 17 622 -3 q 579 66 588 38 q 571 129 571 94 q 571 178 571 153 q 571 229 571 204 q 506 92 546 149 q 418 6 467 36 q 314 -24 369 -24 m 210 311 q 222 197 210 247 q 261 117 233 146 q 335 88 289 88 q 433 140 386 88 q 515 288 479 193 q 571 513 551 383 l 571 571 q 490 603 528 594 q 421 613 453 613 q 347 600 381 613 q 288 563 314 588 q 245 501 263 538 q 219 417 228 465 q 210 311 210 369 m 390 -326 q 332 -305 351 -326 q 313 -239 313 -283 q 332 -173 313 -194 q 390 -151 351 -151 q 447 -173 428 -151 q 467 -239 467 -194 q 448 -305 468 -283 q 390 -326 428 -326 m 414 858 q 240 928 304 858 q 169 1124 175 999 q 179 1152 168 1140 q 217 1164 190 1164 q 253 1153 243 1164 q 267 1124 263 1142 q 315 1021 279 1061 q 414 981 350 981 q 514 1021 479 981 q 561 1124 549 1061 q 574 1153 565 1143 q 610 1164 583 1164 q 649 1152 636 1164 q 658 1124 661 1140 q 624 985 656 1044 q 538 892 592 925 q 414 858 483 858 z "}}}
